<svg width="145" height="67" viewBox="0 0 145 67" fill="none" xmlns="http://www.w3.org/2000/svg">
<path d="M16.1838 54.4675C10.0021 49.9857 4.8037 45.855 4.69617 45.2678C4.52143 44.3136 20.6971 21.3998 21.6604 21.2234C21.8827 21.1827 22.4679 23.1238 22.898 25.4726C23.3416 27.8948 23.9334 30.2899 24.2498 30.763C24.795 31.6493 37.09 29.7837 109.284 16.2596L112.318 37.8688C66.4091 46.8828 28.5038 54.4113 28.1802 55.1534C27.9779 55.7214 28.0041 57.5373 28.3267 59.2989C28.6358 60.9871 28.5948 62.436 28.2243 62.5039C27.8538 62.5717 22.4396 58.9356 16.1838 54.4675Z" fill="#FBFEF9"/>
<path d="M137.711 33.6358C135.818 33.6515 135.516 33.2934 134.149 28.4152C133.377 25.496 132.269 20.7359 131.726 17.7747L130.73 12.3324L133.786 11.7726L136.843 11.2129L137.699 15.0265C138.08 17.1074 138.552 19.2543 138.593 19.9086C138.71 20.5489 139.47 22.9739 140.201 25.2389C141.651 29.2748 141.74 33.6425 140.397 33.6403C140 33.6302 138.81 33.6 137.711 33.6358Z" fill="#FBFEF9"/>
<path d="M115.46 36.2263C115.195 35.7001 114.064 30.8996 113.009 25.5928L111.072 15.9323L116.027 15.0249L120.901 14.1324L120.821 16.4456C120.221 30.5931 119.223 36.6044 117.517 36.9168C116.705 37.0655 115.805 36.7377 115.46 36.2263Z" fill="#FBFEF9"/>
<path d="M122.06 35.5923C121.944 34.9568 122.969 20.0746 123.312 16.3998C123.553 14.3033 124.042 13.5571 125.327 13.3217C126.915 13.031 127.229 13.466 128.483 17.7515C129.204 20.4105 130.318 25.214 130.9 28.3912L131.976 34.2688L127.062 35.1688C124.34 35.6673 122.104 35.8305 122.06 35.5923Z" fill="#FBFEF9"/>
<path d="M40.2843 35.463C41.5023 35.2857 42.7028 35.0964 43.9355 34.9164C44.4721 34.8486 45.0261 34.7929 45.5641 34.8164C45.9935 34.8292 46.4135 34.8743 46.8295 34.9811C47.0228 35.0372 47.2362 35.1202 47.4349 35.2058C48.5531 35.733 48.9412 37.0191 48.6646 37.9237C48.5644 38.2928 48.3972 38.6284 48.1573 38.9011C47.872 39.2583 47.5557 39.5297 47.1844 39.7502L46.8546 39.9479C46.8251 39.9533 46.8064 40.0177 46.8064 40.0177C46.8145 40.062 46.8467 40.0713 46.8816 40.0954L47.4936 40.2731C48.1231 40.4628 48.5932 40.8647 48.9548 41.4237C49.2277 41.8312 49.412 42.2549 49.5722 42.7136L49.8738 43.5276L50.007 43.8387C50.1159 44.017 50.2905 44.1375 50.5199 44.1412C50.5696 44.1626 50.6138 44.1545 50.6756 44.1585C50.7547 44.1745 50.7923 44.2133 50.8059 44.2871C50.8383 44.4642 50.8707 44.6412 50.8709 44.8089C50.8898 44.9122 50.8242 44.97 50.7504 44.9835C50.1683 45.1358 49.5781 45.2439 48.9796 45.14C48.475 45.0494 48.0976 44.7373 47.8516 44.3096C47.6633 43.9476 47.4871 43.5682 47.3484 43.2276C47.1816 42.8159 47.0469 42.4136 46.8854 42.0314C46.7414 41.6613 46.4754 41.3745 46.1612 41.1576C46.039 41.0732 45.902 40.9915 45.7906 40.9662C45.4483 40.8459 45.0807 40.8369 44.7414 40.8991C44.5496 40.9342 44.5134 40.9866 44.5458 41.1636L44.7539 42.2997C44.8713 42.8577 45.0116 43.4572 45.1116 44.0032L45.2799 44.5061C45.3728 44.7635 45.5474 44.8841 45.7916 44.8851C45.9243 44.8608 46.0303 44.8566 46.1484 44.835C46.2718 44.8429 46.3898 44.8213 46.5133 44.8292C46.6313 44.8076 46.6689 44.8464 46.6879 44.9497L46.696 44.994C46.788 45.6633 46.8685 45.6029 46.1991 45.6949C45.0482 45.9057 43.8772 46.0896 42.7182 46.2561C42.0489 46.3482 42.1416 46.438 42.0642 45.7659C42.0586 45.5687 42.08 45.519 42.2664 45.4544C42.4582 45.4193 42.6742 45.3492 42.878 45.2967C42.9666 45.2804 43 45.2133 42.9838 45.1248C42.9836 44.9571 42.9566 44.8095 42.9295 44.662L41.6445 38.4773C41.5877 38.1675 41.5162 37.8603 41.4595 37.5505C41.3733 37.246 41.2454 36.9644 41.0439 36.6964C40.8705 36.4994 40.649 36.3722 40.4115 36.3242L40.1176 36.3018C40.068 36.2804 40.0276 36.2267 40.0075 36.1999C39.9645 36.1316 39.9509 36.0578 39.9374 35.984C39.8591 35.5561 39.8121 35.5495 40.2843 35.463ZM43.8869 35.7335L43.6066 35.7848C43.4885 35.8064 43.4229 35.8642 43.4445 35.9823L43.4661 36.1003L44.1721 39.5394C44.1883 39.6279 44.2019 39.7017 44.2449 39.77C44.28 39.9619 44.3498 40.0101 44.5269 39.9776C44.9105 39.9074 45.2981 39.7754 45.6104 39.5657C45.8035 39.4541 45.9441 39.3064 46.0393 39.2432C46.2912 38.9531 46.4169 38.6403 46.4568 38.3585C46.5125 37.8298 46.4206 37.3282 46.2161 36.8777C45.9981 36.3533 45.5885 36.0319 45.0731 35.8823C44.6839 35.7553 44.2907 35.6901 43.8869 35.7335ZM52.6001 33.5127C52.8067 33.4748 53.0159 33.4518 53.2373 33.4112L53.9656 33.3083C54.0984 33.284 54.246 33.257 54.4257 33.2393L55.1514 33.1217C55.1809 33.1163 55.2306 33.1377 55.2749 33.1296L55.2923 33.1416C55.2977 33.1712 55.2857 33.1886 55.2857 33.1886L55.1408 33.2304L53.8759 33.401C53.6398 33.4443 53.4251 33.4378 53.2092 33.5079C52.9316 33.574 52.6928 33.6024 52.4125 33.6538C52.0906 33.728 51.7807 33.7847 51.4468 33.8764L49.9017 34.2661L49.5623 34.3282C49.5476 34.3309 49.5422 34.3014 49.5274 34.3041C49.5904 34.2316 49.6816 34.2301 49.7527 34.2018C50.6928 33.9229 51.6585 33.7003 52.6001 33.5127ZM49.9543 34.4699L50.4291 34.3982C50.7242 34.3442 51.034 34.2874 51.3466 34.2454L52.5324 34.0588C53.034 33.9669 53.5357 33.8751 54.0253 33.8007L54.9548 33.6304C54.9991 33.6223 55.0286 33.6169 55.0635 33.641C55.0957 33.6504 55.1427 33.657 55.1508 33.7013C55.1697 33.8046 55.2034 33.9052 55.2223 34.0084L55.4102 35.1177L55.5183 35.7079C55.5401 35.9937 55.528 36.0111 55.2625 36.0598L53.6367 36.3422C53.2772 36.3776 52.9231 36.4424 52.5838 36.5045L52.451 36.5289C52.4067 36.537 52.3974 36.5692 52.388 36.6014L52.3747 36.6953C52.4396 37.0494 52.4842 37.3767 52.5638 37.7281C52.6125 37.9937 52.5977 37.9964 52.8633 37.9478L54.9961 37.603C55.1731 37.5706 55.3502 37.5381 55.5327 37.5352C55.5917 37.5244 55.6413 37.5458 55.6549 37.6196L55.7519 37.983L55.7627 38.0421C55.7754 38.5277 55.9034 38.977 55.9926 39.4639C56.0387 39.8824 56.0252 39.8087 55.6711 39.8735L54.0186 40.1761C53.7235 40.2302 53.4405 40.2668 53.1454 40.3208C53.0421 40.3397 53.0354 40.3867 53.049 40.4605L53.1572 41.2183C53.1641 41.3391 53.1884 41.4719 53.21 41.5899C53.2208 41.6489 53.2371 41.7375 53.315 41.8299L53.5243 41.8069L55.6772 41.4889L56.2969 41.3754C56.4149 41.3538 56.4646 41.3752 56.4889 41.508L56.5997 42.1129C56.6444 42.4402 56.7011 42.75 56.7633 43.0894C56.7768 43.1632 56.8104 43.2638 56.8267 43.3523L56.8537 43.4998C56.8391 43.6702 56.8325 43.7172 56.6407 43.7523L56.3308 43.8091C55.7943 43.8768 55.2456 43.962 54.7145 44.0593L52.803 44.3636L51.7997 44.5473L51.4281 44.6001C51.3396 44.6163 51.302 44.5775 51.2831 44.4742L51.2479 44.2824C51.1496 43.9954 51.1131 43.7124 51.0858 43.3971C51.033 43.0255 50.9601 42.6272 50.8925 42.2583C50.8129 41.9069 50.7655 41.5648 50.7154 41.208C50.6479 40.8392 50.6126 40.4796 50.545 40.1108C50.4814 39.6802 50.3856 39.2402 50.2723 38.7883L50.2669 38.7587C50.2251 38.6139 50.1834 38.4691 50.2154 38.3107C50.222 38.2637 50.2112 38.2047 50.2004 38.1457C50.1056 37.4616 49.9934 36.7654 49.8516 36.0746C49.7706 35.632 49.7016 35.1719 49.6326 34.7118L49.6218 34.6528C49.6405 34.5884 49.6498 34.5562 49.6914 34.5333L49.9543 34.4699ZM53.4783 40.4733C53.493 40.4706 53.5253 40.48 53.5253 40.48C53.5307 40.5095 53.5012 40.5149 53.5039 40.5296L53.4569 40.523C53.4421 40.5257 53.4488 40.4787 53.4783 40.4733ZM60.2937 31.6005L60.574 31.5492C60.6183 31.5411 60.6411 31.5827 60.6465 31.6122L60.7006 31.9073C60.7964 32.3472 60.8801 32.8046 60.988 33.2271L61.0177 33.3894C61.0231 33.4189 61.0017 33.4686 60.9722 33.474L60.8394 33.4983C60.5028 33.5752 60.2077 33.6292 59.871 33.7061L59.7825 33.7223C59.7436 33.7599 59.7316 33.7774 59.7343 33.7921L59.764 33.9544C59.8099 34.2053 59.8733 34.4682 59.9193 34.719C60.0043 35.0999 60.0691 35.454 60.1689 35.8322L60.2932 36.5109L60.6008 37.8576L60.6629 38.1969C60.7359 38.5953 60.8236 38.991 60.9019 39.4189C60.9761 39.7408 61.041 40.0949 61.1299 40.4141C61.2002 40.7977 61.2798 41.1491 61.3648 41.53L61.5053 42.2973C61.508 42.312 61.4839 42.3469 61.4571 42.3671L61.339 42.3887C60.8843 42.4872 60.427 42.571 59.9602 42.6869L59.3553 42.7977C59.252 42.8166 59.2318 42.7898 59.2183 42.7161L59.1102 42.1259C58.9781 41.5706 58.866 41.0421 58.7688 40.511C58.6702 40.0563 58.5865 39.5989 58.4907 39.1589C58.3639 38.6332 58.2573 38.1342 58.1627 37.6178C58.0696 37.1926 57.9858 36.7352 57.8726 36.2833C57.7497 35.6958 57.6242 35.0935 57.5134 34.4886C57.4677 34.4055 57.4623 34.376 57.4488 34.3022C57.4259 34.2606 57.4085 34.2486 57.379 34.254C57.3494 34.2594 57.285 34.2407 57.2462 34.2783C56.9806 34.3269 56.715 34.3756 56.4669 34.4362L56.2898 34.4687C56.1128 34.5011 56.1423 34.4957 56.0776 34.3093C56.0332 34.1497 56.0061 34.0021 55.9818 33.8693L55.8914 33.4589L55.7374 32.6179C55.7293 32.5736 55.7561 32.5535 55.7977 32.5306L55.8567 32.5198C56.0659 32.4967 56.2873 32.4562 56.4469 32.4117L56.8157 32.3442C57.5535 32.2091 58.2563 32.0499 58.9913 31.9L60.2937 31.6005ZM61.055 34.1755L61.0437 33.7811C61.068 33.9139 61.1514 34.0359 61.055 34.1755ZM61.5282 34.9276L61.5188 34.9598L61.4932 34.9035L61.5282 34.9276ZM61.6481 35.3326L61.6038 35.3407C61.5891 35.3434 61.5864 35.3287 61.5837 35.3139C61.581 35.2992 61.5957 35.2965 61.6198 35.2615L61.6481 35.3326ZM61.6903 35.8129C61.9642 35.9762 61.955 36.1761 62.0492 36.3571C61.8237 36.2917 61.8274 36.0622 61.6903 35.8129ZM62.0546 36.3866C62.0708 36.4752 62.0843 36.5489 62.1435 36.7058C62.0105 36.5624 62.0708 36.4752 62.0546 36.3866ZM62.2086 37.2276C62.3227 37.2678 62.2919 37.3496 62.288 37.4114C62.2988 37.4704 62.2949 37.5321 62.2614 37.5992C62.1485 37.4826 62.1712 37.3565 62.2086 37.2276ZM62.3786 37.9895C62.5997 38.864 62.6636 39.4622 62.665 40.6362C62.6569 40.5919 62.61 40.5853 62.6073 40.5705C62.5663 40.0138 62.5374 39.4396 62.4079 38.8991C62.3298 38.6389 62.3429 38.3773 62.3786 37.9895ZM56.3415 39.2475C56.3911 39.2689 56.3992 39.3132 56.4194 39.34L56.3604 39.3508C56.3282 39.3415 56.3053 39.2999 56.2731 39.2906C56.2999 39.2704 56.3415 39.2475 56.3415 39.2475ZM62.7569 41.1378C62.8658 41.3161 62.8284 41.445 62.8407 41.5952C62.8463 41.7924 62.864 41.9722 62.8521 42.1574C62.8644 42.3076 62.9585 42.4886 62.8555 42.6752C62.6861 42.4165 62.8226 42.1628 62.7794 41.9267C62.7482 41.6732 62.764 41.4263 62.7569 41.1378ZM58.9779 42.4856L59.0583 42.4251C59.0583 42.4251 59.0932 42.4492 59.0959 42.464L58.998 42.5124C58.998 42.5124 58.9953 42.4977 58.9779 42.4856ZM60.4442 31.268C60.4791 31.2921 60.4873 31.3363 60.5047 31.3484C60.49 31.3511 60.4631 31.3713 60.4631 31.3713C60.4577 31.3418 60.4376 31.3149 60.4349 31.3002C60.4349 31.3002 60.4496 31.2975 60.4442 31.268ZM62.2911 31.86C62.4976 31.8222 62.7391 31.8084 62.9658 31.7974L65.2129 31.6604C65.3484 31.6508 65.5134 31.6359 65.6435 31.5968C65.9359 31.528 66.2204 31.5827 66.4847 31.6105C66.6874 31.6344 66.8123 31.7335 66.8447 31.9106C66.9135 32.203 66.9621 32.4685 67.0134 32.7489L67.1648 33.5751C67.0976 33.5417 67.0426 33.4908 66.9339 33.4802L67.2608 35.2655C67.2743 35.3393 67.3294 35.3902 67.3456 35.4787L67.3402 35.4492C67.3645 35.582 67.3834 35.6853 67.4077 35.8181C67.4104 35.8328 67.3863 35.8677 67.3944 35.912C67.4321 35.9509 67.4348 35.9656 67.4429 36.0099C67.467 35.975 67.4938 35.9548 67.5206 35.9346C67.5272 35.8877 67.5191 35.8434 67.5137 35.8139L67.5164 35.8287C67.6174 36.1304 67.6152 36.4511 67.6451 36.7811C67.702 37.2586 67.7617 37.7509 67.8066 38.2459C67.8606 38.541 67.837 38.9113 67.8696 39.2561L67.9582 40.3226C67.9758 40.5024 67.9667 40.7023 67.9991 40.8793C68.0519 41.2509 68.0926 41.6399 68.1427 41.9967C68.1752 42.1738 68.0854 42.2665 67.9526 42.2908C67.8346 42.3124 67.7165 42.334 67.6105 42.3382C66.9572 42.3511 66.3173 42.4378 65.6534 42.5594C64.9009 42.6972 64.1282 42.8081 63.3757 42.9459C63.1249 42.9919 62.8967 42.9117 62.686 42.8435C62.586 42.2976 62.4593 41.7718 62.3418 41.2139C62.0465 40.0175 61.8168 38.7633 61.7522 37.4942C61.7237 37.2554 61.7368 36.9938 61.7297 36.7054C61.7162 36.6316 61.7617 36.547 61.787 36.4356C61.8151 36.339 61.882 36.2047 61.9489 36.0705C61.9637 36.0678 62.0025 36.0302 62.032 36.0248C62.3633 35.9184 62.4115 35.8485 62.3467 35.4944C62.1954 34.6682 62.1004 33.8163 61.8873 32.9861C61.8765 32.9271 61.8308 32.844 61.8522 32.7943C61.8734 32.577 61.7967 32.408 61.6905 32.2445C61.6219 32.1198 61.662 32.0057 61.8069 31.9639C61.9517 31.9221 62.1288 31.8897 62.2911 31.86ZM64.1845 32.1232C63.7981 32.1787 63.5006 32.3857 63.2728 32.6409C63.0987 32.8558 62.9474 33.1123 62.8632 33.4022C62.7255 33.7324 62.6467 34.0518 62.6351 34.4046C62.5607 34.9977 62.5252 35.5532 62.5661 36.11C62.6069 36.499 62.657 36.8558 62.6682 37.2502C62.6811 37.9036 62.8054 38.5823 62.9739 39.2529C63.0791 39.6606 63.2487 40.0871 63.4638 40.4289C63.6936 40.7681 63.9892 41.0494 64.385 41.1294C65.2897 41.406 66.2404 41.0184 66.5799 40.0413C66.7497 39.5527 66.8577 39.0602 66.8692 38.5396C66.9284 37.6138 66.8695 36.7096 66.7905 35.7786C66.728 35.1038 66.6386 34.4492 66.4231 33.772C66.353 33.5561 66.295 33.3227 66.1485 33.1055C65.7075 32.3628 65.1435 31.9476 64.1845 32.1232ZM61.3292 34.0186C61.3734 34.0105 61.3761 34.0252 61.3547 34.0749L61.2583 34.2145C61.2623 34.1528 61.2837 34.1031 61.2876 34.0414C61.2876 34.0414 61.3238 33.9891 61.3292 34.0186ZM64.5837 33.8038C64.7072 33.8117 64.8294 33.8961 64.8537 34.0289C64.9291 34.2743 65.01 34.5492 65.021 34.7759C65.1014 35.7982 65.1524 36.8258 65.2208 37.8655C65.2534 38.2103 65.2445 38.5779 65.2557 38.9723C65.2734 39.1521 65.2414 39.3104 65.1155 39.4555C65.0043 39.5978 64.8071 39.6034 64.6834 39.4278C64.635 39.33 64.5637 39.1905 64.5595 39.0845C64.5107 38.6513 64.4471 38.2207 64.413 37.7847C64.3409 36.9744 64.3103 36.1413 64.265 35.3109C64.2525 34.9929 64.2373 34.6602 64.2531 34.4133L64.3331 34.0174C64.341 33.894 64.4509 33.8281 64.5837 33.8038ZM64.7006 36.0241C64.7006 36.0241 64.7033 36.0388 64.718 36.0361C64.7382 36.0629 64.7409 36.0777 64.7583 36.0897C64.7409 36.0777 64.7382 36.0629 64.7301 36.0187C64.722 35.9744 64.7072 35.9771 64.7006 36.0241ZM64.8712 36.2063L64.7933 36.1139C64.7719 36.1635 64.7773 36.193 64.7881 36.252L64.8552 36.2855C64.8847 36.2801 64.8913 36.2331 64.8712 36.2063ZM65.4826 38.0463C65.5123 38.2086 65.5743 38.3802 65.5959 38.4983C65.471 38.3992 65.471 38.3992 65.4826 38.0463ZM68.5326 29.8173C68.5769 29.8092 68.6025 29.8655 68.6052 29.8802C68.5865 29.9447 68.4352 30.2011 68.3789 30.2267C68.3641 30.2294 68.3319 30.22 68.3319 30.22C68.3573 30.1086 68.2567 30.1423 68.2043 30.1061L68.3905 29.8738C68.4414 29.8187 68.4709 29.8133 68.5326 29.8173ZM69.355 29.7277C69.3417 29.8216 69.2907 29.8767 69.2465 29.8848C69.1754 29.9131 69.1056 29.8649 69.0559 29.8435C69.0827 29.8233 69.0773 29.7938 69.0773 29.7938C69.1189 29.7709 69.1538 29.795 69.2128 29.7842C69.2571 29.7761 69.2959 29.7385 69.355 29.7277ZM68.1131 30.1076L68.2043 30.1061C68.1802 30.1411 68.1507 30.1465 68.0917 30.1573C68.1158 30.1224 68.0983 30.1103 68.1131 30.1076ZM67.7056 30.3805C67.798 30.3025 67.9161 30.2809 68.0329 30.3358C68.0678 30.3599 68.1322 30.3786 68.1912 30.3678C68.2999 30.3784 68.4354 30.3688 68.5682 30.3445L69.3824 30.2106L70.6594 30.0225L70.7479 30.0063C70.7801 30.0157 70.8325 30.0518 70.8352 30.0666L70.8905 30.2852C70.9202 30.4475 70.9231 30.63 70.9971 30.7842C71.0025 30.8137 71.0079 30.8432 70.9838 30.8781C71.0285 31.2054 71.0759 31.5475 71.1206 31.8748C71.122 31.966 71.0859 32.0184 71.0001 32.0493C70.8646 32.0589 70.7492 32.0953 70.611 32.0901C70.5225 32.1063 70.4743 32.1761 70.4878 32.2499C70.5136 32.4739 70.5367 32.6832 70.5624 32.9072C70.6179 33.2935 70.6587 33.6825 70.7289 34.0662C70.7532 34.199 70.7977 34.3586 70.8247 34.5061L70.9114 35.146C70.9424 35.2318 70.9881 35.3149 71.0043 35.4034C71.038 35.504 70.9925 35.5886 70.9912 35.6651C70.986 35.8033 71.0076 35.9213 71.0293 36.0393C71.0983 36.4994 71.1432 36.9944 71.2887 37.4558C71.3277 37.5859 71.3641 37.7012 71.4179 37.8286C71.4555 37.8675 71.4784 37.909 71.4811 37.9238C71.5416 38.0042 71.606 38.0229 71.6771 37.9946C71.7334 37.9691 71.7749 37.9462 71.8192 37.9381L72.0083 37.8882L72.058 37.9096L72.0513 37.9566C71.9508 37.9903 71.9375 38.0842 71.9188 38.1486L71.9443 38.2049L72.0181 38.1914C72.0958 38.1162 72.1548 38.1054 72.218 38.2006C72.2409 38.2421 72.3173 38.2434 72.3616 38.2353L72.7103 38.1409C72.9557 38.0655 73.229 37.7257 73.2514 37.4318C73.2591 37.1407 73.2225 36.8576 73.1658 36.5478C73.1184 36.2057 73.0683 35.8489 73.0035 35.4948L72.9954 35.4506C72.9696 35.2265 72.932 35.1877 72.7333 35.1021C72.7171 35.0135 72.7842 35.047 72.8204 34.9946C72.8578 34.8658 72.8858 34.7691 72.891 34.6309L72.6894 33.2802L72.5647 32.266L72.531 32.1655C72.4743 31.8556 72.5225 31.7858 72.1738 31.8801C72.0705 31.8991 71.9739 31.871 71.8853 31.8872C71.8477 31.8484 71.8222 31.792 71.8141 31.7478C71.775 31.6177 71.7681 31.4969 71.7264 31.3521L71.5709 30.4199C71.5318 30.2898 71.5343 30.1368 71.51 30.004C71.4992 29.945 71.5474 29.8752 71.6064 29.8644L72.2167 29.7831C72.5763 29.7478 72.9358 29.7124 73.3019 29.6301C73.5823 29.5788 73.8975 29.5516 74.1779 29.5002C74.5199 29.4528 74.8472 29.4081 75.1893 29.3607C75.5045 29.3335 75.5045 29.3335 75.5559 29.6139L75.7818 31.0974C75.7926 31.1564 75.8182 31.2128 75.8169 31.2892C75.8036 31.3832 75.6898 31.5108 75.5757 31.4707C75.4643 31.4453 75.3664 31.4937 75.2631 31.5126C75.2203 31.612 75.254 31.7126 75.2527 31.789C75.2933 32.0104 75.3486 32.229 75.3596 32.4557C75.4082 32.7213 75.4273 32.9923 75.4438 33.2485C75.46 33.337 75.4789 33.4403 75.4978 33.5436C75.5275 33.7059 75.5572 33.8682 75.5722 34.0332L75.6302 34.2666C75.6316 34.3578 75.6867 34.4087 75.727 34.4623C75.715 34.4798 75.6707 34.4879 75.6734 34.5027C75.7291 35.0567 75.7674 35.5987 75.8647 36.1298C75.9229 36.5309 75.9663 36.9347 75.9923 37.3264C76.0102 37.6739 75.9811 38.0147 75.8728 38.3395C75.7473 38.82 75.5023 39.2308 75.0975 39.5184C74.8442 39.7173 74.6123 39.8665 74.328 39.9796C74.0169 40.1128 73.7031 40.2313 73.3839 40.3202C73.2806 40.3391 73.1894 40.3406 73.1144 40.4306C73.1171 40.4453 73.0755 40.4682 73.0728 40.4534C72.6877 40.4325 72.6877 40.4325 72.3444 40.5563C72.2706 40.5698 72.1969 40.5833 72.1002 40.5553C71.9862 40.5152 71.8802 40.5193 71.7594 40.5262C71.3502 40.5401 70.9182 40.5125 70.5022 40.4057C70.062 40.3338 69.6834 40.0982 69.3731 39.8195C69.1555 39.6306 69.0237 39.4107 68.9067 39.1882C68.7521 38.9268 68.6418 38.6572 68.573 38.3648C68.4219 37.7063 68.315 37.0396 68.2726 36.3917L68.2282 36.2321C68.1567 35.9249 68.1026 35.6298 68.0808 35.3441C68.0644 35.0878 68.0238 34.8665 67.9954 34.6277C67.8873 34.0376 67.806 33.4272 67.71 32.8196C67.7073 32.8048 67.7139 32.7579 67.7058 32.7136C67.695 32.6546 67.6574 32.6157 67.5809 32.6145L67.1329 32.666C67.0926 32.6124 67.0845 32.5681 67.0764 32.5239C67.029 32.1818 66.9668 31.8425 66.9194 31.5004C66.8789 31.2791 66.8558 31.0698 66.8448 30.8431C66.8136 30.5896 66.8431 30.5842 67.094 30.5382C67.259 30.5233 67.3945 30.5137 67.5514 30.4545C67.6104 30.4437 67.6492 30.406 67.7056 30.3805ZM71.3469 30.4456L71.3992 30.4818C71.398 30.5583 71.3645 30.6254 71.378 30.6992C71.3539 30.7341 71.3419 30.7515 71.3124 30.7569C71.2976 30.7596 71.2802 30.7476 71.2748 30.7181C71.2721 30.7033 71.2398 30.694 71.217 30.6524C71.2384 30.6027 71.2423 30.541 71.2785 30.4887C71.2758 30.4739 71.3321 30.4483 71.3469 30.4456ZM71.1864 30.902C71.1864 30.902 71.2241 30.9409 71.2268 30.9556C71.2469 30.9824 71.2376 31.0146 71.1785 31.0254C71.1517 31.0456 71.1463 31.0161 71.1316 31.0188C71.106 30.9625 71.1422 30.9101 71.1864 30.902ZM72.5172 35.0044C72.528 35.0634 72.5508 35.105 72.5589 35.1492C72.5993 35.2029 72.5752 35.2378 72.5161 35.2486L72.343 35.2193C72.4208 35.144 72.4449 35.1091 72.5172 35.0044ZM71.9284 35.2037C71.9794 35.1486 71.9995 35.1754 72.0747 35.2532C71.8669 35.3675 71.8669 35.3675 71.655 35.3758C71.667 35.3583 71.6616 35.3288 71.6616 35.3288C71.7824 35.322 71.8507 35.2789 71.9284 35.2037ZM72.107 35.2625L72.1365 35.2571C72.1834 35.2638 72.1888 35.2933 72.1888 35.2933C72.1888 35.2933 72.1915 35.308 72.162 35.3134C72.162 35.3134 72.1473 35.3161 72.1446 35.3014L72.107 35.2625ZM75.727 34.4623L75.9161 34.4125C75.8854 34.4943 75.7981 34.4341 75.727 34.4623ZM68.0224 36.9407L68.0438 36.891C68.0492 36.9205 68.0815 36.9299 68.0869 36.9594C68.0869 36.9594 68.0601 36.9796 68.0453 36.9823C68.0426 36.9675 68.0278 36.9702 68.0224 36.9407ZM67.8294 37.0523L67.8549 37.1086C67.8456 37.1408 67.804 37.1637 67.7598 37.1718L67.7369 37.1302C67.7342 37.1155 67.7261 37.0712 67.7382 37.0538C67.7382 37.0538 67.765 37.0336 67.7797 37.0309L67.8294 37.0523ZM69.7863 40.8265C69.7863 40.8265 69.8212 40.8507 69.8386 40.8627C69.8091 40.8681 69.7971 40.8856 69.7823 40.8883C69.7528 40.8937 69.7501 40.8789 69.7326 40.8669C69.7567 40.832 69.7715 40.8293 69.7863 40.8265ZM69.3008 41.0069L69.5302 41.0107C69.3733 41.0699 69.3733 41.0699 69.3008 41.0069ZM69.8307 40.9861C69.8334 41.0009 69.8629 40.9955 69.8777 40.9928C69.8777 40.9928 69.8831 41.0223 69.8388 41.0304C69.8388 41.0304 69.8241 41.0331 69.8187 41.0036C69.8187 41.0036 69.816 40.9889 69.8307 40.9861ZM75.8396 39.657C75.8866 39.6637 75.9161 39.6583 75.9576 39.6354C75.904 39.6757 75.904 39.6757 75.8396 39.657ZM70.2229 41.2956L70.8224 41.1553C70.9673 41.1135 71.1256 41.1455 71.2879 41.1158L71.5965 41.1355L70.1425 41.356C70.1316 41.297 70.1934 41.301 70.2229 41.2956ZM73.6713 40.5573C73.8538 40.5544 74.0456 40.5193 74.2226 40.4869C74.397 40.4397 74.5903 40.4958 74.7673 40.4634C74.7968 40.458 74.817 40.4848 74.8344 40.4968L74.2684 40.57C74.0323 40.6132 73.8029 40.6095 73.5614 40.6232C73.4433 40.6448 73.3253 40.6664 73.2019 40.6585C73.3494 40.6315 73.5063 40.5723 73.6713 40.5573ZM72.5288 40.9801C72.5435 40.9773 72.561 40.9894 72.5959 41.0135L72.4483 41.0405L72.4429 41.011C72.4577 41.0083 72.4845 40.9882 72.5288 40.9801ZM74.8344 40.4968L75.0826 40.4361C75.0048 40.5114 74.923 40.4806 74.8344 40.4968ZM76.1665 40.3596C76.2644 40.3112 76.2993 40.3353 76.3637 40.354C76.2993 40.3353 76.2403 40.3461 76.1665 40.3596ZM75.8741 28.9456C77.0921 28.7683 78.2926 28.579 79.5253 28.399C80.0619 28.3312 80.6159 28.2755 81.154 28.299C81.5833 28.3118 82.0033 28.3569 82.4193 28.4637C82.6126 28.5198 82.826 28.6027 83.0247 28.6884C84.143 29.2155 84.531 30.5017 84.2544 31.4063C84.1542 31.7754 83.987 32.111 83.7472 32.3837C83.4618 32.7409 83.1456 33.0123 82.7742 33.2328L82.4444 33.4305C82.4149 33.4359 82.3962 33.5003 82.3962 33.5003C82.4043 33.5445 82.4365 33.5539 82.4714 33.578L83.0834 33.7557C83.7129 33.9454 84.183 34.3473 84.5446 34.9063C84.8175 35.3138 85.0018 35.7375 85.162 36.1962L85.4636 37.0102L85.5968 37.3213C85.7057 37.4996 85.8803 37.6201 86.1097 37.6238C86.1594 37.6452 86.2036 37.6371 86.2654 37.6411C86.3445 37.6571 86.3822 37.6959 86.3957 37.7697C86.4281 37.9467 86.4605 38.1238 86.4607 38.2915C86.4796 38.3948 86.414 38.4526 86.3402 38.4661C85.7581 38.6184 85.1679 38.7265 84.5694 38.6226C84.0649 38.532 83.6875 38.2199 83.4414 37.7922C83.2531 37.4302 83.0769 37.0507 82.9383 36.7101C82.7714 36.2985 82.6367 35.8961 82.4752 35.514C82.3312 35.1439 82.0652 34.8571 81.751 34.6402C81.6288 34.5558 81.4918 34.4741 81.3804 34.4488C81.0382 34.3284 80.6705 34.3195 80.3312 34.3817C80.1394 34.4168 80.1032 34.4692 80.1356 34.6462L80.3437 35.7823C80.4611 36.3403 80.6014 36.9398 80.7014 37.4858L80.8697 37.9887C80.9626 38.2461 81.1372 38.3667 81.3814 38.3677C81.5142 38.3434 81.6201 38.3392 81.7382 38.3176C81.8616 38.3255 81.9797 38.3039 82.1031 38.3118C82.2211 38.2902 82.2587 38.329 82.2777 38.4323L82.2858 38.4766C82.3778 39.1459 82.4583 39.0855 81.7889 39.1775C80.638 39.3883 79.467 39.5722 78.3081 39.7387C77.6387 39.8308 77.7314 39.9206 77.6541 39.2485C77.6484 39.0513 77.6698 39.0016 77.8562 38.937C78.0481 38.9019 78.264 38.8318 78.4678 38.7792C78.5564 38.763 78.5898 38.6959 78.5736 38.6074C78.5734 38.4397 78.5464 38.2921 78.5194 38.1446L77.2343 31.9599C77.1775 31.6501 77.1061 31.3429 77.0493 31.0331C76.9631 30.7286 76.8352 30.447 76.6337 30.179C76.4603 29.982 76.2388 29.8548 76.0013 29.8068L75.7074 29.7843C75.6578 29.7629 75.6174 29.7093 75.5973 29.6825C75.5543 29.6142 75.5408 29.5404 75.5272 29.4666C75.4489 29.0387 75.4019 29.0321 75.8741 28.9456ZM79.4767 29.2161L79.1964 29.2674C79.0783 29.289 79.0127 29.3468 79.0343 29.4649L79.0559 29.5829L79.7619 33.022C79.7782 33.1105 79.7917 33.1843 79.8347 33.2526C79.8698 33.4444 79.9396 33.4927 80.1167 33.4602C80.5003 33.39 80.8879 33.258 81.2002 33.0483C81.3933 32.9367 81.534 32.789 81.6291 32.7258C81.881 32.4357 82.0067 32.1229 82.0466 31.8411C82.1023 31.3124 82.0104 30.8108 81.8059 30.3602C81.5879 29.8359 81.1783 29.5145 80.6629 29.3648C80.2737 29.2379 79.8805 29.1726 79.4767 29.2161Z" fill="#1B2129"/>
</svg>
