<svg width="243" height="64" viewBox="0 0 243 64" fill="none" xmlns="http://www.w3.org/2000/svg">
<path d="M232.099 15.9521C237.815 24.2282 242.551 31.7214 242.551 32.6161C242.551 34.07 220.83 63.4836 219.769 63.4836C219.524 63.4836 219.279 60.464 219.279 56.8851C219.279 53.1945 219.115 49.5038 218.87 48.7209C218.462 47.267 204.989 47.1551 125.372 47.6025L32.4447 48.1617L31.9547 42.1224C31.0565 29.8201 30.8932 18.6362 31.7098 17.9652C32.853 16.9586 76.6218 15.6165 151.502 14.2745C202.212 13.3798 218.952 12.7087 219.442 11.7022C219.769 10.9193 220.095 8.23517 220.095 5.55104C220.095 2.97874 220.422 0.853801 220.83 0.853801C221.239 0.853801 226.301 7.67599 232.099 15.9521Z" fill="#FBFEF9"/>
<path d="M5.41628 17.2933C7.37608 17.7407 7.62106 18.2999 8.111 25.2339C8.35598 29.3719 8.60095 36.0823 8.60095 40.2203L8.60095 47.8254L5.33462 47.8254L2.06829 47.8254L1.90497 42.4571C1.90498 39.5493 1.82332 36.5296 1.90498 35.6349C1.90498 34.7402 1.57834 31.2732 1.25171 28.0299C0.516786 22.2142 1.25171 16.2868 2.6399 16.6223C3.04819 16.7341 4.27307 17.0696 5.41628 17.2933Z" fill="#FBFEF9"/>
<path d="M28.4438 19.0827C28.6071 19.8656 28.8521 26.6877 28.9337 34.181L29.097 47.8253L24.1159 47.8253L19.2164 47.8253L19.7063 44.6938C22.8094 25.5694 24.8508 17.6288 26.5656 17.6288C27.3822 17.6288 28.1988 18.2998 28.4438 19.0827Z" fill="#FBFEF9"/>
<path d="M21.6663 18.2999C21.6663 19.1947 17.7467 39.2138 16.6851 44.1348C16.0318 46.9307 15.3786 47.8254 13.9904 47.8254C12.2756 47.8254 12.0306 47.1544 11.5406 41.0033C11.2957 37.2007 11.0507 30.3786 11.0507 25.905L11.0507 17.6289L16.3585 17.6289C19.2982 17.6289 21.6663 17.9644 21.6663 18.2999Z" fill="#FBFEF9"/>
<path d="M83.5851 21.7126C86.1311 21.7792 88.723 21.7489 91.2665 21.6956C92.1303 21.6774 92.9696 21.6358 93.8329 21.5937C94.1928 21.5862 94.5772 21.6021 94.9147 21.6671C95.1066 21.663 95.2051 21.781 95.2091 21.973L95.1252 22.5509C94.6636 24.577 94.299 26.6491 94.0308 28.7432C93.7417 30.9817 93.646 33.2882 93.6933 35.5437C93.7074 36.2156 93.7684 36.8384 93.782 37.4863C93.787 37.7262 93.7916 37.9422 93.7501 38.2551C93.4142 38.2622 93.1028 38.2927 92.8143 38.2748C90.9647 38.2175 89.1396 38.1838 87.3115 38.006C86.0128 37.8892 84.716 37.8684 83.4198 37.8716C83.1314 37.8536 82.8914 37.8587 82.6025 37.8167C82.434 37.7962 82.36 37.7018 82.357 37.5578L82.3485 37.1499C82.3837 35.3968 82.324 33.6936 82.2888 32.014C82.1999 28.9192 82.3509 25.8193 82.671 22.764C82.6899 22.5235 82.7084 22.2591 82.7753 22.0176C82.7953 21.8252 82.9373 21.7262 83.1052 21.7226C83.2727 21.6951 83.4407 21.6916 83.5851 21.7126ZM94.222 22.9779C93.0952 23.0495 91.9205 23.1222 90.7938 23.1938C90.4578 23.2008 90.3879 23.2983 90.3724 23.7067L90.2062 29.5195C90.1938 30.0719 90.1339 30.6493 90.1215 31.2016L90.0015 31.2042C89.8414 30.4393 89.7039 29.602 89.5918 28.8362C89.2681 27.1386 88.9925 25.44 88.6928 23.742C88.6378 23.407 88.5883 23.3361 88.2288 23.3676C87.1261 23.4387 86.0233 23.5099 84.9211 23.605C84.8491 23.6065 84.8011 23.6075 84.7296 23.633C84.6107 23.6835 84.5157 23.7335 84.5432 23.901C84.5452 23.9969 84.5462 24.0449 84.5722 24.1404C85.0368 25.691 85.429 27.2191 85.8691 28.7462L87.0099 32.7792C87.2724 33.8539 87.582 34.8797 87.8921 35.9294C87.9956 36.2873 88.0446 36.3343 88.4285 36.3263L90.922 36.178C91.3529 36.1209 91.8328 36.1109 92.2882 36.0773C92.5281 36.0723 92.6696 35.9493 92.688 35.6848C92.7535 35.3714 92.8424 35.0335 92.8588 34.673C93.0671 33.1563 93.2029 31.6171 93.4591 30.0994C93.7962 27.8599 94.0614 25.6218 94.3745 23.3828C94.3715 23.2388 94.369 23.1188 94.319 23.0239C94.2705 23.0009 94.27 22.9769 94.222 22.9779ZM100.275 25.8276C100.806 25.9365 101.36 26.0449 101.916 26.2253C102.641 26.4502 103.226 26.894 103.647 27.5093C104.19 28.2181 104.496 29.0519 104.633 29.8892C104.854 31.2528 104.713 32.5281 104.548 33.8518C104.377 34.8636 103.94 35.761 103.381 36.5889C103.032 37.0763 102.558 37.3983 102.035 37.6493C101.418 37.9743 100.725 38.1329 100.005 38.148C99.4295 38.1601 98.8521 38.1002 98.2972 37.9678C97.3334 37.7959 96.4845 37.3816 95.8681 36.6024C95.7936 36.4839 95.6956 36.3899 95.5476 36.201C95.3533 37.2373 95.4444 38.1476 95.2475 39.0639C95.15 38.9939 95.1005 38.923 95.0755 38.8755L95.067 38.4676C95.2026 35.7761 95.3612 33.0362 95.8093 30.3622L95.9306 29.2795C96.0279 28.1972 96.2452 27.1124 96.631 26.0481C96.8025 26.2125 96.6161 26.4805 96.7631 26.6214C97.0955 26.4464 97.4759 26.2704 97.8093 26.1434C98.5945 25.8148 99.4324 25.7013 100.275 25.8276ZM99.4488 28.7736C99.2838 28.9211 99.1929 29.163 99.1734 29.3795C99.111 29.8369 99.0725 30.2938 99.0581 30.7502C98.9822 31.712 98.9299 32.6493 98.878 33.6106C98.8856 33.9705 98.8936 34.3545 98.9731 34.7129C98.9767 34.8808 99.0527 35.0713 99.1522 35.2372C99.3022 35.5221 99.6396 35.5871 99.8995 35.3896C100.017 35.2911 100.088 35.2176 100.11 35.1211C100.202 34.9272 100.245 34.7102 100.289 34.5172L100.481 32.2327C100.536 31.4154 100.544 30.623 100.551 29.8067C100.57 29.5903 100.517 29.3513 100.489 29.1359C100.438 29.0169 100.388 28.8979 100.338 28.803C100.067 28.4966 99.7536 28.4311 99.4488 28.7736ZM105.51 25.4538L105.841 25.2308C106.505 24.8088 107.615 25.1216 107.71 26.2239C107.744 26.6553 107.539 27.2117 106.92 27.4407C106.514 27.5452 106.081 27.5063 105.667 27.2269C105.594 27.1564 105.496 27.0625 105.398 26.9925C105.435 26.4636 105.472 25.9587 105.51 25.4538ZM105.778 27.9447C105.778 27.9447 105.803 27.9682 105.803 27.9922C105.78 28.0167 105.756 28.0412 105.732 28.0417C105.733 28.0657 105.684 28.0427 105.66 28.0192C105.659 27.9712 105.73 27.9457 105.778 27.9447ZM105.491 29.127L107.239 28.9223C107.789 28.8388 107.838 28.8858 107.849 29.3896C107.854 29.6296 107.883 29.869 107.888 30.109L107.903 30.8288L108.048 30.8498C108.049 30.8978 107.977 30.8993 107.953 30.8998L107.905 30.9008L107.917 31.5007C107.971 32.9159 108.001 34.3316 108.055 35.7707C108.058 35.9387 108.086 36.1062 108.089 36.2501C108.118 36.5136 108.242 36.679 108.484 36.794L108.557 36.8404C108.774 36.8839 108.85 37.0504 108.83 37.2668C108.836 37.5308 108.765 37.6042 108.454 37.6348L108.19 37.6403C107.423 37.6804 106.655 37.6965 105.863 37.7131L105.623 37.7181C105.215 37.7027 105.142 37.6802 105.133 37.2243C105.13 37.1043 105.176 37.0313 105.295 36.9568L105.366 36.9073C105.746 36.7313 105.812 36.4179 105.829 36.0815C105.82 35.6496 105.811 35.2416 105.778 34.8102C105.758 33.8745 105.715 32.9632 105.696 32.0274L105.672 30.8756C105.669 30.7556 105.643 30.6362 105.641 30.5402C105.61 30.2528 105.462 30.0638 105.172 29.9499L105.252 29.18C105.323 29.1545 105.419 29.1285 105.491 29.127ZM107.592 30.8594C107.518 30.7889 107.446 30.7904 107.352 30.8644C107.472 30.8859 107.52 30.8849 107.592 30.8594ZM109.681 22.7978C110.259 22.8817 110.835 22.9176 111.413 22.9775C113.265 23.1787 113.339 23.2732 115.145 23.5234C117.143 23.7936 116.671 24.1876 116.456 25.3683C116.045 27.5374 115.449 38.0402 115.215 39.4615C115.195 39.6539 115.127 39.8234 115.059 40.0169C114.994 40.3783 114.734 40.5518 114.398 40.5588L113.438 40.555C111.805 40.5172 110.171 40.4794 108.562 40.4411C108.891 35.5131 108.847 35.6821 109.079 30.7562C109.07 30.3243 109.346 29.7423 109.48 29.2594C109.505 29.2829 109.505 29.3069 109.507 29.3789L109.639 35.6895C109.652 36.3134 109.666 36.9612 109.727 37.6081C109.758 37.9195 109.953 38.0595 110.289 38.0764C110.53 38.1194 110.746 38.1148 110.986 38.1098C112.45 38.1031 112.45 38.0791 112.467 36.6144C112.463 35.2702 112.386 33.9035 112.334 32.5843C112.266 31.6255 112.429 31.3821 113.286 31.028C113.428 30.953 113.596 30.9255 113.739 30.8745C114.789 30.5884 114.84 30.7314 114.834 29.2912C114.828 29.0033 114.798 28.7398 114.768 28.4524C114.739 28.213 114.471 28.0265 114.233 28.1275C113.923 28.2301 113.662 28.3556 113.402 28.5531C113.165 28.7021 113.051 28.9685 112.839 29.189C112.768 29.2385 112.603 29.362 112.554 29.339C112.432 29.2455 112.334 29.1276 112.307 29.0081C112.074 28.1968 112.074 28.1968 111.234 28.1904L110.898 28.1975C110.682 28.202 110.514 28.1815 110.298 28.21C109.914 28.2181 109.701 28.3426 109.585 28.5611C109.666 26.663 109.721 24.7414 109.681 22.7978ZM120.754 21.9175C120.85 21.9155 120.994 21.9365 121.114 21.9339C121.739 21.9449 122.388 22.0033 123.061 22.0612C123.807 22.1175 124.575 22.1494 125.369 22.2048C125.417 22.2038 125.513 22.2018 125.634 22.2473C126.019 22.2872 126.094 22.4297 126.174 22.8121L126.189 23.5319C126.102 25.1421 126.185 26.7967 126.051 28.4079C125.991 28.9853 126.052 29.5841 126.016 30.161C125.982 32.0101 125.925 33.8357 125.867 35.6613C125.87 35.8293 125.873 35.9733 125.853 36.1177C125.812 36.4547 125.696 36.6731 125.552 36.6762C125.168 36.6602 124.851 36.4508 124.821 36.1634C124.791 35.8519 124.737 35.589 124.731 35.3011C124.798 33.9314 124.842 32.5861 124.886 31.2169L125.066 27.2283L125.188 25.0172L125.175 24.3934C125.172 24.2734 125.075 24.2034 124.931 24.2064C124.738 24.1865 124.545 24.1425 124.33 24.195C123.492 24.3086 122.628 24.2787 121.74 24.2974C121.644 24.2994 121.501 24.3504 121.429 24.3519C121.405 24.3524 121.357 24.3774 121.334 24.4019C121.335 24.4739 121.337 24.5459 121.361 24.5693C121.434 24.6158 121.483 24.6628 121.581 24.7328C122.235 25.0311 122.462 25.5545 122.356 26.2049L122.327 27.0937C122.289 27.5746 122.297 27.9825 122.307 28.4384C122.329 29.5181 122.184 30.5774 122.159 31.6822L122 34.4221C121.986 34.8785 121.924 35.3599 121.838 35.8418C121.771 36.1073 121.608 36.3508 121.347 36.4523C121.227 36.4788 121.06 36.5303 120.963 36.4843C120.837 31.6379 120.711 26.7675 120.754 21.9175ZM121 38.2599L120.97 36.7962C121.139 36.8647 121.259 36.8622 121.452 36.8822C122.389 36.9345 123.35 36.9864 124.287 37.0148C124.768 37.0527 125.273 37.0901 125.778 37.1515C125.785 37.4875 125.791 37.7514 125.75 38.0883C125.583 38.1638 125.464 38.2143 125.272 38.2184C124.577 38.233 123.832 38.2246 123.16 38.2386C122.512 38.2282 121.816 38.2428 121.192 38.2559L121 38.2599ZM133.876 22.0025C133.644 22.3914 133.41 22.6604 132.906 22.6709C131.13 22.7082 129.379 22.7929 127.628 22.8296L123.477 22.9166C123.285 22.9207 123.092 22.8767 122.876 22.8812C123.952 22.6666 125.008 22.6925 126.016 22.6714L132.159 22.5426C132.423 22.537 132.662 22.484 132.847 22.1681C133.081 21.8511 133.466 21.915 133.876 22.0025ZM128.854 26.3327L128.806 26.3337C130.304 25.6781 131.726 25.9604 133.037 26.6531C133.668 26.9519 134.064 27.5437 134.271 28.2355C134.454 28.9759 134.589 29.6932 134.509 30.439C134.49 30.6795 134.302 30.8755 134.063 30.9045C133.465 31.0131 132.912 30.9766 132.334 30.9167C131.469 30.8389 130.556 30.834 129.643 30.8051C129.332 30.8116 129.026 31.1061 129.033 31.4421C129.029 32.4263 129.121 33.3846 129.644 34.2619C130.417 35.662 132.361 35.5972 133.111 34.7413L134.003 33.7864C134.05 33.7374 134.194 33.7344 134.243 33.7813C134.316 33.8518 134.439 33.9693 134.392 34.0423C134.325 34.2837 134.211 34.5742 134.072 34.7932C133.192 36.3239 131.239 37.061 129.378 36.4759C128.895 36.318 128.433 36.0636 127.902 35.8827L127.95 35.8817L127.9 35.7868C126.746 34.5627 126.283 33.1081 126.32 31.4269C126.383 29.8652 126.736 28.3935 127.766 27.1476C128.165 26.7072 128.117 26.6842 128.426 26.5577C128.593 26.5062 128.688 26.4322 128.854 26.3327ZM130.05 27.2918C129.793 27.6333 129.56 27.9742 129.448 28.3367C129.288 28.7241 129.274 29.2045 129.186 29.5904C129.284 29.6844 129.309 29.7559 129.406 29.8019C130.06 30.0522 130.731 29.9901 131.399 29.8321C131.518 29.7816 131.683 29.6341 131.705 29.5136C131.81 28.7913 131.724 28.1209 131.399 27.5036C131.1 27.0057 130.426 26.8999 130.05 27.2918ZM137.193 23.0131C137.242 23.0361 137.219 23.0846 137.22 23.1326L137.121 25.3192C137.124 25.4391 137.127 25.5831 137.032 25.6571L137.082 23.4236C137.127 23.2786 137.124 23.1346 137.193 23.0131ZM139.389 24.7195C139.94 24.6599 140.515 24.5999 141.071 24.7562C141.312 24.8472 141.554 24.9141 141.796 25.0291L142.112 25.1905L142.373 25.065C142.493 25.0385 142.612 24.988 142.684 24.9865C143.187 24.9279 143.211 24.9514 143.22 25.3593L143.228 25.7432C143.242 26.4151 143.28 27.0864 143.414 27.7558C143.498 28.3301 143.425 28.2837 142.969 28.2932L142.777 28.2973C142.465 28.2798 142.44 28.2563 142.29 27.9474L141.935 27.0666C141.808 26.7092 141.537 26.4028 141.221 26.1934C141.025 26.0295 140.806 25.89 140.541 25.8476C140.083 25.7372 139.604 25.7952 139.128 25.9972C139.105 26.0457 139.082 26.0942 139.011 26.1437L138.776 26.3887C138.635 26.5117 138.566 26.6812 138.523 26.9221C138.481 27.1871 138.511 27.4745 138.589 27.7609C138.668 28.0953 138.842 28.3798 139.134 28.5897C139.622 28.9635 140.109 29.2894 140.689 29.4693C141.077 29.6292 141.44 29.7896 141.782 30.0705C141.88 30.1405 141.977 30.1864 142.099 30.2799C142.513 30.6073 142.905 30.9592 143.155 31.434C143.206 31.601 143.306 31.7669 143.333 31.9344C143.514 32.5307 143.575 33.1536 143.493 33.8275C143.408 34.3334 143.249 34.7688 142.946 35.2072L142.854 35.3772C142.622 35.7901 142.268 36.0856 141.889 36.3336C141.369 36.6806 141.369 36.6806 140.723 36.8142C140.174 36.9457 139.623 37.0053 139.021 36.8979C138.611 36.8345 138.153 36.724 137.788 36.4916L137.618 36.4232C137.472 36.3302 137.328 36.3092 137.162 36.4087C136.853 36.5832 136.567 36.6613 136.23 36.6203C136.11 36.6228 136.061 36.5519 136.059 36.4559L136.14 35.734L136.219 34.9642L136.4 33.28C136.397 33.1361 136.467 33.0146 136.489 32.9181C137.037 32.7625 137.401 32.947 137.532 33.4723C137.586 33.7593 137.639 33.9982 137.741 34.2601C137.896 34.761 138.167 35.1154 138.582 35.4428L138.703 35.5122C139.333 35.7871 139.959 35.846 140.577 35.569C140.957 35.393 141.143 35.077 141.279 34.7141C141.279 34.6901 141.277 34.5941 141.228 34.5471C141.227 34.5231 141.178 34.4521 141.153 34.4046C141.435 34.1347 141.381 33.8477 141.303 33.5373C141.176 33.2039 140.978 32.944 140.686 32.7581C140.345 32.5252 139.98 32.2928 139.592 32.1088C139.108 31.903 138.67 31.6241 138.209 31.3697C137.893 31.1843 137.623 30.9019 137.377 30.619C137.032 30.2181 136.759 29.7677 136.628 29.2424C136.601 29.1229 136.527 29.0044 136.476 28.8615C136.453 28.91 136.429 28.9345 136.43 28.9585C136.338 29.1764 136.27 29.3459 136.25 29.5384L135.858 31.467C135.772 31.9489 135.733 32.3818 135.719 32.8622C135.728 33.2701 135.687 33.631 135.599 33.993C135.533 34.3064 135.493 34.6433 135.451 34.9323C135.456 35.1962 135.413 35.4372 135.418 35.6771C135.399 35.8936 135.403 36.1095 135.385 36.374C135.353 36.0146 135.345 35.6306 135.339 35.3187C135.353 34.8623 135.392 34.4294 135.431 34.0205C135.492 33.4911 135.554 32.9857 135.639 32.4558L135.82 30.8196C135.904 30.2417 136.06 29.6384 136.216 29.083C136.416 28.3106 136.639 27.5137 136.79 26.6944C136.788 26.5984 136.858 26.5009 136.88 26.3805C136.877 26.2605 136.947 26.139 137.017 26.0415C137.228 25.845 137.44 25.6485 137.676 25.4276C137.84 25.2561 138.03 25.1321 138.245 25.0796C138.602 24.928 138.958 24.7765 139.389 24.7195ZM137.032 25.6571L137.017 26.0415C136.966 25.9225 136.94 25.8031 137.032 25.6571ZM141.214 33.8992L141.263 33.9462C141.215 33.9472 141.216 33.9712 141.192 33.9717L141.167 33.9482C141.191 33.9237 141.215 33.9232 141.214 33.8992ZM157.541 23.2107C157.613 23.2091 157.662 23.2321 157.758 23.2301L157.86 23.516C157.993 24.1374 158.15 24.7582 158.283 25.4036C158.311 25.595 158.363 25.786 158.295 25.9555L158.296 26.0034C158.272 26.004 158.248 26.0284 158.201 26.0534L158.199 25.9575L158.129 26.055L158.057 26.0565C158.035 26.153 158.013 26.2494 157.942 26.2989L157.966 26.2984L158.016 26.3934L157.968 26.3944L157.968 26.4184L157.944 26.3949C157.968 26.4184 157.969 26.4424 157.97 26.4904L158.04 26.4169L158.136 26.4149C158.21 26.4854 158.283 26.5318 158.379 26.5538C158.573 26.6218 158.647 26.7402 158.627 26.9087C158.802 27.2411 158.834 27.6485 158.961 27.9579C159.167 28.6258 159.181 29.2736 159.219 29.945L159.224 30.2089L159.201 30.2574L159.176 30.2099C159.125 30.043 159.074 29.9 159.046 29.7085C158.908 28.8712 158.58 28.086 158.062 27.4487C157.667 26.9048 157.107 26.5565 156.432 26.4266C156.408 26.4031 156.384 26.4036 156.312 26.4051C155.828 26.2232 155.325 26.2578 154.849 26.4838C154.73 26.5103 154.612 26.6088 154.491 26.5633L154.417 26.4689C154.417 26.4929 154.394 26.5174 154.395 26.5653C154.395 26.5893 154.396 26.6133 154.373 26.6858L154.396 26.6373C154.352 26.8063 154.186 26.9298 154.069 27.0523C153.952 27.2228 153.836 27.3932 153.695 27.5402C153.65 27.6612 153.677 27.8287 153.486 27.8807C153.459 27.7132 153.432 27.5937 153.429 27.4498C153.425 27.2338 153.396 27.0184 153.391 26.7784C153.409 26.514 153.265 26.469 153.074 26.521C152.93 26.548 152.786 26.5511 152.619 26.6026C152.046 26.7346 151.495 26.7942 150.921 26.8782C150.442 26.9363 150.418 26.9368 150.453 27.4882C150.482 27.7036 150.555 27.7501 150.747 27.7701C151.084 27.811 151.231 27.928 151.335 28.3339C151.366 28.6693 151.373 29.0052 151.428 29.3161C151.437 29.748 151.445 30.132 151.478 30.5634C151.48 30.6593 151.457 30.7078 151.362 30.7338L151.366 30.9258L151.27 30.9278L151.272 31.0238L151.224 31.0248C151.224 31.0488 151.248 31.0483 151.249 31.0723L151.272 31.0238L151.366 30.9258C151.39 30.9253 151.414 30.9248 151.462 30.9478L151.462 30.9238C151.465 31.0678 151.491 31.1872 151.518 31.3067C151.549 31.6421 151.604 31.977 151.539 32.3145L151.541 32.4345C151.568 32.5539 151.617 32.6249 151.62 32.7449C151.621 32.8169 151.55 32.8424 151.501 32.8194L151.405 32.8214L151.404 32.7494L151.308 32.7514L151.309 32.8234L151.405 32.8214L151.311 32.9194L151.314 33.0633L151.22 33.1613L151.172 33.1623C151.146 33.0669 151.097 32.9959 151.047 32.9249L150.975 32.9264C150.926 32.8794 150.902 32.8559 150.83 32.8575L150.833 33.0014L150.905 32.9999L150.975 32.9264L150.929 32.9994L150.834 33.0734L150.809 33.0019L150.737 33.0034L150.663 32.933L150.66 32.765C150.589 32.8145 150.541 32.8155 150.493 32.8405C150.469 32.817 150.42 32.77 150.371 32.723C150.323 32.7241 150.3 32.7485 150.228 32.7741C150.203 32.7026 150.154 32.6556 150.108 32.7526C150.108 32.7766 150.085 32.8251 150.086 32.8491L150.158 32.8475L150.16 32.9435L150.088 32.945L150.089 33.017C150.113 33.0165 150.137 33.016 150.137 32.992C150.161 32.9915 150.16 32.9675 150.16 32.9435L150.232 32.942C150.232 32.966 150.257 32.9895 150.257 33.0135L150.329 33.012C150.33 33.06 150.379 33.107 150.308 33.1325C150.261 33.1815 150.212 33.1345 150.163 33.1115C150.211 33.0865 150.234 33.062 150.233 33.014L150.161 33.0155L150.163 33.0875L150.091 33.089L150 33.331L149.93 33.4284L150.002 33.4269L150 33.331L150.05 33.4259L150.002 33.4509L150.003 33.4989L149.931 33.5004C149.932 33.5484 149.909 33.5729 149.909 33.5969L149.861 33.5979L149.859 33.5019L149.907 33.5009L149.906 33.4529L149.765 33.5999C149.645 33.6024 149.525 33.605 149.427 33.511L149.428 33.559L149.378 33.464L149.426 33.463L149.376 33.368L149.275 33.1061L149.321 33.0331L149.249 33.0346C149.297 33.0096 149.32 32.9851 149.368 32.9601L149.32 32.9611C149.318 32.8891 149.293 32.8417 149.268 32.7942C149.244 32.7707 149.195 32.7477 149.17 32.6762L149.171 32.7242L149.073 32.6302L149.164 32.3883C149.187 32.3638 149.234 32.3148 149.234 32.2908L149.162 32.2923L149.16 32.1963L149.232 32.1948C149.231 32.1708 149.183 32.1478 149.158 32.1243L148.984 31.8399L148.936 31.8409C148.984 31.8159 148.982 31.7439 149.006 31.7194L148.982 31.7199C148.981 31.696 148.933 31.673 148.908 31.6255L148.98 31.624L148.978 31.552C148.978 31.552 149.002 31.5515 149.001 31.5035L148.977 31.48L148.978 31.552L148.906 31.5535C148.907 31.5775 148.883 31.602 148.884 31.626C148.883 31.602 148.859 31.5785 148.81 31.5555L148.882 31.554L148.881 31.482L148.808 31.4595L148.805 31.3156L148.877 31.314C148.878 31.362 148.903 31.3855 148.904 31.4575L148.928 31.457L148.877 31.314L148.901 31.3135L148.899 31.2176L148.876 31.2421L148.922 31.1451L148.898 31.1456L148.876 31.2421L148.781 31.3161C148.66 31.2466 148.562 31.1526 148.488 31.0822L148.558 30.9847L148.486 30.9862C148.437 30.9152 148.412 30.8677 148.41 30.7717C148.373 30.1484 148.215 29.5035 148.202 28.8797C148.013 27.8754 147.967 26.8441 147.922 25.8129C147.917 25.5729 147.935 25.3085 147.953 25.044C147.951 24.9481 148.045 24.8501 148.142 24.872C148.48 24.985 148.743 24.9075 149.029 24.8294C149.436 24.7729 149.818 24.6449 150.2 24.5648C150.893 24.4303 151.586 24.2477 152.303 24.1366L152.423 24.1341C153.163 23.9266 153.93 23.8385 154.646 23.6554C155.411 23.5194 156.201 23.4308 156.967 23.2947C157.158 23.2427 157.374 23.2382 157.541 23.2107ZM154.42 26.6128L154.395 26.5653L154.491 26.5633L154.42 26.6128ZM148.905 26.9205C148.906 26.9685 148.931 26.992 148.956 27.0395C148.931 26.992 148.93 26.968 148.905 26.9205ZM155.594 27.6445C155.79 27.8324 155.937 27.9973 156.062 28.2348C156.289 28.7341 156.372 29.2845 156.456 29.8349C156.592 30.6242 156.61 31.464 156.555 32.2813C156.562 32.6172 156.545 32.9537 156.432 33.2921C156.412 33.4606 156.318 33.5826 156.104 33.6591C156.08 33.6836 156.032 33.6846 155.961 33.7101C155.96 33.6621 155.934 33.5906 155.933 33.5426L155.815 33.6171L155.913 33.7111L155.961 33.7101L155.914 33.7831C155.866 33.7841 155.865 33.7361 155.865 33.7121L155.817 33.7131L155.819 33.8091L155.915 33.8071C155.867 33.8321 155.868 33.8561 155.869 33.9041L155.821 33.9051L155.822 33.9531L155.869 33.9041L156.11 33.947C156.064 34.068 155.97 34.166 155.852 34.2405C155.828 34.241 155.804 34.2415 155.755 34.1945C155.687 34.364 155.567 34.3665 155.447 34.369C155.279 34.3725 155.11 34.3281 154.988 34.2586C154.793 34.0947 154.621 33.9302 154.521 33.7163C154.37 33.4074 154.196 33.099 154.141 32.764C153.929 31.8323 153.861 30.8975 153.865 29.9372C153.855 29.4333 153.916 28.9039 154.05 28.421C154.142 28.227 154.209 28.0096 154.325 27.8151C154.652 27.3761 155.252 27.3636 155.594 27.6445ZM150.876 30.456L150.874 30.36C150.85 30.3845 150.851 30.4325 150.852 30.4565L150.78 30.458L150.78 30.482C150.804 30.4575 150.804 30.4575 150.852 30.4565L150.876 30.456ZM151.119 30.5949L151.167 30.5939L151.165 30.4979L151.119 30.5949ZM151.215 30.5929L151.217 30.6889L151.265 30.6879L151.263 30.5919L151.215 30.5929ZM151.095 30.6194L151.025 30.6929C151.025 30.6929 151.001 30.7174 151.025 30.7169L151.025 30.6929L151.121 30.6909L151.122 30.7389L151.169 30.6899L151.121 30.6909C151.096 30.6674 151.096 30.6674 151.095 30.6194ZM151.027 30.7889L151.03 30.9328L150.934 30.9349L151.032 31.0288L151.058 31.1483L151.034 31.1488L151.035 31.1728C151.034 31.1488 151.034 31.1488 151.058 31.1483C151.057 31.0763 151.104 31.0513 151.104 31.0273L151.032 31.0288L151.03 30.9328L151.102 30.9313L151.099 30.7874L151.027 30.7889ZM151.126 30.9308L151.128 31.0268L151.176 31.0258L151.174 30.9298L151.126 30.9308ZM148.776 31.0761L148.873 31.1221L148.872 31.0741L148.776 31.0761ZM148.968 31.0721L148.969 31.1201L149.041 31.1186L149.016 31.0711L148.968 31.0721ZM159.23 31.6251C159.216 32.1055 159.227 32.6334 159.19 33.1383C159.176 33.6187 159.185 34.0746 159.219 34.554C159.273 34.8409 159.28 35.1768 159.287 35.5128C159.288 35.5607 159.241 35.6097 159.218 35.6342L159.168 35.5633L159.12 35.5643L159.122 35.6362C159.121 35.6123 159.121 35.6123 159.096 35.5648L159.048 35.5658L159.072 35.5413C158.954 35.6158 158.832 35.5463 158.736 35.5483L158.735 35.5003L158.639 35.5023L158.64 35.5503L158.568 35.5518L158.567 35.5039C158.591 35.5033 158.615 35.5028 158.638 35.4544L158.637 35.4064L158.733 35.4044C158.709 35.4049 158.685 35.3814 158.637 35.4064L158.567 35.5039L158.566 35.4559L158.47 35.4579L158.495 35.5054C158.373 35.4119 158.277 35.3899 158.133 35.4169L158.157 35.4164C158.134 35.4409 158.134 35.4649 158.135 35.5129L158.087 35.5139C157.995 35.6839 157.803 35.6879 157.66 35.7629L157.613 35.8119C157.565 35.8129 157.565 35.7889 157.564 35.7649L157.492 35.7664L157.493 35.8144L157.421 35.8159L157.42 35.7679L157.325 35.8179L157.084 35.775L157.034 35.68C157.035 35.704 156.987 35.729 156.988 35.777L156.917 35.8265L156.514 36.027L156.443 36.1005L156.442 36.0285L156.346 36.0305L156.248 35.9366L156.272 35.9361C156.246 35.8406 156.15 35.8426 156.102 35.8436L156.102 35.8676C156.08 35.9401 156.033 35.9891 155.96 35.9426L156.006 35.8696C155.982 35.8461 155.958 35.8466 155.91 35.8476L155.912 35.9436C155.888 35.9441 155.888 35.9441 155.864 35.9686L155.862 35.8486L155.526 35.8797L155.429 35.8097C155.404 35.7622 155.379 35.7387 155.357 35.8112L155.285 35.8127C155.163 35.7193 155.069 35.8172 154.95 35.8678L154.853 35.8218L154.854 35.8698L154.95 35.8678C154.951 35.9397 154.952 35.9877 154.93 36.0602L154.954 36.0597C154.906 36.0847 154.859 36.1097 154.835 36.1342L154.787 36.1352L154.789 36.2072C154.813 36.2307 154.837 36.2302 154.861 36.2297L154.863 36.3017L154.791 36.3032L154.789 36.2312L154.694 36.2332L154.695 36.3052C154.719 36.3047 154.743 36.3042 154.792 36.3272L154.791 36.3032L154.864 36.3737L154.867 36.4936C154.918 36.6366 154.871 36.6856 154.8 36.7111L154.824 36.7106L154.827 36.8786C154.829 36.9505 154.878 37.0215 154.974 37.0195C154.975 37.0435 154.951 37.068 154.953 37.14L155.026 37.1865L154.954 37.188L154.956 37.2839L155.052 37.2819L155.051 37.2339L155.026 37.1865L155.05 37.186L155.1 37.2809C155.076 37.2814 155.076 37.2814 155.052 37.3059L155.054 37.3779L155.15 37.3759L155.296 37.4689L155.297 37.5408L155.345 37.5398L155.299 37.6368C155.348 37.6598 155.421 37.7303 155.47 37.7773L155.4 37.8748L155.4 37.8508C155.282 37.9493 155.114 37.9528 154.994 37.9553C154.633 37.9149 154.389 37.7519 154.334 37.393C154.33 37.201 154.278 37.0101 154.274 36.8181C154.237 36.2188 154.177 35.6439 154.116 35.045L154.106 34.5651C154.201 34.5151 154.226 34.5626 154.275 34.5856C154.3 34.6571 154.325 34.6806 154.397 34.7031C154.694 35.105 155.154 35.2874 155.636 35.3733C155.732 35.3953 155.828 35.3932 155.878 35.4882L155.902 35.4637L155.878 35.4642C155.974 35.4622 156.021 35.4372 156.117 35.4352C157.147 35.3416 157.954 34.8686 158.463 33.9937C158.928 33.2638 159.152 32.4669 159.23 31.6251ZM149.16 32.1963L149.064 32.1983L149.158 32.1243L149.16 32.1963ZM149.064 32.1983L149.066 32.2943C149.041 32.2708 148.993 32.2718 148.921 32.2733C148.993 32.2478 149.041 32.2468 149.064 32.1983ZM149.164 32.3883L149.066 32.2943L149.162 32.2923L149.164 32.3883ZM150.416 32.6021L150.487 32.5286C150.463 32.5291 150.438 32.5056 150.438 32.5056L150.416 32.6021ZM149.172 32.7722L149.075 32.7262L149.171 32.7242L149.172 32.7722ZM151.402 32.6774L151.403 32.7254C151.427 32.7249 151.451 32.7244 151.5 32.7474L151.402 32.6774ZM149.174 32.8922L149.172 32.7962L149.244 32.7947L149.174 32.8922ZM150.663 32.933L150.665 33.0049L150.571 33.1029C150.498 33.0565 150.425 33.01 150.329 33.012L150.328 32.94L150.493 32.8405L150.663 32.933ZM149.251 33.1066L149.13 33.0851L149.249 33.0346L149.251 33.1066ZM150.737 33.0034L150.738 33.0754C150.786 33.0744 150.811 33.0979 150.835 33.0974C150.811 33.0979 150.787 33.1224 150.74 33.1714L150.739 33.0994L150.667 33.1009L150.668 33.1729C150.619 33.1259 150.595 33.1024 150.571 33.1029C150.595 33.1024 150.618 33.0779 150.666 33.0769L150.665 33.0049L150.737 33.0034ZM151.41 33.0613C151.626 33.0568 151.626 33.0568 151.631 33.2728L151.632 33.3447C151.536 33.3468 151.44 33.3248 151.32 33.3273L151.318 33.2313L151.27 33.2323C151.223 33.2813 151.223 33.3053 151.224 33.3293L151.176 33.3303L151.174 33.2343L151.222 33.2333L151.22 33.1613L151.316 33.1593L151.315 33.0873C151.338 33.0628 151.386 33.0618 151.41 33.0613ZM151.174 33.2343L151.078 33.2363L151.172 33.1623L151.174 33.2343ZM150.146 33.4479L150.264 33.3254C150.241 33.3739 150.218 33.4224 150.146 33.4479ZM149.33 33.441L149.257 33.3945L149.328 33.369L149.33 33.441ZM150.098 33.4489L150.17 33.4474C150.146 33.4479 150.123 33.4724 150.099 33.4969L150.098 33.4489ZM150.005 33.5949L150.003 33.4989L150.099 33.4969L150.005 33.5949ZM149.765 33.5999L149.861 33.5979C149.814 33.6229 149.815 33.6709 149.792 33.7194L149.765 33.5999ZM149.792 33.7194L149.77 33.8399C149.697 33.7934 149.744 33.7444 149.792 33.7194ZM155.721 33.7151L155.576 33.6701L155.456 33.6727L155.385 33.7222L155.384 33.6742L155.312 33.6757L155.313 33.7237L155.241 33.7252L155.216 33.6777C155.193 33.7022 155.145 33.7032 155.145 33.7272L155.217 33.7257L155.219 33.8217L155.123 33.8237L155.121 33.7277C155.074 33.7527 155.026 33.7537 154.978 33.7547C155.003 33.8262 155.076 33.8487 155.147 33.8232L155.22 33.8697C155.22 33.8457 155.22 33.8457 155.243 33.8212L155.315 33.8196L155.245 33.9171C155.246 33.9411 155.271 33.9886 155.32 34.0596C155.345 34.1071 155.346 34.1551 155.347 34.2031C155.37 34.1546 155.369 34.0826 155.392 34.0581C155.489 34.0801 155.585 34.0781 155.63 33.9571L155.726 33.9551L155.725 33.9071L155.629 33.9091L155.723 33.8111L155.724 33.8591C155.749 33.9066 155.749 33.9066 155.797 33.9056L155.795 33.8096L155.723 33.8111L155.721 33.7151L155.793 33.7136L155.792 33.6656L155.721 33.7151ZM150.012 33.9308L149.94 33.9323L149.941 33.9803C149.989 33.9793 149.989 33.9793 150.014 34.0268L150.012 33.9308C150.156 33.9278 150.325 33.9483 150.447 34.0657C150.4 34.0907 150.377 34.1392 150.354 34.1877C150.329 34.1642 150.281 34.1652 150.281 34.1652L150.187 34.2632L150.185 34.1673C150.186 34.1913 150.162 34.1918 150.162 34.1918C150.162 34.2157 150.186 34.2152 150.187 34.2632C150.141 34.3602 150.144 34.4802 150.169 34.5517C150.241 34.5502 150.289 34.5252 150.337 34.5242C150.407 34.4267 150.503 34.4247 150.623 34.4221C150.695 34.4206 150.694 34.3726 150.644 34.3017C150.644 34.2777 150.62 34.2782 150.619 34.2542C150.57 34.2072 150.498 34.1847 150.45 34.1857L150.448 34.0897C150.519 34.0642 150.615 34.0622 150.689 34.1567C150.81 34.1782 150.859 34.2491 150.933 34.3436L151.005 34.3421L151.006 34.3901L150.934 34.3916C150.96 34.4631 150.985 34.5106 150.986 34.5826C151.009 34.5101 151.008 34.4621 151.007 34.4141L151.101 34.3401L151.342 34.407L151.342 34.3831C151.366 34.3826 151.413 34.3576 151.437 34.3331L151.438 34.405L151.533 34.331L151.605 34.3295L151.531 34.2351C151.529 34.1631 151.552 34.1146 151.551 34.0426C151.696 34.1116 151.696 34.1116 151.677 34.328C151.702 34.3995 151.728 34.471 151.73 34.567C151.785 34.9259 151.817 35.2853 151.825 35.6452C151.826 35.7172 151.804 35.7897 151.806 35.8857L151.71 35.8877L151.711 35.9357C151.735 35.9592 151.759 35.9587 151.807 35.9577L151.809 36.0296C151.761 36.0306 151.737 36.0311 151.713 36.0556L151.715 36.1276L151.643 36.1291L151.644 36.1771L151.809 36.0536C151.884 36.1961 151.864 36.3646 151.819 36.5335L151.651 36.537L151.649 36.4411C151.601 36.4421 151.53 36.4916 151.506 36.4921C151.531 36.5156 151.603 36.5381 151.651 36.537L151.627 36.5375L151.821 36.6295C151.872 36.7485 151.899 36.8919 151.83 37.0614C151.857 37.1809 151.907 37.2998 151.91 37.4438C151.988 37.7302 151.849 37.9732 151.539 38.0757C151.325 38.1522 151.208 38.2747 151.091 38.4452L151.041 38.3502C150.92 38.3048 150.8 38.3073 150.68 38.2858L150.678 38.2138L150.582 38.2158C150.532 38.1209 150.437 38.1709 150.342 38.2209C150.127 38.2494 149.981 38.1804 149.835 38.0875C149.715 38.066 149.737 37.9695 149.783 37.8725L149.759 37.897C149.734 37.8495 149.709 37.778 149.708 37.73L149.61 37.6361L149.61 37.6601L149.511 37.4941C149.511 37.4941 149.535 37.4936 149.534 37.4696C149.51 37.4701 149.509 37.4221 149.509 37.3981L149.506 37.2542L149.6 37.1562L149.504 37.1582L149.598 37.0602C149.452 36.9912 149.378 36.8728 149.35 36.6813C149.193 36.0605 149.084 35.4626 148.974 34.7928C148.947 34.6253 148.991 34.4564 149.156 34.3329C149.18 34.3324 149.228 34.3074 149.275 34.2824L149.349 34.3768L149.347 34.2808L149.443 34.2788L149.445 34.3748L149.539 34.2768L149.443 34.2788L149.513 34.1813C149.536 34.1089 149.535 34.0609 149.534 34.0369L149.678 34.0339L149.775 34.0798L149.774 34.0318L149.678 34.0339L149.772 33.9359L149.773 33.9839C149.797 33.9833 149.821 33.9828 149.87 34.0298L149.871 34.0778L149.919 34.0768L149.918 34.0288L149.87 34.0298L149.868 33.9338L149.916 33.9328C149.916 33.9088 149.939 33.8604 149.938 33.8364L150.01 33.8349L150.012 33.9308ZM149.868 33.9338L149.772 33.9359L149.77 33.8399L149.866 33.8379L149.868 33.9338ZM155.387 33.8181L155.315 33.8196L155.313 33.7237L155.385 33.7222L155.387 33.8181ZM151.547 33.8746L151.596 33.9216C151.573 33.9461 151.55 33.9946 151.551 34.0426L151.547 33.8746ZM149.343 34.0889L149.341 33.9929C149.39 34.0399 149.414 34.0394 149.438 34.0389C149.414 34.0394 149.391 34.0639 149.343 34.0889ZM149.347 34.2808L149.299 34.2818L149.296 34.1139L149.344 34.1129L149.347 34.2808ZM151.531 34.2351C151.531 34.2591 151.532 34.2831 151.485 34.332C151.461 34.3326 151.461 34.3326 151.436 34.2851C151.46 34.2846 151.483 34.2601 151.531 34.2351ZM151.124 34.2676C151.124 34.2916 151.1 34.2921 151.101 34.3401C151.077 34.3406 151.053 34.3411 151.004 34.2941C151.052 34.2931 151.1 34.2921 151.124 34.2676ZM149.785 34.5357L149.784 34.5117L149.686 34.4178L149.785 34.5357ZM154.781 35.8233L154.829 35.8223C154.828 35.7743 154.804 35.7748 154.781 35.8233L154.661 35.8498C154.71 35.8728 154.734 35.8723 154.782 35.8953L154.781 35.8233ZM151.399 35.9662L151.326 35.8957C151.327 35.9437 151.375 35.9667 151.399 35.9662ZM155.43 35.8817L155.357 35.8112L155.429 35.8097L155.43 35.8817ZM156.99 35.849L156.988 35.777L157.084 35.775L156.99 35.849ZM151.087 35.9487L151.086 35.9248C151.014 35.9263 150.991 35.9508 150.919 35.9523L150.871 35.9533C150.847 35.9778 150.848 36.0258 150.848 36.0258L150.896 36.0248C150.92 36.0243 150.919 35.9763 150.919 35.9523L151.087 35.9487ZM155.432 35.9777L155.43 35.8817L155.502 35.8802L155.432 35.9777ZM157.422 35.8399L157.376 35.9609C157.375 35.9129 157.327 35.8899 157.326 35.8419L157.422 35.8399ZM156.347 36.1025L156.275 36.104L156.274 36.032L156.346 36.0305L156.347 36.1025ZM151.572 36.2026L151.648 36.3931C151.623 36.3216 151.622 36.2736 151.62 36.2016L151.572 36.2026ZM154.859 36.1337L154.955 36.1317C154.908 36.1807 154.861 36.2057 154.861 36.2297L154.859 36.1337ZM158.465 36.3462C158.49 36.3937 158.538 36.4167 158.588 36.4876C158.636 36.5106 158.709 36.5571 158.757 36.5561L158.663 36.6301L158.759 36.6281L158.761 36.7241L158.857 36.722L158.855 36.6261L158.951 36.6241C158.996 36.4791 159.188 36.4751 159.332 36.472C159.356 36.4715 159.38 36.495 159.429 36.542C159.479 36.613 159.553 36.7315 159.484 36.8529L159.508 36.8524L159.51 36.9484L159.486 36.9489C159.584 37.0669 159.562 37.1634 159.517 37.2843C159.59 37.3308 159.615 37.4023 159.665 37.4973C159.051 37.9902 158.534 38.5052 157.968 38.9972L157.824 39.0002C157.705 39.0267 157.585 39.0292 157.486 38.8873L157.486 38.9113C157.44 39.0082 157.344 39.0103 157.248 38.9883L157.246 38.9163C157.246 38.8923 157.244 38.8203 157.268 38.7958L157.244 38.7963L157.246 38.9163C157.223 38.9648 157.176 38.9898 157.152 38.9903L156.91 38.9233C156.817 39.0453 156.698 39.1198 156.531 39.1473L156.171 39.1549L156.172 39.1789L156.076 39.1809C155.932 39.1839 155.813 39.2344 155.693 39.2369C155.5 39.193 155.333 39.2445 155.141 39.2725C154.686 39.33 154.209 39.4361 153.73 39.5181C153.491 39.5471 153.25 39.5282 153.056 39.4122L152.864 39.4163C152.838 39.3208 152.74 39.2508 152.62 39.2533L152.622 39.3493L152.526 39.3513L152.528 39.4233L152.478 39.3523C152.478 39.3283 152.502 39.3278 152.526 39.3273L152.524 39.2553C152.5 39.2558 152.476 39.2563 152.428 39.2334L152.43 39.3293L152.382 39.3303L152.38 39.2344C152.308 39.2599 152.285 39.3084 152.262 39.3329C152.166 39.3349 152.046 39.3374 151.949 39.2674L152.043 39.1934L152.019 39.1939C152.137 39.0954 152.255 39.0209 152.399 39.0179C152.616 39.0614 152.854 38.9604 153.073 39.0758C153.166 38.9538 153.286 38.9513 153.406 38.9488C153.669 38.8953 153.909 38.8902 154.173 38.8847L155.371 38.7876C155.539 38.784 155.586 38.7111 155.583 38.5671C155.579 38.3751 155.599 38.2067 155.571 38.0152C155.57 37.9672 155.521 37.8962 155.472 37.8493L155.47 37.7773C155.542 37.7518 155.638 37.7498 155.687 37.8207L155.881 37.9367L155.905 37.9362C155.906 37.9602 155.93 37.9837 155.955 38.0072L155.883 38.0087C155.908 38.0562 155.908 38.0801 155.909 38.1041L155.957 38.1031L156.055 38.1971L156.054 38.1731C156.081 38.2926 156.153 38.2911 156.2 38.2421L156.199 38.1941C156.151 38.1951 156.127 38.1956 156.054 38.1731L156.053 38.1011L156.147 38.0031L156.293 38.0961C156.293 38.1201 156.293 38.1201 156.27 38.1686L156.294 38.1681L156.293 38.0961L156.389 38.0941L156.39 38.1661L156.486 38.1641L156.485 38.0921L156.533 38.0911L156.556 38.0666L156.557 38.0906C156.533 38.1151 156.534 38.163 156.535 38.187L156.487 38.188L156.488 38.236L156.535 38.187C156.631 38.209 156.727 38.207 156.776 38.23C156.846 38.1565 156.869 38.084 156.891 37.9875L156.867 37.988C156.89 37.9635 156.914 37.939 156.962 37.938C156.985 37.9135 157.009 37.913 157.033 37.9125L157.032 37.8405C157.008 37.8411 156.984 37.8416 156.959 37.8181C156.983 37.8176 157.007 37.7931 157.03 37.7446L157.031 37.8166L157.103 37.815L157.03 37.7446C156.906 37.5551 156.906 37.5551 157.119 37.4306L157.117 37.3346C157.141 37.3101 157.14 37.2622 157.115 37.2387L157.256 37.0917C157.255 37.0197 157.254 36.9717 157.3 36.8987C157.3 36.8747 157.323 36.8502 157.347 36.8257L157.347 36.8497L157.395 36.8247C157.393 36.7767 157.345 36.7537 157.345 36.7537L157.582 36.6047C157.629 36.5797 157.653 36.5792 157.677 36.5787L157.676 36.5068C157.652 36.5073 157.628 36.5078 157.579 36.4848C157.627 36.4838 157.65 36.4353 157.674 36.4108L157.675 36.4828L157.771 36.4807L157.77 36.4088L157.818 36.4078L157.82 36.5037L157.772 36.5047L157.773 36.5767L157.867 36.4787C157.891 36.4782 157.914 36.4297 157.938 36.4052L158.106 36.4017L158.252 36.4947L158.348 36.4927L158.349 36.5647L158.253 36.5667L158.304 36.7096C158.303 36.6376 158.35 36.6126 158.349 36.5647C158.372 36.5162 158.396 36.4917 158.42 36.4912L158.516 36.4891C158.49 36.4177 158.466 36.3942 158.465 36.3462ZM158.855 36.6261L158.759 36.6281L158.757 36.5561L158.855 36.6261ZM157.678 36.6027L157.681 36.7467C157.633 36.7717 157.537 36.7737 157.589 36.9407L157.662 37.0111L157.685 36.9387L157.589 36.9407C157.635 36.8677 157.659 36.8432 157.682 36.8187L157.681 36.7467L157.777 36.7447L157.778 36.8167L157.826 36.8157L157.777 36.7447L157.774 36.6007L157.678 36.6027ZM157.347 36.8257L157.251 36.8277C157.299 36.8267 157.322 36.7782 157.345 36.7537L157.347 36.8257ZM157.204 36.9007L157.203 36.8287C157.227 36.8522 157.227 36.8522 157.251 36.8517L157.252 36.8997L157.204 36.9007ZM157.683 36.8427L157.684 36.8907L157.78 36.8887L157.779 36.8407L157.683 36.8427ZM158.169 37.1206L158.165 36.9286C158.142 37.0011 158.144 37.0731 158.169 37.1206C158.169 37.1206 158.193 37.1201 158.194 37.168C158.241 37.119 158.289 37.118 158.313 37.1175L158.312 37.0935C158.265 37.1185 158.193 37.1201 158.169 37.1206ZM155.393 37.5148L155.392 37.4668C155.416 37.4663 155.44 37.4898 155.464 37.4893L155.345 37.5398L155.393 37.5148ZM156.548 37.6826L156.503 37.8276C156.501 37.7316 156.477 37.7082 156.405 37.7337C156.429 37.7092 156.501 37.7076 156.548 37.6826ZM156.961 37.914L156.865 37.9161C156.889 37.9156 156.912 37.8671 156.96 37.8421L156.961 37.914ZM151.06 38.0858L151.13 37.9883C151.083 38.0373 151.059 38.0618 151.06 38.0858ZM156.147 38.0031L156.051 38.0051C156.075 38.0046 156.122 37.9796 156.146 37.9551L156.147 38.0031ZM156.053 38.1011L156.005 38.1021L156.003 38.0061L156.051 38.0051L156.053 38.1011ZM156.485 38.0921L156.389 38.0941L156.483 37.9961L156.485 38.0921ZM150.606 38.2153L150.608 38.2873C150.656 38.3103 150.68 38.3098 150.704 38.3093C150.656 38.3103 150.657 38.3343 150.609 38.3593L150.608 38.3113L150.536 38.3128L150.606 38.2153ZM150.537 38.3608L150.441 38.3628L150.44 38.3148C150.464 38.3143 150.488 38.3138 150.536 38.2888L150.537 38.3608ZM150.368 38.3163L150.442 38.4108C150.349 38.5328 150.349 38.5328 150.225 38.3673L150.201 38.3678C150.249 38.3668 150.321 38.3413 150.368 38.3163ZM150.61 38.4073L150.565 38.5283C150.563 38.4563 150.563 38.4323 150.538 38.4088L150.61 38.4073ZM156.393 38.286L156.394 38.334L156.322 38.3355L156.326 38.5275L156.398 38.526L156.399 38.574L156.303 38.576L156.302 38.552L156.279 38.5765L156.303 38.6L156.303 38.576L156.401 38.67L156.403 38.7659L156.547 38.7629L156.644 38.8089L156.643 38.7609L156.547 38.7629L156.641 38.6649C156.641 38.6889 156.666 38.7124 156.667 38.7604L156.739 38.7589L156.74 38.8069C156.764 38.8304 156.788 38.8299 156.812 38.8054L156.811 38.7574L156.739 38.7589L156.737 38.6629L156.641 38.6649L156.638 38.521L156.565 38.4745L156.49 38.332L156.489 38.284L156.393 38.286ZM156.897 38.2995L156.898 38.3235C156.899 38.3954 156.924 38.4189 156.924 38.4429L156.9 38.4434L156.925 38.4669L156.924 38.4429C156.923 38.3949 156.922 38.323 156.897 38.2995C156.969 38.298 156.994 38.3214 157.018 38.3209L157.018 38.3449L157.258 38.3399C157.26 38.4119 157.236 38.4364 157.238 38.5084C157.261 38.4599 157.285 38.4594 157.333 38.4584C157.284 38.4354 157.283 38.3874 157.258 38.3399C157.21 38.3409 157.114 38.3429 157.042 38.3204L157.018 38.3209C157.042 38.3204 157.041 38.2964 157.089 38.2954L156.897 38.2995ZM150.949 38.5442L150.853 38.5462L150.947 38.4482L150.949 38.5442ZM151.093 38.5412L151.045 38.5422L151.043 38.4462L151.091 38.4452L151.093 38.5412ZM156.493 38.476L156.397 38.478L156.394 38.334L156.49 38.332L156.493 38.476ZM156.495 38.572L156.494 38.524C156.518 38.5235 156.542 38.523 156.565 38.4745L156.495 38.572ZM156.161 38.675L156.207 38.602C156.207 38.578 156.183 38.5785 156.159 38.579L156.161 38.675ZM156.399 38.598L156.495 38.596C156.447 38.597 156.424 38.6455 156.401 38.67L156.399 38.598ZM156.261 38.8409L156.312 39.0079L156.309 38.8399L156.261 38.8409ZM156.668 38.8324L156.67 38.9284L156.74 38.8309L156.668 38.8324ZM159.646 38.866C159.599 38.915 159.551 38.916 159.527 38.9405L159.503 38.917C159.551 38.916 159.599 38.915 159.646 38.866ZM151.781 39.2709L151.78 39.2469C151.708 39.2485 151.636 39.25 151.564 39.2275C151.681 39.105 151.705 39.1045 151.875 39.1969L151.781 39.2709ZM151.875 39.1969L151.923 39.1959C151.948 39.2194 151.948 39.2434 151.948 39.2434L151.876 39.2449L151.875 39.1969ZM152.768 39.4183L152.624 39.4213L152.622 39.3493L152.768 39.4183ZM150.8 39.4595L150.802 39.5315C150.753 39.5085 150.729 39.509 150.681 39.51C150.729 39.485 150.753 39.4845 150.8 39.4595ZM160.482 21.7327C161.06 21.8166 161.637 21.8525 162.214 21.9124C164.067 22.1136 164.141 22.2081 165.946 22.4583C167.944 22.7285 167.473 23.1225 167.257 24.3032C166.847 26.4723 166.251 36.9751 166.016 38.3963C165.996 38.5888 165.928 38.7583 165.86 38.9517C165.796 39.3132 165.535 39.4867 165.199 39.4937L164.239 39.4898C162.606 39.4521 160.973 39.4143 159.364 39.376C159.692 34.448 159.648 34.617 159.881 29.691C159.872 29.2591 160.147 28.6772 160.281 28.1943C160.306 28.2178 160.306 28.2418 160.308 28.3138L160.44 34.6244C160.453 35.2483 160.467 35.8961 160.528 36.543C160.559 36.8544 160.754 36.9943 161.09 37.0113C161.331 37.0542 161.547 37.0497 161.787 37.0447C163.251 37.038 163.251 37.014 163.268 35.5493C163.264 34.2051 163.187 32.8384 163.136 31.5192C163.068 30.5604 163.23 30.317 164.087 29.9629C164.23 29.8879 164.397 29.8604 164.54 29.8094C165.59 29.5233 165.641 29.6663 165.635 28.2261C165.629 27.9382 165.6 27.6747 165.57 27.3873C165.541 27.1478 165.273 26.9614 165.035 27.0624C164.725 27.1649 164.463 27.2905 164.203 27.4879C163.966 27.6369 163.852 27.9034 163.641 28.1239C163.57 28.1734 163.404 28.2969 163.356 28.2739C163.234 28.1804 163.135 28.0625 163.109 27.943C162.876 27.1317 162.876 27.1317 162.035 27.1253L161.699 27.1324C161.483 27.1369 161.315 27.1164 161.1 27.1449C160.716 27.153 160.502 27.2775 160.387 27.4959C160.467 25.5978 160.523 23.6763 160.482 21.7327ZM171.767 24.3287C172.298 24.4376 172.852 24.546 173.408 24.7264C174.133 24.9512 174.718 25.3951 175.139 26.0104C175.682 26.7192 175.988 27.5529 176.125 28.3902C176.346 29.7539 176.205 31.0292 176.04 32.3529C175.87 33.3647 175.432 34.2621 174.874 35.0899C174.524 35.5774 174.05 35.8994 173.527 36.1504C172.91 36.4754 172.217 36.634 171.497 36.6491C170.922 36.6611 170.344 36.6012 169.789 36.4688C168.826 36.297 167.977 35.8827 167.36 35.1034C167.286 34.985 167.188 34.891 167.04 34.7021C166.845 35.7384 166.936 36.6487 166.74 37.565C166.642 37.495 166.593 37.424 166.568 37.3766L166.559 36.9686C166.695 34.2772 166.853 31.5373 167.301 28.8633L167.423 27.7805C167.52 26.6982 167.737 25.6135 168.123 24.5491C168.295 24.7136 168.108 24.9815 168.255 25.1225C168.588 24.9475 168.968 24.7715 169.301 24.6445C170.087 24.3159 170.924 24.2023 171.767 24.3287ZM170.941 27.2747C170.776 27.4222 170.685 27.6641 170.665 27.8806C170.603 28.338 170.565 28.7949 170.55 29.2513C170.474 30.2131 170.422 31.1504 170.37 32.1117C170.378 32.4716 170.386 32.8555 170.465 33.2139C170.469 33.3819 170.545 33.5724 170.644 33.7383C170.794 34.0232 171.132 34.0882 171.392 33.8907C171.51 33.7922 171.58 33.7187 171.602 33.6222C171.694 33.4282 171.737 33.2113 171.781 33.0183L171.974 30.7338C172.028 29.9164 172.036 29.1241 172.043 28.3078C172.062 28.0913 172.009 27.8524 171.981 27.637C171.93 27.518 171.88 27.399 171.83 27.304C171.559 26.9976 171.246 26.9322 170.941 27.2747ZM182.209 22.7175C182.431 23.0009 182.724 23.2348 182.851 23.5682C183.128 24.1625 182.976 24.9579 182.361 25.3789C181.437 25.9504 180.423 25.6836 179.996 24.8043C179.945 24.6373 179.916 24.4219 179.864 24.2309C179.854 23.7511 179.926 23.7255 180.353 23.5005C180.4 23.4275 180.519 23.401 180.639 23.3985C180.759 23.372 180.927 23.3685 181.071 23.3655C181.165 23.2915 181.185 23.123 181.378 23.143C181.687 23.0165 181.948 22.843 182.209 22.7175ZM182.37 26.963L182.61 26.934C182.754 26.955 182.924 27.0474 182.927 27.1914C182.929 27.2634 182.954 27.3349 182.957 27.4548C182.964 27.7908 182.947 28.1272 182.954 28.4631C182.973 29.3749 182.897 30.3127 182.964 31.2475C183.017 31.4625 182.949 31.6799 182.954 31.8959C182.935 32.1603 182.917 32.4248 182.923 32.7127C182.992 33.7195 182.966 34.7523 182.819 35.7875C182.761 36.4609 182.439 37.1158 182.068 37.7237C181.721 38.3551 181.153 38.7511 180.56 39.0996C180.275 39.2496 180.013 39.3272 179.7 39.3097C178.764 39.2813 177.779 39.254 176.795 39.2506L176.265 39.1657C176.217 39.1667 176.215 39.0947 176.215 39.0707L176.262 39.0457L176.526 39.0402C176.67 39.0372 176.887 39.0566 177.174 39.0506C177.05 38.8372 176.951 38.7192 176.901 38.6002C176.651 38.1254 176.592 37.6225 176.798 37.1381C176.958 36.7266 177.265 36.4801 177.645 36.3041C177.716 36.2546 177.74 36.2541 177.812 36.2526C178.41 36.168 179.091 36.5619 179.222 37.1112C179.299 37.3497 179.304 37.5896 179.261 37.8066C179.242 38.071 179.222 38.2635 179.154 38.457C179.135 38.6734 179.137 38.7934 179.257 38.7909C179.377 38.7884 179.497 38.7618 179.591 38.6639C179.78 38.5399 179.872 38.3219 179.988 38.1274C180.191 37.499 180.225 36.8502 180.235 36.2018C180.281 34.9526 180.28 33.7283 180.277 32.4801C180.302 31.3513 180.278 30.2236 180.278 29.0953C180.272 28.8074 180.122 28.5225 179.901 28.2631C179.802 28.1451 179.657 28.0761 179.488 28.0317L178.572 27.8348C178.427 27.8139 178.401 27.7184 178.398 27.5504C178.394 27.3825 178.417 27.31 178.584 27.2825C178.894 27.2039 179.23 27.1729 179.541 27.1424C180.476 27.0508 181.435 27.0066 182.37 26.963ZM183.202 39.1643C183.205 39.2842 183.085 39.2868 183.061 39.2873C182.821 39.2923 182.556 39.2738 182.316 39.2789C182.292 39.2794 182.267 39.2079 182.195 39.2094C182.553 39.1299 182.864 39.0753 183.202 39.1643ZM182.195 39.2094C182.076 39.2839 181.932 39.2869 181.692 39.2679C181.881 39.1439 182.072 39.0919 182.195 39.2094ZM191.121 20.8022C190.889 21.1912 190.655 21.4602 190.151 21.4707C188.375 21.5079 186.625 21.5927 184.873 21.6294L180.722 21.7164C180.53 21.7204 180.337 21.6765 180.121 21.681C181.197 21.4664 182.254 21.4923 183.261 21.4711L189.404 21.3423C189.668 21.3368 189.907 21.2838 190.092 20.9678C190.326 20.6509 190.711 20.7148 191.121 20.8022ZM186.099 25.1325L186.051 25.1335C187.549 24.4779 188.972 24.7602 190.282 25.4528C190.913 25.7517 191.309 26.3435 191.516 27.0353C191.699 27.7756 191.834 28.493 191.754 29.2388C191.735 29.4793 191.547 29.6752 191.308 29.7043C190.71 29.8128 190.157 29.7764 189.58 29.7165C188.714 29.6386 187.802 29.6338 186.889 29.6049C186.577 29.6114 186.271 29.9059 186.278 30.2418C186.275 31.2261 186.367 32.1844 186.889 33.0616C187.663 34.4617 189.606 34.397 190.356 33.5411L191.248 32.5862C191.295 32.5372 191.439 32.5341 191.488 32.5811C191.562 32.6516 191.684 32.7691 191.638 32.8421C191.571 33.0835 191.457 33.374 191.317 33.5929C190.437 35.1237 188.484 35.8608 186.624 35.2757C186.14 35.1178 185.679 34.8634 185.147 34.6825L185.195 34.6815L185.145 34.5865C183.991 33.3625 183.528 31.9078 183.565 30.2267C183.628 28.665 183.982 27.1933 185.012 25.9474C185.41 25.507 185.362 25.484 185.671 25.3575C185.838 25.306 185.933 25.232 186.099 25.1325ZM187.295 26.0916C187.038 26.4331 186.805 26.774 186.693 27.1364C186.533 27.5239 186.519 28.0043 186.431 28.3902C186.529 28.4842 186.555 28.5557 186.652 28.6016C187.305 28.852 187.976 28.7899 188.645 28.6319C188.764 28.5814 188.929 28.4339 188.95 28.3134C189.055 27.591 188.969 26.9207 188.644 26.3034C188.345 25.8055 187.671 25.6996 187.295 26.0916ZM194.215 21.4575L196.499 21.6497C196.574 21.7921 196.601 21.9356 196.605 22.1036L196.435 24.3156C196.462 24.4351 196.416 24.5561 196.418 24.628C196.518 24.842 196.662 24.839 196.806 24.8359L198.296 24.9247C198.465 24.9452 198.608 24.9182 198.754 25.0112L198.788 25.4665C198.743 25.6115 198.745 25.7315 198.724 25.852C198.655 26.0214 198.538 26.1199 198.37 26.1235L197.287 26.0261C196.974 25.9847 196.686 25.9907 196.327 26.0223C196.33 26.1422 196.308 26.2387 196.31 26.3347L195.859 32.3215C195.819 32.7304 195.828 33.1383 196.028 33.4942C196.202 33.8026 196.445 33.9415 196.781 33.9345C197.07 33.9764 197.307 33.8274 197.422 33.609C197.538 33.3905 197.581 33.1495 197.624 32.9326C197.67 32.8356 197.668 32.7156 197.689 32.5712C197.73 32.2582 197.896 32.1587 198.233 32.1997C198.377 32.2206 198.499 32.3141 198.502 32.4581C198.505 32.602 198.508 32.722 198.486 32.8425C198.284 33.4949 198.106 34.1468 197.613 34.6852C196.981 35.4426 196.122 35.7247 195.207 35.5518C193.954 35.362 193.22 34.6813 192.976 33.3421C192.917 32.8152 192.906 32.3113 192.967 31.8059L193.249 28.0792L193.3 27.0699C193.364 26.6845 193.404 26.2756 193.397 25.9637C193.249 25.7507 193.129 25.7532 192.96 25.7328L192.142 25.6299C191.95 25.6339 191.851 25.492 191.823 25.3245L191.822 25.2525C191.808 24.6047 191.879 24.5312 192.527 24.5416L193.2 24.5995C193.392 24.5715 193.486 24.4975 193.483 24.3295L193.672 23.0293L193.808 21.5381C193.976 21.5105 194.071 21.4605 194.215 21.4575ZM197.602 27.3158C197.443 28.8795 197.225 29.9163 196.522 31.8755C196.52 31.8035 196.495 31.756 196.495 31.732C196.763 30.7662 197.007 29.8248 197.13 28.814C197.168 28.3571 197.375 27.8967 197.602 27.3158ZM201.281 21.6695C201.329 21.6924 201.306 21.7409 201.307 21.7889L201.209 23.9755C201.211 24.0954 201.214 24.2394 201.12 24.3134L201.169 22.0799C201.214 21.9349 201.211 21.7909 201.281 21.6695ZM203.477 23.3758C204.028 23.3162 204.603 23.2562 205.158 23.4126C205.4 23.5035 205.641 23.5705 205.884 23.6854L206.199 23.8468L206.461 23.7213C206.58 23.6948 206.699 23.6443 206.771 23.6428C207.274 23.5843 207.299 23.6077 207.307 24.0157L207.315 24.3996C207.329 25.0714 207.367 25.7428 207.501 26.4121C207.585 26.9865 207.512 26.94 207.057 26.9495L206.865 26.9536C206.552 26.9361 206.528 26.9126 206.377 26.6037L206.023 25.723C205.895 25.3655 205.625 25.0591 205.308 24.8497C205.113 24.6858 204.894 24.5464 204.629 24.5039C204.17 24.3935 203.691 24.4515 203.216 24.6536C203.193 24.702 203.17 24.7505 203.099 24.8L202.864 25.045C202.722 25.168 202.654 25.3375 202.611 25.5784C202.568 25.8434 202.598 26.1308 202.676 26.4172C202.755 26.7517 202.929 27.0361 203.222 27.246C203.71 27.6198 204.197 27.9457 204.777 28.1256C205.164 28.2855 205.528 28.4459 205.87 28.7268C205.967 28.7968 206.064 28.8428 206.186 28.9362C206.601 29.2636 206.992 29.6155 207.242 30.0903C207.294 30.2573 207.393 30.4232 207.421 30.5907C207.601 31.1871 207.663 31.8099 207.581 32.4838C207.495 32.9897 207.336 33.4251 207.033 33.8636L206.941 34.0335C206.71 34.4465 206.356 34.742 205.977 34.9899C205.456 35.3369 205.456 35.3369 204.811 35.4705C204.261 35.602 203.71 35.6616 203.108 35.5542C202.699 35.4908 202.24 35.3804 201.875 35.148L201.706 35.0795C201.56 34.9865 201.415 34.9656 201.249 35.0651C200.941 35.2396 200.655 35.3176 200.318 35.2766C200.198 35.2792 200.148 35.2082 200.146 35.1122L200.227 34.3903L200.307 33.6205L200.488 31.9363C200.485 31.7924 200.554 31.6709 200.576 31.5744C201.125 31.4189 201.489 31.6033 201.62 32.1286C201.674 32.4156 201.727 32.6545 201.828 32.9164C201.983 33.4173 202.254 33.7717 202.669 34.0991L202.791 34.1685C203.421 34.4434 204.046 34.5023 204.665 34.2253C205.045 34.0493 205.23 33.7333 205.367 33.3704C205.366 33.3464 205.364 33.2504 205.315 33.2034C205.315 33.1794 205.265 33.1085 205.24 33.061C205.523 32.791 205.469 32.5041 205.39 32.1936C205.263 31.8602 205.066 31.6003 204.774 31.4144C204.433 31.1815 204.068 30.9491 203.68 30.7652C203.195 30.5593 202.757 30.2804 202.296 30.026C201.98 29.8406 201.71 29.5582 201.464 29.2753C201.12 28.8744 200.846 28.4241 200.715 27.8987C200.689 27.7792 200.614 27.6608 200.563 27.5178C200.54 27.5663 200.517 27.5908 200.517 27.6148C200.426 27.8327 200.357 28.0022 200.337 28.1947L199.946 30.1233C199.86 30.6052 199.821 31.0381 199.807 31.5185C199.815 31.9264 199.775 32.2874 199.686 32.6493C199.621 32.9627 199.58 33.2997 199.538 33.5886C199.544 33.8525 199.501 34.0935 199.506 34.3335C199.486 34.5499 199.491 34.7659 199.472 35.0303C199.441 34.6709 199.433 34.287 199.426 33.975C199.441 33.5186 199.48 33.0857 199.519 32.6768C199.58 32.1474 199.641 31.642 199.726 31.1121L199.908 29.476C199.992 28.8981 200.147 28.2947 200.304 27.7393C200.503 26.9669 200.727 26.1701 200.878 25.3507C200.876 25.2547 200.946 25.1572 200.967 25.0368C200.965 24.9168 201.034 24.7953 201.104 24.6978C201.316 24.5013 201.528 24.3049 201.763 24.0839C201.928 23.9124 202.117 23.7884 202.332 23.7359C202.689 23.5844 203.046 23.4328 203.477 23.3758ZM201.12 24.3134L201.104 24.6978C201.054 24.5789 201.027 24.4594 201.12 24.3134ZM205.302 32.5556L205.351 32.6025C205.303 32.6036 205.303 32.6275 205.279 32.6281L205.255 32.6046C205.278 32.5801 205.302 32.5796 205.302 32.5556Z" fill="#242F40"/>
</svg>
