<svg width="146" height="71" viewBox="0 0 146 71" fill="none" xmlns="http://www.w3.org/2000/svg">
<path d="M132.623 33.4266C136.594 26.9049 139.793 21.0868 139.666 20.5036C139.458 19.556 115.687 4.6688 114.731 4.87819C114.51 4.92651 114.72 6.94299 115.23 9.27564C115.757 11.6812 116.136 14.1189 116.027 14.6775C115.866 15.7057 103.805 18.7341 31.9902 34.1461L37.539 55.25C83.3665 45.8311 121.238 38.1337 121.823 38.6931C122.229 39.1389 122.906 40.824 123.289 42.5735C123.656 44.2501 124.254 45.5706 124.622 45.4901C124.99 45.4096 128.579 39.9644 132.623 33.4266Z" fill="#FBFEF9"/>
<path d="M12.4816 61.1542C14.2333 60.4376 14.374 59.9904 13.7508 54.9628C13.3348 51.9721 12.5187 47.1532 11.8751 44.2124L10.6921 38.8075L7.65661 39.4719L4.62108 40.1362L5.30431 43.9846C5.75661 46.0512 6.15041 48.2139 6.36546 48.8331C6.50463 49.469 6.74035 51.9994 6.94128 54.3708C7.16288 58.6535 8.76786 62.7166 10.0058 62.1958C10.3678 62.0333 11.4539 61.5457 12.4816 61.1542Z" fill="#FBFEF9"/>
<path d="M34.0069 54.9485C34.0474 54.361 33.2363 49.4962 32.1602 44.1935L30.2153 34.5346L25.2942 35.6117L20.4537 36.6711L21.4212 38.7738C27.439 51.5916 30.6816 56.7508 32.3758 56.38C33.1825 56.2035 33.8857 55.5536 34.0069 54.9485Z" fill="#FBFEF9"/>
<path d="M27.6737 56.9132C27.5356 56.2821 20.841 42.9511 19.1052 39.694C18.0729 37.8534 17.3341 37.3538 16.0576 37.6332C14.4807 37.9783 14.359 38.5009 14.858 42.938C15.2197 45.6693 16.0476 50.5304 16.7382 53.6857L18.0157 59.5229L22.8965 58.4547C25.5997 57.863 27.7255 57.1498 27.6737 56.9132Z" fill="#FBFEF9"/>
<path d="M45.2179 37.028C45.4392 36.9874 45.6834 36.9885 45.8993 36.9184L45.9288 36.913C46.145 37.0107 46.3663 36.9702 46.5984 36.9887C46.5984 36.9887 46.6306 36.998 46.6454 36.9953C46.7125 37.0288 46.7649 37.0649 46.7703 37.0944C46.7931 37.136 46.8012 37.1803 46.8039 37.195L46.8283 37.3278C46.8393 37.5545 47.0487 37.6992 46.9914 37.9689C46.9796 38.1541 47.0939 38.3619 47.1666 38.5925C47.2312 38.7789 47.2892 39.0123 47.374 39.2255C47.3929 39.3288 47.4561 39.424 47.4898 39.5246C47.5234 39.6252 47.4752 39.695 47.4069 39.738C47.3532 39.7783 47.3117 39.8012 47.2674 39.8093C47.0072 39.8874 46.7417 39.9361 46.4908 39.982C46.4761 39.9847 46.4613 39.9874 46.3969 39.9687C46.3458 39.8561 46.3148 39.7702 46.2664 39.6724C46.1479 39.3586 46.012 39.0327 45.8225 38.7472C45.6853 38.4978 45.4798 38.2915 45.2435 38.167C45.0488 38.0197 44.8287 37.9837 44.6074 38.0242C44.3418 38.0729 44.1138 38.1604 43.9114 38.3042C43.6045 38.5434 43.4345 38.8643 43.4189 39.2788C43.4447 39.5029 43.4584 39.7443 43.5339 39.9898C43.5864 40.1936 43.6631 40.3626 43.8015 40.5355C43.9264 40.6346 44.0125 40.7713 44.1374 40.8705C44.3469 41.0151 44.5684 41.1423 44.8288 41.2318C44.8932 41.2505 44.9871 41.2638 45.0543 41.2973C45.2448 41.3386 45.4528 41.392 45.6661 41.3072C45.7238 41.3729 45.8111 41.4332 45.905 41.4465C46.1841 41.4716 46.4217 41.5196 46.6592 41.5676C46.8645 41.6063 47.043 41.6651 47.2363 41.7212L47.5906 41.824C47.6605 41.8722 47.7598 41.915 47.8269 41.9485C48.0216 42.0958 48.2137 42.2284 48.399 42.408C48.7214 42.6692 48.9015 42.9869 48.9772 43.4C49.0474 43.7837 49.1231 44.1968 49.1786 44.5831C49.1869 44.7951 49.2247 45.0016 49.2599 45.1935C49.3247 45.5476 49.2433 45.8522 49.0853 46.1556C48.9717 46.4509 48.7439 46.7061 48.5309 46.9586C48.4652 47.0164 48.3821 47.0621 48.3137 47.1052L47.5949 47.3435L46.5798 47.7124C46.3545 47.8147 46.1145 47.9196 45.8986 47.9897C45.7859 48.0408 45.6357 48.0531 45.5204 48.0894C45.4613 48.1002 45.3701 48.1017 45.3111 48.1125C44.8805 48.1761 44.4782 48.3108 44.0906 48.4427C44.0021 48.459 43.9283 48.4725 43.8425 48.5034C43.7298 48.5546 43.6775 48.5184 43.6411 48.4031C43.5954 48.3199 43.5617 48.2194 43.5428 48.1161C43.4794 47.8532 43.4013 47.593 43.3057 47.3208L43.0145 46.2304L42.7437 45.3345C42.7383 45.305 42.7007 45.2662 42.6926 45.2219C42.6845 45.1776 42.7059 45.128 42.7354 45.1226C42.7327 45.1078 42.7622 45.1024 42.7769 45.0997C43.0492 45.0041 43.3443 44.9501 43.6487 44.8638C43.6782 44.8584 43.7318 44.8181 43.7815 44.8395C43.8137 44.8488 43.8459 44.8582 43.8808 44.8823L43.9885 45.1371L44.3842 46.1321C44.4623 46.3922 44.6504 46.5865 44.8063 46.7715C44.9769 46.9537 45.1837 47.0836 45.4118 47.1638C45.4937 47.1946 45.6051 47.2199 45.6936 47.2037C45.9848 47.2114 46.2799 47.1574 46.544 47.0175C46.847 46.84 47.013 46.5809 47.0569 46.2374C47.1221 45.8442 47.0546 45.4753 46.9105 45.1052C46.8661 44.9456 46.7948 44.8062 46.7383 44.664C46.6495 44.5125 46.546 44.3637 46.3769 44.2727C46.1875 44.1549 46.0157 44.0491 45.8116 43.934C45.7123 43.8912 45.6304 43.8604 45.519 43.8351L44.6884 43.7127C44.1395 43.6302 43.5759 43.5504 43.047 43.327C42.7665 43.2107 42.5248 43.0567 42.322 42.8651C41.9566 42.5355 41.7253 42.1051 41.5825 41.6586C41.4103 41.2174 41.3265 40.76 41.2427 40.3026C41.2157 40.155 41.245 39.9819 41.2972 39.8504C41.2903 39.7296 41.3277 39.6008 41.3624 39.4572C41.3971 39.3136 41.4734 39.1471 41.5496 38.9807C41.7036 38.739 41.8401 38.4852 42.076 38.2743C42.2046 38.144 42.3239 38.0459 42.4526 37.9156C42.4673 37.9129 42.4914 37.878 42.5062 37.8753C42.7609 37.7676 43.0371 37.6103 43.2826 37.5349C43.5789 37.4044 43.8686 37.3208 44.1583 37.2373C44.5271 37.1697 44.8785 37.0901 45.2179 37.028ZM47.5519 37.6985C47.5988 37.7052 47.6431 37.6971 47.6633 37.7239C47.678 37.7212 47.6888 37.7802 47.6741 37.7829C47.6593 37.7856 47.615 37.7937 47.6096 37.7642C47.5922 37.7521 47.5895 37.7374 47.5519 37.6985ZM40.4595 39.4396C40.5253 39.5495 40.5175 39.6729 40.527 39.8084C40.527 39.8084 40.4975 39.8138 40.4827 39.8165L40.468 39.8192C40.4115 39.6771 40.4221 39.5684 40.4179 39.4624L40.43 39.445C40.4595 39.4396 40.4595 39.4396 40.4595 39.4396ZM47.8813 38.2482C47.884 38.2629 47.9189 38.287 47.9216 38.3018L47.8626 38.3126C47.8156 38.306 47.8075 38.2617 47.8222 38.259C47.8463 38.2241 47.8665 38.2509 47.8813 38.2482ZM39.8367 41.3683C39.8367 41.3683 39.8394 41.383 39.8689 41.3776C39.8394 41.383 39.8273 41.4005 39.8099 41.3884C39.8099 41.3884 39.8219 41.371 39.8367 41.3683ZM40.7665 41.3658L40.8161 41.3872C40.8215 41.4167 40.7947 41.4368 40.7854 41.469L40.7665 41.3658ZM40.8001 41.4663C40.8028 41.4811 40.8323 41.4757 40.8404 41.52C40.8404 41.52 40.8136 41.5401 40.8163 41.5549C40.7989 41.5428 40.7989 41.5428 40.7962 41.5281C40.7908 41.4986 40.7881 41.4838 40.8001 41.4663ZM40.9323 42.0216C41.0021 42.0698 41.0358 42.1704 40.9849 42.2255L40.9082 42.0565L40.9323 42.0216C40.9296 42.0069 40.9323 42.0216 40.9323 42.0216ZM41.0967 42.5862C41.1142 42.5983 41.1638 42.6197 41.1665 42.6345C41.2122 42.7176 41.1962 42.7968 41.1453 42.8518C41.1345 42.7928 41.1036 42.707 41.0901 42.6332C41.0901 42.6332 41.0994 42.601 41.0967 42.5862ZM41.1453 42.8518C41.2555 42.9537 41.2555 42.9537 41.2611 43.1509C41.2557 43.1214 41.2114 43.1295 41.2087 43.1147C41.1925 43.0262 41.1643 42.9551 41.1453 42.8518ZM41.3311 43.3668C41.4319 43.5008 41.5595 43.6147 41.5531 43.8294C41.4053 43.6887 41.3744 43.6029 41.3311 43.3668ZM41.7524 44.4181L41.6339 44.1043C41.7414 44.1914 41.8046 44.2865 41.8208 44.3751C41.8611 44.4287 41.8692 44.473 41.8357 44.5401C41.8303 44.5106 41.7981 44.5012 41.7981 44.5012L41.7524 44.4181ZM41.8721 44.6554L41.8505 44.5374C41.8559 44.5669 41.8613 44.5964 41.8935 44.6057C41.8989 44.6353 41.8721 44.6554 41.8721 44.6554ZM42.2574 45.9268C42.3071 45.9482 42.3218 45.9455 42.3393 45.9576C42.4052 46.0675 42.4536 46.1654 42.4873 46.2659C42.548 46.5141 42.6207 46.7447 42.6639 46.9808C42.629 46.9567 42.6089 46.9299 42.5806 46.8588C42.438 46.58 42.3196 46.2662 42.2574 45.9268ZM42.6639 46.9808C42.6693 47.0103 42.6922 47.0519 42.7151 47.0935C42.7581 47.1618 42.7743 47.2503 42.6966 47.3256C42.6885 47.2813 42.6629 47.225 42.6521 47.166C42.6413 47.107 42.6305 47.0479 42.6639 46.9808ZM42.7961 47.5361L42.6966 47.3256C42.7556 47.3148 42.8348 47.3308 42.8483 47.4045C42.8564 47.4488 42.835 47.4985 42.8404 47.528L42.7961 47.5361ZM49.4662 35.6553C49.5104 35.6472 49.536 35.7035 49.5387 35.7182C49.52 35.7827 49.3687 36.0391 49.3124 36.0647C49.2977 36.0674 49.2654 36.058 49.2654 36.058C49.2908 35.9466 49.1902 35.9803 49.1378 35.9441L49.324 35.7118C49.375 35.6567 49.4045 35.6513 49.4662 35.6553ZM50.2885 35.5657C50.2752 35.6596 50.2243 35.7147 50.18 35.7228C50.1089 35.7511 50.0391 35.7028 49.9895 35.6814C50.0163 35.6613 50.0109 35.6318 50.0109 35.6318C50.0524 35.6089 50.0873 35.633 50.1464 35.6222C50.1906 35.6141 50.2295 35.5765 50.2885 35.5657ZM49.0466 35.9456L49.1378 35.9441C49.1137 35.9791 49.0842 35.9845 49.0252 35.9953C49.0493 35.9604 49.0319 35.9483 49.0466 35.9456ZM48.6391 36.2185C48.7316 36.1405 48.8496 36.1189 48.9664 36.1738C49.0013 36.1979 49.0657 36.2166 49.1248 36.2058C49.2334 36.2164 49.3689 36.2068 49.5017 36.1825L50.3159 36.0486L51.5929 35.8605L51.6815 35.8443C51.7137 35.8537 51.7661 35.8898 51.7688 35.9046L51.824 36.1232C51.8538 36.2855 51.8567 36.468 51.9307 36.6222C51.9361 36.6517 51.9415 36.6812 51.9174 36.7161C51.962 37.0434 52.0094 37.3855 52.0541 37.7128C52.0556 37.804 52.0194 37.8564 51.9336 37.8873C51.7981 37.8969 51.6828 37.9333 51.5446 37.9281C51.456 37.9443 51.4078 38.0141 51.4213 38.0879C51.4471 38.3119 51.4702 38.5212 51.496 38.7452C51.5515 39.1315 51.5922 39.5205 51.6625 39.9042C51.6868 40.0369 51.7313 40.1965 51.7583 40.3441L51.8449 40.9839C51.8759 41.0698 51.9216 41.1529 51.9378 41.2414C51.9715 41.342 51.926 41.4266 51.9248 41.5031C51.9196 41.6413 51.9412 41.7593 51.9628 41.8773C52.0318 42.3374 52.0767 42.8324 52.2222 43.2938C52.2613 43.4239 52.2976 43.5392 52.3515 43.6666C52.3891 43.7055 52.4119 43.747 52.4146 43.7618C52.4751 43.8422 52.5395 43.8609 52.6106 43.8326C52.6669 43.8071 52.7085 43.7842 52.7527 43.7761L52.9419 43.7262L52.9915 43.7476L52.9849 43.7946C52.8843 43.8283 52.871 43.9222 52.8523 43.9866L52.8779 44.0429L52.9516 44.0294C53.0294 43.9542 53.0884 43.9434 53.1515 44.0386C53.1744 44.0801 53.2509 44.0814 53.2951 44.0733L53.6439 43.9789C53.8893 43.9035 54.1625 43.5637 54.185 43.2698C54.1927 42.9787 54.1561 42.6956 54.0993 42.3858C54.0519 42.0437 54.0019 41.6869 53.937 41.3328L53.9289 41.2885C53.9031 41.0645 53.8655 41.0257 53.6668 40.9401C53.6506 40.8515 53.7178 40.885 53.7539 40.8326C53.7913 40.7038 53.8194 40.6071 53.8246 40.4689L53.6229 39.1182L53.4982 38.104L53.4646 38.0035C53.4078 37.6936 53.456 37.6238 53.1073 37.7181C53.004 37.737 52.9074 37.709 52.8189 37.7252C52.7813 37.6863 52.7557 37.63 52.7476 37.5858C52.7085 37.4557 52.7017 37.3349 52.6599 37.1901L52.5044 36.2579C52.4653 36.1278 52.4678 35.9748 52.4435 35.842C52.4327 35.783 52.4809 35.7132 52.5399 35.7024L53.1503 35.6211C53.5098 35.5858 53.8693 35.5504 54.2355 35.4681C54.5158 35.4168 54.8311 35.3895 55.1114 35.3382C55.4535 35.2908 55.7808 35.2461 56.1228 35.1987C56.4381 35.1715 56.4381 35.1715 56.4894 35.4518L56.7154 36.9354C56.7262 36.9944 56.7517 37.0508 56.7505 37.1272C56.7372 37.2212 56.6233 37.3488 56.5092 37.3087C56.3978 37.2833 56.2999 37.3317 56.1967 37.3506C56.1539 37.45 56.1875 37.5506 56.1863 37.627C56.2268 37.8484 56.2821 38.067 56.2931 38.2937C56.3417 38.5593 56.3609 38.8303 56.3773 39.0865C56.3935 39.175 56.4124 39.2783 56.4313 39.3816C56.4611 39.5439 56.4908 39.7062 56.5057 39.8712L56.5637 40.1046C56.5652 40.1958 56.6203 40.2467 56.6606 40.3003C56.6485 40.3178 56.6043 40.3259 56.607 40.3406C56.6627 40.8947 56.7009 41.4366 56.7982 41.9678C56.8564 42.3689 56.8998 42.7727 56.9258 43.1644C56.9437 43.5119 56.9146 43.8527 56.8064 44.1775C56.6808 44.658 56.4358 45.0688 56.031 45.3564C55.7777 45.5553 55.5458 45.7045 55.2615 45.8176C54.9504 45.9508 54.6366 46.0693 54.3174 46.1582C54.2141 46.1771 54.1229 46.1786 54.0479 46.2686C54.0506 46.2833 54.009 46.3062 54.0063 46.2914C53.6213 46.2705 53.6213 46.2705 53.278 46.3943C53.2042 46.4078 53.1304 46.4213 53.0338 46.3933C52.9197 46.3532 52.8137 46.3573 52.693 46.3642C52.2838 46.3781 51.8517 46.3505 51.4357 46.2437C50.9955 46.1718 50.6169 45.9362 50.3066 45.6575C50.089 45.4686 49.9573 45.2487 49.8403 45.0262C49.6857 44.7647 49.5753 44.4952 49.5065 44.2028C49.3554 43.5443 49.2486 42.8776 49.2062 42.2296L49.1617 42.07C49.0902 41.7629 49.0362 41.4678 49.0143 41.1821C48.9979 40.9258 48.9574 40.7045 48.9289 40.4657C48.8208 39.8756 48.7396 39.2652 48.6435 38.6576C48.6408 38.6428 48.6475 38.5958 48.6394 38.5516C48.6286 38.4926 48.5909 38.4537 48.5145 38.4525L48.0664 38.504C48.0261 38.4504 48.018 38.4061 48.0099 38.3619C47.9625 38.0198 47.9004 37.6805 47.853 37.3384C47.8124 37.1171 47.7894 36.9078 47.7784 36.6811C47.7472 36.4276 47.7767 36.4221 48.0275 36.3762C48.1925 36.3612 48.328 36.3517 48.4849 36.2925C48.5439 36.2816 48.5828 36.244 48.6391 36.2185ZM52.2804 36.2836L52.3328 36.3198C52.3315 36.3963 52.2981 36.4634 52.3116 36.5372C52.2875 36.5721 52.2754 36.5895 52.2459 36.5949C52.2312 36.5976 52.2137 36.5856 52.2083 36.5561C52.2056 36.5413 52.1734 36.532 52.1505 36.4904C52.1719 36.4407 52.1759 36.379 52.212 36.3266C52.2093 36.3119 52.2656 36.2863 52.2804 36.2836ZM52.12 36.74C52.12 36.74 52.1576 36.7788 52.1603 36.7936C52.1805 36.8204 52.1711 36.8526 52.1121 36.8634C52.0853 36.8836 52.0799 36.8541 52.0651 36.8568C52.0396 36.8005 52.0757 36.7481 52.12 36.74ZM53.4507 40.8424C53.4615 40.9014 53.4844 40.943 53.4925 40.9872C53.5328 41.0408 53.5087 41.0758 53.4497 41.0866L53.2766 41.0573C53.3543 40.982 53.3784 40.9471 53.4507 40.8424ZM52.862 41.0417C52.9129 40.9866 52.9331 41.0134 53.0083 41.0911C52.8005 41.2055 52.8005 41.2055 52.5885 41.2138C52.6006 41.1963 52.5952 41.1668 52.5952 41.1668C52.7159 41.1599 52.7843 41.1169 52.862 41.0417ZM53.0405 41.1005L53.07 41.0951C53.117 41.1017 53.1224 41.1313 53.1224 41.1313C53.1224 41.1313 53.1251 41.146 53.0956 41.1514C53.0956 41.1514 53.0808 41.1541 53.0781 41.1394L53.0405 41.1005ZM56.6606 40.3003L56.8497 40.2504C56.8189 40.3323 56.7316 40.2721 56.6606 40.3003ZM48.956 42.7787L48.9774 42.729C48.9828 42.7585 49.015 42.7679 49.0204 42.7974C49.0204 42.7974 48.9936 42.8176 48.9788 42.8203C48.9761 42.8055 48.9614 42.8082 48.956 42.7787ZM48.7629 42.8903L48.7885 42.9466C48.7791 42.9788 48.7376 43.0017 48.6933 43.0098L48.6704 42.9682C48.6677 42.9535 48.6596 42.9092 48.6717 42.8918C48.6717 42.8918 48.6985 42.8716 48.7133 42.8689L48.7629 42.8903ZM50.7198 46.6645C50.7198 46.6645 50.7547 46.6886 50.7722 46.7007C50.7426 46.7061 50.7306 46.7236 50.7158 46.7263C50.6863 46.7317 50.6836 46.7169 50.6662 46.7049C50.6903 46.6699 50.705 46.6672 50.7198 46.6645ZM50.2343 46.8449L50.4638 46.8487C50.3069 46.9079 50.3069 46.9079 50.2343 46.8449ZM50.7643 46.8241C50.767 46.8389 50.7965 46.8335 50.8112 46.8308C50.8112 46.8308 50.8166 46.8603 50.7724 46.8684C50.7724 46.8684 50.7576 46.8711 50.7522 46.8416C50.7522 46.8416 50.7495 46.8268 50.7643 46.8241ZM56.7731 45.495C56.8201 45.5017 56.8496 45.4963 56.8912 45.4734C56.8376 45.5137 56.8376 45.5137 56.7731 45.495ZM51.1564 47.1336L51.756 46.9933C51.9008 46.9515 52.0592 46.9835 52.2215 46.9538L52.5301 46.9735L51.076 47.194C51.0652 47.135 51.1269 47.139 51.1564 47.1336ZM54.6048 46.3953C54.7873 46.3924 54.9791 46.3573 55.1562 46.3249C55.3305 46.2777 55.5238 46.3338 55.7008 46.3014C55.7304 46.296 55.7505 46.3228 55.768 46.3348L55.2019 46.408C54.9658 46.4512 54.7364 46.4475 54.4949 46.4612C54.3769 46.4828 54.2588 46.5044 54.1354 46.4965C54.2829 46.4695 54.4398 46.4103 54.6048 46.3953ZM53.4623 46.818C53.4771 46.8153 53.4945 46.8274 53.5294 46.8515L53.3819 46.8785L53.3765 46.849C53.3912 46.8463 53.418 46.8262 53.4623 46.818ZM55.768 46.3348L56.0161 46.2741C55.9384 46.3494 55.8565 46.3186 55.768 46.3348ZM57.1 46.1976C57.1979 46.1492 57.2328 46.1733 57.2973 46.192C57.2328 46.1733 57.1738 46.1841 57.1 46.1976ZM56.892 34.6614C56.9953 34.6425 57.1039 34.6531 57.1777 34.6396C57.4581 34.5882 57.7559 34.549 58.0214 34.5003C58.0832 34.5043 58.4078 34.4448 58.7176 34.3881L58.8209 34.3692C58.8853 34.3879 58.9028 34.3999 58.9136 34.4589L58.9541 34.6803C58.9865 34.8573 59.0042 35.0371 59.0366 35.2141C59.1248 35.9452 59.237 36.6414 59.364 37.3349L59.5806 38.8506L59.8025 40.3959L60.0732 42.2068L60.2316 43.3215L60.486 45.0438L60.5157 45.2062C60.5211 45.2357 60.4849 45.288 60.4259 45.2988L60.2931 45.3232L59.1046 45.495C58.9249 45.5127 58.7626 45.5424 58.6003 45.5722L58.5265 45.5857C58.4822 45.5938 58.4594 45.5522 58.4486 45.4932L58.3243 44.8145L58.1428 43.4905C58.09 43.1189 58.0198 42.7353 57.979 42.3463C57.9277 42.066 57.8965 41.8124 57.8533 41.5764L57.7151 40.4885L57.4486 38.7836L57.1429 36.7809L56.902 35.1323L56.8831 35.029C56.8226 34.9486 56.8211 34.8574 56.8344 34.7634C56.8384 34.7017 56.8625 34.6668 56.892 34.6614ZM56.9924 46.2021L57.2285 46.1589C57.529 46.1343 57.8443 46.1071 58.1421 46.0678L59.1709 45.9404C59.2005 45.935 59.2595 45.9242 59.3064 45.9308C59.395 45.9146 59.4151 45.9414 59.4702 45.9923C59.4729 46.0071 59.4756 46.0218 59.4461 46.0272C59.4367 46.0595 59.4247 46.0769 59.3952 46.0823C59.2678 46.1361 59.1645 46.1551 59.0465 46.1767C58.9875 46.1875 58.9284 46.1983 58.8788 46.1769C58.8318 46.1702 58.8023 46.1756 58.8023 46.1756C58.4268 46.2902 58.0739 46.2785 57.7063 46.2696L56.9831 46.2343C56.9536 46.2397 56.9509 46.2249 56.9334 46.2129C56.9482 46.2102 56.9723 46.1753 56.9924 46.2021ZM59.6501 35.178C61.2276 34.9654 62.8238 34.6883 64.3878 34.4019C64.919 34.3047 65.4327 34.1953 65.9612 34.0833C66.1825 34.0428 66.4213 34.0143 66.6359 34.0207C66.754 33.9991 66.8265 34.0621 66.8481 34.1801L66.8539 34.5451C66.771 35.8412 66.7526 37.156 66.7958 38.4748C66.8406 39.8848 67.0114 41.3175 67.2654 42.7044C67.3411 43.1175 67.4408 43.4957 67.5138 43.8941C67.5408 44.0417 67.5651 44.1745 67.5707 44.3717C67.3642 44.4095 67.1751 44.4594 66.9953 44.477C65.8484 44.6261 64.7189 44.7872 63.5733 44.8597C62.7603 44.9171 61.9581 45.0335 61.1587 45.1646C60.9789 45.1823 60.8314 45.2093 60.6489 45.2122C60.5429 45.2164 60.4879 45.1655 60.4717 45.077L60.4257 44.8261C60.2727 43.7409 60.0661 42.6961 59.877 41.6632C59.5137 39.7626 59.2979 37.8349 59.1909 35.9179C59.1786 35.7676 59.1636 35.6026 59.1809 35.447C59.174 35.3262 59.2517 35.251 59.355 35.2321C59.4556 35.1984 59.5589 35.1795 59.6501 35.178ZM66.3392 34.8986C65.6511 35.0551 64.9336 35.217 64.2455 35.3735C64.0389 35.4113 64.0055 35.4784 64.0366 35.7319L64.5135 39.335C64.5609 39.6771 64.5814 40.0393 64.6288 40.3813L64.5551 40.3948C64.3801 39.9389 64.2117 39.436 64.0662 38.9747C63.6973 37.9595 63.358 36.9389 63.0038 35.9211C62.9365 35.7199 62.8989 35.6811 62.6803 35.7363C62.0069 35.8901 61.3336 36.0439 60.663 36.2125C60.6188 36.2206 60.5893 36.226 60.5477 36.2489C60.4793 36.2919 60.4257 36.3322 60.4594 36.4328C60.4702 36.4918 60.4756 36.5213 60.5011 36.5776C60.9424 37.488 61.3366 38.3918 61.7604 39.2902L62.8662 41.6648C63.1353 42.3018 63.4286 42.9038 63.7245 43.5206C63.8241 43.7311 63.859 43.7552 64.095 43.712L65.6187 43.3719C65.8789 43.2938 66.174 43.2398 66.4516 43.1737C66.5992 43.1466 66.6742 43.0567 66.6592 42.8917C66.6684 42.6917 66.6896 42.4744 66.6638 42.2503C66.6411 41.2938 66.5715 40.3306 66.5783 39.3686C66.5631 37.9532 66.5036 36.5459 66.4737 35.1332C66.4574 35.0446 66.4439 34.9709 66.4036 34.9173C66.3714 34.9079 66.3687 34.8932 66.3392 34.8986ZM69.9035 31.9889C69.9531 32.0103 69.9974 32.0022 70.0121 31.9995C70.3072 31.9455 70.5755 31.9116 70.8411 31.863C71.0209 31.8453 71.1832 31.8156 71.3509 31.8154L72.2657 31.6478C72.4132 31.6208 72.546 31.5965 72.6962 31.5842C72.8561 31.7075 72.9005 31.8671 72.9745 32.0213C73.0996 32.2881 73.2301 32.5844 73.3553 32.8513C73.401 32.9344 73.4494 33.0323 73.546 33.0603C73.5608 33.0576 73.5984 33.0965 73.6132 33.0938C73.7755 33.0641 73.7755 33.0641 73.7676 33.1875C73.7543 33.2814 73.7235 33.3633 73.6578 33.4211C73.7628 33.6611 73.8623 33.8716 73.9525 34.1143L74.4894 35.297C74.5297 35.3506 74.5432 35.4244 74.5633 35.4512C74.7959 35.8051 74.9252 36.1779 75.1309 36.5519C75.2587 36.8335 75.3597 37.1353 75.4996 37.3994L76.3835 39.3115C76.4629 39.4952 76.5543 39.6614 76.6337 39.8451C76.6902 39.9873 76.7372 39.9939 76.87 39.9696L77.0323 39.9399C77.0404 39.9841 77.0578 39.9962 77.0659 40.0405C77.2357 40.6346 77.3318 41.2422 77.4841 41.8243L77.4949 41.8833C77.4816 41.9773 77.4602 42.0269 77.3864 42.0404C77.3301 42.066 77.2859 42.0741 77.2536 42.0648C76.6487 42.1755 76.0733 42.2809 75.4629 42.3622L74.4744 42.5432C74.1645 42.6 73.8547 42.6567 73.5421 42.6987C73.3061 42.7419 73.251 42.691 73.2427 42.479C73.1764 42.0337 73.1275 41.6004 73.0465 41.1578C73.0248 41.0397 73.0207 40.9337 73.0018 40.8305C72.9828 40.7272 73.019 40.6748 73.1223 40.6559L73.4912 40.5883C73.5502 40.5775 73.5917 40.5547 73.6749 40.509C73.6318 40.4406 73.621 40.3816 73.5928 40.3105C73.5053 40.0825 73.4999 40.053 73.249 40.0989L72.172 40.2962C72.0097 40.3259 71.8528 40.3851 71.685 40.3854C71.5938 40.3868 71.5429 40.4419 71.5471 40.5479C71.5217 40.6593 71.4964 40.7706 71.5327 40.886C71.6468 40.9261 71.7474 40.8924 71.8453 40.844C71.9191 40.8305 71.9754 40.8049 72.0344 40.7941C72.1994 40.7791 72.2518 40.8153 72.2788 40.9629C72.3206 41.1077 72.3422 41.2257 72.3692 41.3733C72.38 41.4323 72.3761 41.494 72.407 41.5798L72.5159 41.7581C72.4891 41.7783 72.4798 41.8105 72.4825 41.8253C72.4544 41.9219 72.4571 41.9367 72.5631 41.9325C72.5779 41.9298 72.5779 41.9298 72.6128 41.9539C72.6263 42.0277 72.6103 42.1069 72.5567 42.1472C72.5057 42.2022 72.5166 42.2613 72.5301 42.335C72.5517 42.4531 72.5733 42.5711 72.5829 42.7066C72.6018 42.8099 72.5361 42.8677 72.4355 42.9013L72.3618 42.9148C71.8574 42.9919 71.3852 43.0784 70.8836 43.1703C70.4208 43.2245 69.9754 43.2908 69.5181 43.3746L68.7656 43.5124C68.6918 43.5259 68.6126 43.5099 68.5388 43.5234C68.4798 43.5342 68.4302 43.5128 68.4139 43.4243C68.3547 43.2674 68.3277 43.1198 68.3275 42.9521C68.2518 42.539 68.1909 42.1232 68.118 41.7248C68.0989 41.4538 68.1082 41.4216 68.3563 41.3609C68.4596 41.342 68.5481 41.3258 68.6487 41.2921C68.7077 41.2813 68.7439 41.2289 68.7478 41.1672L68.801 40.7915C68.8727 40.1836 68.9269 39.5637 68.9986 38.9559C69.0452 38.6271 69.0742 38.2863 69.0711 37.9361C69.0884 37.7805 69.1231 37.6369 69.1403 37.4812C69.1642 37.2786 69.1706 37.0639 69.1798 36.864C69.2105 36.7822 69.2064 36.6762 69.2049 36.5849C69.281 36.2508 69.3275 35.922 69.3418 35.5839C69.347 35.4457 69.3844 35.3169 69.4071 35.1907L69.5143 34.0274C69.5315 33.8717 69.5139 33.692 69.5311 33.5363C69.5456 33.3659 69.5924 33.2049 69.6069 33.0344C69.6323 32.9231 69.5932 32.793 69.5782 32.628C69.656 32.5527 69.6907 32.4091 69.6811 32.2736C69.7052 32.2387 69.7025 32.224 69.7092 32.177C69.7345 32.0656 69.8002 32.0078 69.9035 31.9889ZM69.264 32.411C69.2788 32.4083 69.311 32.4177 69.3312 32.4445C69.3164 32.4472 69.2896 32.4673 69.2748 32.47L69.193 32.4393C69.1849 32.395 69.2291 32.3869 69.264 32.411ZM69.3459 32.4418C69.3956 32.4632 69.4452 32.4846 69.4413 32.5463L69.4026 32.7516L69.3879 32.7543C69.3488 32.6242 69.3488 32.6242 69.3459 32.4418ZM75.3537 31.3568C75.3565 31.3716 75.3619 31.4011 75.335 31.4213L75.3203 31.424C75.3203 31.424 75.3028 31.4119 75.3176 31.4092C75.3122 31.3797 75.3269 31.377 75.3537 31.3568ZM67.7296 33.7747L67.8881 32.8917C67.847 33.25 67.8085 33.623 67.7526 33.984C67.7244 33.9129 67.7283 33.8512 67.7296 33.7747ZM69.2283 32.7988L69.243 32.7961C69.2632 32.8229 69.2659 32.8377 69.2686 32.8524C69.3035 32.8765 69.274 32.8819 69.2767 32.8967C69.262 32.8994 69.2445 32.8873 69.2445 32.8873L69.2283 32.7988ZM75.2941 31.9472L75.4456 31.8585C75.4537 31.9027 75.4712 31.9148 75.4793 31.9591L75.482 31.9738C75.4861 32.0798 75.5171 32.1656 75.5159 32.2421C75.5294 32.3159 75.5053 32.3508 75.4517 32.3911C75.4099 32.2463 75.403 32.1255 75.4726 32.006L75.3748 32.0545C75.3534 32.1041 75.3211 32.0948 75.2862 32.0707C75.2366 32.0493 75.2526 31.9701 75.2941 31.9472ZM73.5157 32.3949L73.6229 32.3143C73.6229 32.3143 73.6377 32.3116 73.6431 32.3411C73.6726 32.3357 73.6753 32.3504 73.6753 32.3504C73.6472 32.4471 73.6084 32.4847 73.5481 32.572C73.45 32.4527 73.45 32.4527 73.5157 32.3949ZM73.7 32.8186C73.7027 32.8334 73.7081 32.8629 73.6813 32.883C73.6666 32.8858 73.6397 32.9059 73.6102 32.9113L73.6585 32.8415C73.6557 32.8267 73.6732 32.8388 73.7 32.8186ZM67.7526 33.984L67.7674 33.9813L67.7568 34.09L67.7526 33.984ZM67.7568 34.09L67.6878 34.7126C67.6743 34.6388 67.6542 34.612 67.6608 34.565C67.6781 34.4094 67.7101 34.251 67.7568 34.09ZM68.4912 34.5197L68.5006 34.4875C68.506 34.517 68.5355 34.5116 68.5355 34.5116C68.5584 34.5532 68.5692 34.6122 68.5357 34.6793L68.5062 34.6847C68.4659 34.6311 68.4551 34.5721 68.4912 34.5197ZM67.7119 34.6777C67.7094 34.8306 67.6988 34.9393 67.644 35.0561C67.6654 35.0064 67.6546 34.9474 67.6585 34.8857C67.6772 34.8213 67.6785 34.7448 67.7119 34.6777ZM75.7535 34.4555L75.7584 34.1496C75.7894 34.2354 75.8324 34.3038 75.8486 34.3923L75.9 34.6727C75.7751 34.5736 75.7375 34.5347 75.7535 34.4555ZM68.6872 35.6733L68.7113 35.6384C68.7945 35.5926 68.8911 35.6207 68.973 35.6514C68.9073 35.7092 68.8242 35.7549 68.7302 35.7416C68.7155 35.7443 68.7074 35.7001 68.6872 35.6733ZM67.6249 35.8678L67.6638 35.8302C67.6517 35.8477 67.6544 35.8624 67.6598 35.8919L67.633 35.9121L67.6249 35.8678ZM69.0212 35.5816L69.0654 35.5735C69.0977 35.5829 69.0708 35.603 69.0615 35.6352C69.0172 35.6433 69.0025 35.646 68.9676 35.6219C68.9971 35.6165 69.0091 35.5991 69.0212 35.5816ZM67.6455 36.23C67.6536 36.2743 67.6617 36.3186 67.6349 36.3387C67.5973 36.2999 67.6214 36.2649 67.6455 36.23ZM75.9245 34.9732C75.954 34.9678 75.9567 34.9825 75.9567 34.9825C75.9648 35.0268 75.9702 35.0563 75.9461 35.0912C75.8991 35.0846 75.9206 35.0349 75.9124 34.9906C75.9097 34.9759 75.907 34.9611 75.9245 34.9732ZM67.6432 36.5507C67.6908 37.0605 67.7297 38.1055 67.7073 38.3994C67.6399 38.1982 67.6019 37.824 67.5902 37.0941C67.59 36.9264 67.575 36.7614 67.6432 36.5507ZM71.8431 35.9188C71.831 35.9363 71.8042 35.9564 71.8096 35.986C71.8327 36.1952 71.8209 36.3804 71.7795 36.5709C71.7608 36.6354 71.7716 36.6944 71.765 36.7414C71.7265 37.1144 71.7028 37.4847 71.6912 37.8376C71.6553 38.0576 71.6636 38.2696 71.6626 38.5138C71.7095 38.5204 71.7297 38.5472 71.7739 38.5391C72.0985 38.4797 72.4581 38.4444 72.8014 38.3205C72.532 37.5159 72.1621 36.7449 71.8927 35.9402C71.89 35.9255 71.8753 35.9282 71.8431 35.9188ZM67.7156 38.6114C67.7156 38.6114 67.7451 38.606 67.7505 38.6355C67.721 38.6409 67.7237 38.6556 67.7264 38.6704L67.7089 38.6583C67.7062 38.6436 67.7156 38.6114 67.7156 38.6114ZM67.7322 39.0353L67.7106 38.9173C67.763 38.9534 67.7536 38.9856 67.7322 39.0353ZM67.7322 39.0353C67.7873 39.0862 67.7806 39.1332 67.7914 39.1922C67.77 39.2419 67.7634 39.2888 67.7715 39.3331C67.7083 39.2379 67.7511 39.1386 67.7322 39.0353ZM67.7715 39.3331L67.7904 39.4364C67.7931 39.4511 67.7931 39.4511 67.7636 39.4565L67.7461 39.4445C67.7528 39.3975 67.7447 39.3533 67.7715 39.3331ZM67.7466 39.7799C67.807 39.8603 67.7709 39.9127 67.7468 39.9476C67.7414 39.9181 67.7628 39.8684 67.7466 39.7799ZM67.7468 39.9476C67.8368 40.0226 67.8087 40.1192 67.7753 40.1864C67.7644 40.1274 67.763 40.0361 67.7468 39.9476ZM67.7753 40.1864C67.7981 40.2279 67.8303 40.2373 67.8357 40.2668C67.8509 40.5995 67.9104 40.9241 67.8867 41.2944C67.8584 41.2234 67.8382 41.1965 67.8301 41.1523C67.8029 40.837 67.7435 40.5124 67.7753 40.1864ZM68.0976 42.613L68.0777 42.7539C68.075 42.7391 68.0374 42.7003 68.0976 42.613ZM68.0777 42.7539C68.0858 42.7982 68.1382 42.8343 68.149 42.8933C68.1841 43.0851 68.2367 43.289 68.2101 43.4769C68.1631 43.4702 68.1523 43.4112 68.1442 43.3669C68.1211 43.1577 68.086 42.9659 68.0777 42.7539ZM68.2101 43.4769C68.2155 43.5064 68.2329 43.5184 68.2383 43.5479C68.2868 43.6458 68.2789 43.7693 68.2992 43.9638C68.2172 43.7653 68.1781 43.6352 68.2101 43.4769ZM76.7036 31.7349L78.5479 31.3971C78.6512 31.3782 78.7358 31.4237 78.8164 31.5309L79.2424 32.1087C79.8929 32.996 80.6413 33.8349 81.2649 34.7424C81.7581 35.3536 82.1735 36.04 82.6573 36.6834L82.7554 36.8026C82.7608 36.8322 82.7903 36.8267 82.7903 36.8267C82.8051 36.824 82.8292 36.7891 82.8292 36.7891L82.8342 36.4832C82.7639 36.0996 82.6078 35.747 82.5349 35.3486C82.4349 34.8027 82.4262 34.2553 82.3021 33.7443L82.0456 32.5103C81.9943 32.2299 81.9014 31.9725 81.7615 31.7083C81.5599 31.4403 81.3974 31.3023 81.0647 31.3175L80.9359 31.2801C80.8473 31.2963 80.8097 31.2574 80.7788 31.1716C80.7653 31.0978 80.7665 31.0213 80.8496 30.9756L80.9878 30.9808C81.4546 30.8648 81.9469 30.8052 82.4097 30.7509L82.8966 30.6618C83.0321 30.6522 83.1019 30.7004 83.0967 30.8386C83.1048 30.8829 83.0458 30.8937 83.0069 30.9313C82.9292 31.0065 82.8259 31.0254 82.7549 31.0537C82.6329 31.137 82.5431 31.2297 82.5178 31.3411C82.4255 31.5868 82.3654 31.8417 82.3819 32.098C82.4012 32.5367 82.4473 32.9552 82.5257 33.3831C82.7416 34.3958 82.8489 35.3978 83.0031 36.4065C83.1463 37.1885 83.3579 37.9275 83.5092 38.7538L83.9484 41.2353C83.9538 41.2648 83.9767 41.3063 83.9727 41.368C83.9835 41.4271 83.9326 41.4821 83.9031 41.4875L83.4162 41.5767C83.3518 41.558 83.3223 41.5634 83.294 41.4923L83.0346 41.1586L81.8667 39.5273C81.6732 39.3035 81.5159 39.0273 81.3317 38.7713C81.2673 38.7526 81.2324 38.7285 81.2243 38.6842L81.2833 38.6734L80.6663 37.7189L80.1019 36.9683C79.3909 36.0006 78.6185 35.1966 77.8819 34.1725L77.378 33.5023L77.3202 33.4366C77.3148 33.4071 77.2853 33.4125 77.2558 33.4179C77.241 33.4206 77.2464 33.4501 77.2169 33.4555L77.2737 33.7654L77.6819 36.161L78.2087 39.0382C78.2817 39.4366 78.3224 39.8256 78.4357 40.2776C78.5084 40.5083 78.5598 40.7886 78.6433 41.0783C78.7146 41.2177 78.7738 41.3746 78.837 41.4698C78.9835 41.687 79.1406 41.7954 79.3848 41.7965L79.6612 41.8069C79.6666 41.8364 79.7042 41.8752 79.7392 41.8993C79.7527 41.9731 79.7099 42.0724 79.6803 42.0778C79.6147 42.1356 79.5557 42.1464 79.5114 42.1545L78.8032 42.2842C78.5027 42.3088 78.1928 42.3655 77.9125 42.4168L77.5704 42.4642C77.4765 42.4509 77.4416 42.4268 77.4281 42.353C77.4173 42.294 77.4387 42.2444 77.4923 42.204L77.629 42.118C77.9106 41.9902 78.0739 41.7163 78.1286 41.4318C78.1498 41.2144 78.1454 40.9407 78.1371 40.7288C78.0964 40.3397 78.018 39.9119 77.9477 39.5282C77.88 38.9917 77.8083 38.5168 77.7137 38.0004C77.6083 37.425 77.4855 36.8375 77.3774 36.2473L77.1517 34.9314C77.122 34.7691 77.0802 34.6243 77.0505 34.462L76.8302 33.1756L76.7857 33.016C76.7734 32.8658 76.713 32.7854 76.635 32.6929C76.3852 32.4946 76.1408 32.3259 75.9045 32.2014L75.7691 32.211C75.6845 32.1655 75.6415 32.0971 75.6547 32.0032C75.656 31.9267 75.7096 31.8864 75.7834 31.8729L76.7036 31.7349ZM76.3514 33.3091C76.2832 33.5198 76.1828 33.7212 76.0798 33.9078C76.0557 33.9427 75.9283 33.9965 75.8934 33.9724C75.8034 33.8974 75.7215 33.8666 75.7026 33.7634C75.6972 33.7338 75.6783 33.6306 75.7171 33.5929C75.9397 33.4759 76.0669 33.2544 76.3514 33.3091ZM81.4484 32.3299C81.5812 32.3056 81.6738 32.3954 81.7518 32.4878C81.7653 32.5616 81.7815 32.6501 81.7279 32.6905C81.7011 32.7106 81.6568 32.7187 81.5951 32.7148C81.4461 32.6506 81.3829 32.5554 81.3975 32.385C81.3948 32.3702 81.4189 32.3353 81.4484 32.3299ZM82.9482 33.2752C83.1159 33.275 83.2634 33.248 83.3989 33.2384C83.4633 33.2571 83.4916 33.3282 83.5614 33.3764C83.5804 33.4797 83.4532 33.7012 83.3391 33.6611C83.1726 33.5849 83.0706 33.5273 82.9135 33.4188C82.9081 33.3893 82.9482 33.2752 82.9482 33.2752ZM81.5171 37.8681C81.4151 37.8106 81.4138 37.887 81.4219 37.9313L81.5011 37.9473L81.599 37.8989C81.5963 37.8841 81.5466 37.8627 81.5171 37.8681ZM78.6296 39.7541L78.5452 39.8763L78.4525 39.7865L78.5959 39.6535L78.6296 39.7541ZM80.7944 39.2509C80.9714 39.2185 81.1632 39.1834 81.4947 39.2447L80.7424 39.5502C80.6052 39.3008 80.6321 39.2807 80.7944 39.2509ZM80.7478 39.5797L80.5695 39.6886L80.7424 39.5502L80.7478 39.5797ZM79.3829 40.2871C79.3883 40.3166 79.4178 40.3112 79.4178 40.3112C79.4232 40.3407 79.3964 40.3609 79.4018 40.3904C79.3669 40.3663 79.3441 40.3247 79.3588 40.322C79.3387 40.2952 79.3829 40.2871 79.3829 40.2871ZM87.7389 28.921L88.0192 28.8697C88.0635 28.8616 88.0864 28.9032 88.0918 28.9327L88.1458 29.2278C88.2416 29.6677 88.3254 30.1251 88.4333 30.5476L88.463 30.7099C88.4684 30.7394 88.447 30.7891 88.4175 30.7945L88.2847 30.8188C87.948 30.8957 87.6529 30.9497 87.3163 31.0266L87.2277 31.0428C87.1889 31.0804 87.1768 31.0979 87.1795 31.1127L87.2093 31.275C87.2552 31.5258 87.3186 31.7887 87.3645 32.0395C87.4495 32.4204 87.5144 32.7745 87.6141 33.1527L87.7384 33.8315L88.046 35.1781L88.1082 35.5174C88.1811 35.9158 88.2688 36.3115 88.3472 36.7394C88.4214 37.0613 88.4862 37.4154 88.5752 37.7346C88.6454 38.1182 88.725 38.4696 88.81 38.8505L88.9505 39.6178C88.9532 39.6325 88.9291 39.6674 88.9023 39.6876L88.7843 39.7092C88.3296 39.8077 87.8722 39.8915 87.4054 40.0075L86.8005 40.1182C86.6972 40.1371 86.6771 40.1103 86.6636 40.0366L86.5555 39.4464C86.4233 38.8911 86.3113 38.3626 86.214 37.8315C86.1155 37.3768 86.0317 36.9194 85.9359 36.4795C85.8091 35.9537 85.7025 35.4547 85.6079 34.9383C85.5148 34.5131 85.4311 34.0557 85.3178 33.6038C85.195 33.0163 85.0694 32.414 84.9587 31.8091C84.9129 31.726 84.9075 31.6965 84.894 31.6227C84.8712 31.5811 84.8537 31.5691 84.8242 31.5745C84.7947 31.5799 84.7303 31.5612 84.6914 31.5988C84.4258 31.6474 84.1602 31.6961 83.9121 31.7568L83.735 31.7892C83.558 31.8216 83.5875 31.8162 83.5229 31.6298C83.4784 31.4702 83.4514 31.3226 83.4271 31.1898L83.3366 30.7794L83.1826 29.9384C83.1745 29.8941 83.2013 29.874 83.2429 29.8511L83.3019 29.8403C83.5112 29.8172 83.7325 29.7767 83.8921 29.7322L84.261 29.6647C84.9987 29.5296 85.7015 29.3704 86.4365 29.2205L87.7389 28.921ZM88.5002 31.496L88.489 31.1016C88.5133 31.2344 88.5966 31.3564 88.5002 31.496ZM88.9734 32.2481L88.964 32.2803L88.9385 32.224L88.9734 32.2481ZM89.0933 32.6531L89.0491 32.6612C89.0343 32.6639 89.0316 32.6492 89.0289 32.6344C89.0262 32.6197 89.0409 32.617 89.0651 32.582L89.0933 32.6531ZM89.1355 33.1334C89.4094 33.2967 89.4003 33.4966 89.4944 33.6776C89.2689 33.6122 89.2727 33.3827 89.1355 33.1334ZM89.4998 33.7071C89.516 33.7957 89.5296 33.8694 89.5888 34.0263C89.4558 33.8829 89.516 33.7957 89.4998 33.7071ZM89.6538 34.5481C89.7679 34.5883 89.7372 34.6701 89.7332 34.7319C89.744 34.7909 89.7401 34.8526 89.7066 34.9197C89.5938 34.8031 89.6164 34.677 89.6538 34.5481ZM89.8239 35.31C90.045 36.1845 90.1088 36.7827 90.1103 37.9567C90.1022 37.9124 90.0552 37.9058 90.0525 37.891C90.0116 37.3343 89.9827 36.7601 89.8532 36.2196C89.775 35.9594 89.7881 35.6978 89.8239 35.31ZM83.7867 36.568C83.8364 36.5894 83.8445 36.6337 83.8646 36.6605L83.8056 36.6713C83.7734 36.662 83.7506 36.6204 83.7183 36.6111C83.7452 36.5909 83.7867 36.568 83.7867 36.568ZM90.2022 38.4583C90.3111 38.6366 90.2736 38.7655 90.2859 38.9157C90.2915 39.113 90.3092 39.2927 90.2974 39.4779C90.3096 39.6281 90.4038 39.8091 90.3007 39.9957C90.1313 39.737 90.2678 39.4833 90.2246 39.2472C90.1934 38.9937 90.2092 38.7468 90.2022 38.4583ZM86.4231 39.8061L86.5035 39.7456C86.5035 39.7456 86.5384 39.7697 86.5411 39.7845L86.4433 39.8329C86.4433 39.8329 86.4406 39.8182 86.4231 39.8061Z" fill="#1B2129"/>
</svg>
