<svg width="375" height="1370" viewBox="0 0 375 1370" fill="none" xmlns="http://www.w3.org/2000/svg">
<path d="M253.352 1238C333.455 1079.13 334.35 1077.34 330.578 1079.25C327.509 1080.69 327.829 1078.17 331.856 1069.3C333.774 1065.11 333.71 1064.87 331.345 1066.31C314.532 1075.54 98.7721 1187.64 98.5164 1187.16C98.3246 1186.8 101.329 1179.01 105.165 1169.77C109.065 1160.54 113.412 1149.87 114.882 1146.16L117.567 1139.2L114.563 1141C111.494 1142.92 111.494 1142.92 115.01 1134.17C119.101 1124.21 119.549 1124.09 105.037 1136.2C98.3885 1141.72 97.6853 1141.96 99.9228 1137.76C104.462 1129.13 209.816 961.877 211.415 960.678C212.246 960.078 223.369 968.95 236.091 980.46L259.297 1001.44L265.946 989.093C273.809 974.585 273.489 974.705 276.75 984.297L279.243 991.73L283.654 978.902C286.083 971.708 291.198 956.002 294.97 943.892C303.216 917.755 304.047 916.796 310.44 926.388L315.299 933.701L316.066 927.107C316.514 923.39 317.089 918.714 317.409 916.676C317.728 914.518 320.094 910.921 322.715 908.523C327.318 904.447 327.381 904.087 324.952 901.09C312.997 885.983 312.23 890.419 344.003 791.505C361.583 736.713 370.853 705.78 369.638 705.78C367.976 705.78 368.04 704.941 369.83 699.786C372.579 691.872 380.314 689.115 284.485 729.639C237.817 749.302 199.332 764.649 198.885 763.81C197.606 760.932 172.993 638.639 173.569 637.68C173.824 637.2 188.4 639.958 205.981 643.675C223.497 647.511 238.073 650.149 238.393 649.549C239.799 646.912 237.881 615.859 229.89 510.351C225.031 447.046 221.196 395.012 221.387 394.652C221.515 394.292 254.119 396.69 293.755 400.047C379.739 407.241 376.607 407.121 374.113 402.805C373.09 401.006 331.729 373.311 282.12 341.299C232.511 309.287 191.533 282.31 190.957 281.351C190.382 280.512 196.583 273.918 204.638 266.724C223.689 249.938 223.561 252.216 207.131 211.212C194.026 178.721 193.706 177.522 196.008 173.445C209.433 149.346 229.57 120.571 270.868 66.6186C297.846 31.3694 320.413 1.63537 321.116 0.316521C322.331 -1.7217 311.975 6.19139 294.458 20.9385C284.485 29.2113 284.293 28.9715 291.773 16.5024C297.846 6.31129 294.011 9.06888 199.012 85.3223C110.087 156.78 100.306 165.173 103.439 167.211C107.658 170.088 107.85 172.007 104.27 175.004C102.032 176.802 108.617 183.277 144.225 213.85C167.687 234.112 187.313 251.377 187.825 252.336C188.336 253.176 182.199 259.17 174.08 265.645C166.025 271.999 159.696 277.994 160.016 278.953C160.399 280.032 159.632 281.591 158.418 282.43C156.18 283.989 159.249 286.746 245.297 357.485C264.092 372.951 279.499 386.259 279.499 386.979C279.563 387.578 245.169 382.543 203.168 375.709C161.167 368.875 122.554 362.64 117.375 361.801C111.43 360.842 108.297 361.081 108.745 362.52C109.192 363.839 108.745 365.278 107.722 365.637C106.507 366.237 121.978 407.96 151.769 485.053C177.021 550.276 197.478 603.869 197.286 604.349C197.095 604.709 184.756 595.836 169.861 584.686C140.198 562.386 139.431 561.906 141.477 569.1C142.244 571.857 142.499 575.094 142.052 576.413C141.668 577.732 150.874 621.134 162.573 672.809C174.272 724.604 183.989 767.886 184.117 769.205C184.181 770.404 178.939 773.761 172.418 776.638C158.609 782.753 157.842 783.712 162.573 787.789L166.089 790.786L162.637 793.424C159.313 795.942 160.016 797.021 182.647 822.079C195.496 836.346 208.026 850.254 210.392 852.892L214.739 857.807L213.844 851.093C213.269 846.777 213.46 844.979 214.291 846.058C216.145 848.096 216.337 849.655 209.369 816.084C203.232 786.71 203.168 786.11 205.853 784.551C210.456 781.794 294.97 755.537 295.609 756.616C296.312 757.935 282.312 952.525 281.097 958.16C280.394 961.517 279.051 959.599 274.065 947.849L267.864 933.341L261.535 950.367C257.507 960.917 254.567 966.672 253.608 965.713C252.777 964.874 236.667 945.211 217.808 922.071L183.478 879.988L169.669 906.245C119.805 1000.72 -0.573212 1233.92 0.00214727 1234.88C0.321791 1235.6 1.79216 1235 3.1986 1233.56C7.80147 1228.88 7.80147 1230.68 3.32645 1239.43C-2.10749 1249.98 -6.26289 1252.98 47.1816 1208.62C70.1959 1189.56 89.0549 1174.57 89.0549 1175.41C89.0549 1176.25 84.9635 1186.68 79.9771 1198.55C73.1367 1214.86 71.4745 1220.37 73.0727 1220.97C74.9906 1221.69 74.9906 1222.17 73.1367 1227.56C70.5795 1234.76 62.6524 1236.8 139.559 1210.78C176.126 1198.43 206.3 1188.72 206.556 1189.2C206.812 1189.68 196.967 1230.56 184.629 1280.08L162.189 1370L174.528 1369.88L186.866 1369.76L253.352 1238ZM183.861 791.745C186.866 788.268 188.656 789.587 190.638 796.781C193.834 808.411 192.939 809.729 187.377 801.577C183.542 795.822 182.647 793.304 183.861 791.745Z" fill="#EE6258"/>
</svg>
