<svg width="74" height="78" viewBox="0 0 74 78" fill="none" xmlns="http://www.w3.org/2000/svg">
<g opacity="0.9" clip-path="url(#clip0_168_209)" filter="url(#filter0_d_168_209)">
<path d="M20.9428 47.9677C19.459 47.9677 18.0515 47.8704 16.7422 47.676C7.41723 46.3287 5.00598 40.7556 4.74412 40.0681C4.70411 40.0229 4.63865 39.95 4.56955 39.8528L4.3186 39.5021L4.75139 39.4049C5.88246 39.1479 6.67167 38.1965 6.67167 37.0923C6.67167 36.5714 6.50074 36.0749 6.17342 35.6582L5.9843 35.4152L6.24615 35.2415C6.88988 34.8179 7.67181 34.4082 8.57012 34.0332C10.2795 33.2762 11.7124 32.5401 12.9417 31.7796C17.7096 28.8629 19.6081 25.7204 22.2303 21.3765C22.7431 20.5258 23.2741 19.6508 23.8596 18.7132C28.293 11.6644 36.4832 10.1713 36.5669 10.1539H36.6214C36.6214 10.1539 38.3053 10.0775 40.1565 7.15034C40.3347 6.85867 40.5456 6.50102 40.7529 6.10517C42.9969 0.389705 46.7502 0.32373 46.9066 0.32373C49.8924 0.32373 52.0346 4.74054 53.0456 7.37257C53.2056 7.77536 53.362 8.19899 53.5184 8.6747L53.5439 8.76498C53.6748 9.13305 53.8094 9.56709 53.9694 10.1053C54.0021 10.2129 54.0348 10.3345 54.0639 10.4491L54.0821 10.5185C54.3694 11.529 54.6204 12.6436 54.835 13.8276C54.8386 13.8415 54.8422 13.8589 54.8459 13.8797C55.1405 15.5569 55.2968 17.1576 55.2968 18.5118C55.2968 18.6959 55.2968 18.8799 55.2896 19.0639C55.2896 19.2931 55.2823 19.5327 55.2678 19.7653C55.1841 21.7446 54.8932 23.7238 54.3985 25.6405C54.1912 26.4531 53.9621 27.2239 53.7148 27.9323C53.4057 28.8316 53.082 29.6441 52.7256 30.415C52.5728 30.7657 52.4092 31.1129 52.2382 31.4428C51.249 33.4359 50.0088 35.3457 48.5541 37.1097C48.1176 37.6513 47.6339 38.1965 47.1175 38.7312C46.8775 38.9917 46.6556 39.2174 46.4483 39.4257C42.3677 43.4675 37.2179 46.3287 31.5553 47.7003L31.4861 47.7107L28.0457 47.7836C26.8455 47.8044 25.7144 47.8253 24.6088 47.8635C23.9614 47.8774 23.3468 47.9017 22.6667 47.9295C22.0848 47.9572 21.5102 47.9711 20.9465 47.9711L20.9428 47.9677ZM5.31147 39.8459C5.47513 40.2695 7.80638 45.794 16.8368 47.0961C18.6043 47.36 20.5537 47.4399 22.6376 47.3392C23.325 47.3114 23.9432 47.2836 24.5906 47.2732C25.6962 47.235 26.8309 47.2141 28.0347 47.1933L31.4389 47.1204C36.9778 45.7731 42.0186 42.971 46.0119 39.016C46.2155 38.8146 46.4301 38.5923 46.6665 38.3389C47.172 37.8145 47.6448 37.2798 48.074 36.752C49.5033 35.0193 50.718 33.1477 51.6891 31.1893C51.8564 30.8664 52.0164 30.5331 52.1655 30.1893C52.5183 29.4288 52.8347 28.6337 53.1365 27.7517C53.3802 27.0572 53.6057 26.3003 53.8094 25.5016C54.2931 23.6196 54.5804 21.6821 54.6604 19.7376C54.6749 19.5119 54.6822 19.2827 54.6822 19.0535C54.6895 18.866 54.6895 18.6889 54.6895 18.5118C54.6895 17.1889 54.5367 15.6159 54.2458 13.97C54.2422 13.9561 54.2385 13.9388 54.2349 13.9214C54.0239 12.7582 53.7766 11.6644 53.4966 10.6678L53.4784 10.5914C53.4493 10.4838 53.4239 10.3727 53.3875 10.2685C53.2311 9.73376 53.0965 9.30666 52.962 8.92818L52.9329 8.83443C52.7838 8.38997 52.631 7.97329 52.4746 7.57744C50.8453 3.33772 48.8159 0.907083 46.9066 0.907083C46.7647 0.907083 43.4115 0.997363 41.3094 6.33434C41.0839 6.77533 40.8657 7.1434 40.6802 7.44549C38.7526 10.4907 36.9378 10.713 36.6542 10.7268C36.2141 10.8102 28.5657 12.3519 24.3833 19.0084C23.7978 19.939 23.2704 20.814 22.7576 21.6612C20.0881 26.078 18.1606 29.2726 13.269 32.2657C12.0179 33.0401 10.5595 33.7936 8.82107 34.561C8.06823 34.8769 7.40632 35.2138 6.8426 35.5575C7.13355 36.0193 7.28267 36.5402 7.28267 37.0853C7.28267 38.3215 6.48983 39.4049 5.31147 39.8424V39.8459Z" fill="#FBFEF9"/>
<path d="M16.1785 69.6593L15.9384 69.3815C13.8472 66.9544 12.6943 63.8813 12.6943 60.7285C12.6943 56.395 14.7783 52.4157 18.4115 49.8114C20.2081 48.5197 22.3212 47.6517 24.5179 47.294H24.5579L25.8562 47.2454L25.3507 47.7628C23.1649 49.9955 21.9648 52.9088 21.9648 55.9644C21.9648 58.5999 22.8413 61.1035 24.4997 63.2008L24.7288 63.489L24.3833 63.6418C21.0883 65.0897 18.3351 67.0724 16.4149 69.3815L16.1785 69.6628V69.6593ZM24.4015 47.9051C22.3794 48.2663 20.4373 49.0857 18.7788 50.2767C15.302 52.7699 13.3053 56.579 13.3053 60.7285C13.3053 63.6279 14.3237 66.4543 16.1785 68.7322C18.0733 66.5516 20.6919 64.6696 23.7905 63.2598C22.1975 61.1208 21.3574 58.6034 21.3574 55.9609C21.3574 52.999 22.4339 50.1656 24.4051 47.9051H24.4015Z" fill="#FBFEF9"/>
<path d="M29.8859 61.8466L29.7695 61.6729C28.4529 59.6763 27.7583 57.3638 27.7583 54.9922C27.7583 52.1622 28.7148 49.4885 30.5296 47.2662L30.6169 47.1586L31.4061 47.1343C33.5155 46.6238 35.5631 45.8981 37.487 44.9745L38.4835 44.4953L37.8798 45.3912C36.585 47.3148 35.9013 49.5475 35.9013 51.8497C35.9013 54.1519 36.5632 56.3117 37.8216 58.218C38.3744 59.0652 39.0363 59.843 39.7964 60.534L40.3565 61.0445L38.8399 61.0306C38.3453 61.0236 37.8543 61.0201 37.4797 61.0201C34.9484 61.0201 32.4681 61.284 30.1005 61.8014L29.8895 61.8466H29.8859ZM30.926 47.735C29.2531 49.8323 28.3693 52.3393 28.3693 54.9922C28.3693 57.1832 28.9912 59.3222 30.1732 61.1868C32.5226 60.6903 34.9775 60.4368 37.4761 60.4368C37.8507 60.4368 38.3453 60.4437 38.8399 60.4472C38.2616 59.8569 37.7452 59.2145 37.2979 58.5305C35.9813 56.5339 35.2867 54.2213 35.2867 51.8532C35.2867 49.7628 35.8249 47.7315 36.8469 45.9155C35.1412 46.6655 33.3555 47.2662 31.5188 47.7107L31.4534 47.7211L30.9188 47.7385L30.926 47.735Z" fill="#FBFEF9"/>
<path d="M49.4015 59.7979L49.296 59.7527C46.8375 58.7319 44.7863 57.0408 43.3679 54.8637C42.0513 52.8671 41.3567 50.558 41.3567 48.1864C41.3567 45.6724 42.1277 43.2487 43.5825 41.1792L43.637 41.1202C44.2335 40.6375 44.8045 40.1445 45.3354 39.6514C45.6337 39.3736 45.9246 39.0889 46.2047 38.8007C46.412 38.5958 46.6265 38.3736 46.8629 38.1166C46.9866 37.9847 47.1102 37.8492 47.223 37.7138C47.6085 37.2902 47.9613 36.87 48.2777 36.4603C49.7797 34.6061 51.0381 32.5817 52.02 30.4462C52.0673 30.3455 52.1146 30.2518 52.1546 30.1546C52.4528 29.4983 52.7256 28.8246 52.9693 28.1475C53.3366 27.1163 53.6494 26.0815 53.8894 25.0641C54.3004 23.3314 54.5477 21.5432 54.6241 19.748C54.6422 19.3834 54.6532 18.9841 54.6532 18.5257C54.6532 17.227 54.5077 15.7027 54.2313 14.0985C54.024 12.8866 53.7257 11.5984 53.3511 10.2754L53.1729 9.64694L53.7839 9.93862C53.9003 9.99418 54.024 10.0567 54.1404 10.1192C55.0023 10.5567 55.7624 10.9873 56.4607 11.4317C60.0867 13.6957 63.1671 16.7756 65.3602 20.3417C65.5856 20.7029 65.8039 21.0813 66.0112 21.4633C66.4912 22.3349 66.924 23.2307 67.2913 24.1231L67.4405 24.4842L67.0368 24.519C66.3094 24.5849 65.462 24.5884 64.6328 24.5051C63.2471 24.387 61.8906 24.0502 60.6104 23.5154C58.5846 22.6751 56.8207 21.3661 55.4642 19.6994C55.3733 21.5918 55.0932 23.4807 54.6277 25.3176C54.8095 25.6579 54.995 25.9773 55.1987 26.2864C56.5516 28.3628 58.5083 29.974 60.854 30.9462C62.076 31.4602 63.3671 31.7761 64.691 31.8907C65.502 31.9706 66.3167 31.9636 67.0077 31.9046C67.6187 31.8525 68.2187 31.7622 68.797 31.6303L69.1425 31.5539L69.1716 31.8942C69.2262 32.5921 69.2553 33.3074 69.2553 34.0193C69.2553 37.6027 68.5279 41.0889 67.0913 44.3807C66.8113 45.0335 66.4949 45.6794 66.1566 46.3044L66.0803 46.4468L65.913 46.4606C65.1819 46.5266 64.3236 46.5301 63.4835 46.4468C62.0979 46.3252 60.7413 45.9919 59.4611 45.4537C57.0026 44.4328 54.9514 42.7452 53.533 40.5646C52.2164 38.568 51.5218 36.2589 51.5218 33.8873C51.5218 33.5366 51.5363 33.1859 51.5691 32.8387C50.7653 34.2311 49.8343 35.5679 48.7978 36.8319C48.6123 37.6617 48.5177 38.5159 48.5177 39.3701C48.5177 41.6306 49.1796 43.8321 50.438 45.7384C51.7909 47.8148 53.7476 49.4295 56.0934 50.4017C57.3154 50.9156 58.6065 51.2316 59.9303 51.3462C60.334 51.3844 60.7231 51.4052 61.1268 51.4052C61.4323 51.4052 61.6869 51.3983 61.9306 51.3809L62.6689 51.3254L62.1852 51.8601C62.0069 52.058 61.8251 52.2525 61.6323 52.4504C59.3375 54.8012 56.6534 56.7179 53.6639 58.1485C52.3328 58.7909 50.9363 59.3326 49.5142 59.7631L49.4051 59.7944L49.4015 59.7979ZM44.0662 41.5403C42.6914 43.5057 41.9677 45.8044 41.9677 48.1899C41.9677 50.4504 42.6296 52.6518 43.888 54.5581C45.2227 56.6068 47.1393 58.2006 49.4379 59.1763C50.7908 58.7631 52.1182 58.2423 53.3875 57.6311C56.3152 56.2318 58.9374 54.3533 61.185 52.058C61.2068 52.0372 61.225 52.0164 61.2468 51.9955C60.7995 51.9955 60.334 51.9782 59.8721 51.933C58.4864 51.815 57.1299 51.4782 55.8497 50.94C53.3912 49.9191 51.3399 48.2315 49.9216 46.0509C48.605 44.0543 47.9104 41.7452 47.9104 39.3736C47.9104 38.8215 47.9467 38.2729 48.0231 37.7242C47.9176 37.8458 47.8085 37.9673 47.6994 38.0888C47.583 38.2243 47.4558 38.3701 47.3248 38.5055C47.0812 38.7659 46.8629 38.9951 46.652 39.2C46.3683 39.4917 46.0701 39.7833 45.7646 40.0681C45.2336 40.5611 44.6626 41.0542 44.0662 41.5369V41.5403ZM52.5729 30.7136L52.4637 31.1581C52.2455 32.0574 52.1364 32.9741 52.1364 33.8908C52.1364 36.1513 52.7983 38.3562 54.0567 40.259C55.4096 42.3355 57.3663 43.9501 59.7121 44.9224C60.9341 45.4363 62.2252 45.7523 63.549 45.8669C63.9527 45.9051 64.3418 45.9259 64.7455 45.9259C65.0874 45.9259 65.4002 45.9155 65.6984 45.8947C66.0002 45.3287 66.2803 44.7453 66.5349 44.1585C67.9387 40.9362 68.6515 37.5263 68.6515 34.0193C68.6515 33.4359 68.6334 32.8491 68.5933 32.2727C68.0951 32.3699 67.5823 32.4428 67.0659 32.4845C66.3385 32.5505 65.4765 32.5539 64.6364 32.4706C63.2508 32.3525 61.8942 32.0157 60.614 31.481C58.1555 30.4601 56.1043 28.7726 54.6859 26.5919C54.5513 26.3871 54.424 26.1753 54.3004 25.96C54.0894 26.7482 53.8385 27.5434 53.5548 28.335C53.3039 29.0295 53.0275 29.7136 52.7292 30.3733C52.6892 30.474 52.6383 30.5782 52.5874 30.6858C52.5838 30.6962 52.5801 30.7032 52.5765 30.7136H52.5729ZM55.2714 18.425L55.4424 18.6681C56.788 20.5779 58.661 22.0675 60.8577 22.9772C62.0797 23.4911 63.3708 23.8071 64.6946 23.9217C65.0983 23.9599 65.4874 23.9807 65.8911 23.9807C66.1312 23.9807 66.3567 23.9738 66.5712 23.9634C66.2476 23.2134 65.8802 22.4633 65.4729 21.7307C65.2692 21.3557 65.0547 20.9876 64.8364 20.6334C62.6907 17.1472 59.6793 14.1297 56.1261 11.9144C55.5187 11.5255 54.8605 11.1505 54.1222 10.765C54.4204 11.8797 54.6604 12.9665 54.8386 13.9978C55.1187 15.6228 55.2642 17.109 55.2678 18.4181L55.2714 18.425Z" fill="#FBFEF9"/>
<path d="M28.0637 54.9922C28.0637 57.3881 28.7838 59.6278 30.0276 61.5167C27.9728 61.9646 26.0271 62.5931 24.2486 63.3744C22.6193 61.3118 21.6555 58.7458 21.6555 55.961C21.6555 52.7143 22.9721 49.7629 25.1251 47.5614C26.2998 47.5267 27.5255 47.5093 28.7838 47.4885C29.4348 47.4815 30.1004 47.4607 30.7696 47.4468C29.0711 49.5302 28.0637 52.1483 28.0637 54.9922Z" fill="#FBFEF9"/>
<path d="M24.1578 63.7355L24.0087 63.548C22.2703 61.3466 21.3538 58.7249 21.3538 55.961C21.3538 52.7595 22.6158 49.7038 24.9034 47.36L24.9906 47.2697H25.1179C26.2599 47.235 27.4019 47.2142 28.7803 47.1933C29.2058 47.1898 29.6386 47.1794 30.075 47.169L31.4098 47.1412C31.4098 47.1412 28.373 52.2907 28.373 54.9922C28.373 57.2527 29.0349 59.4541 30.2932 61.3604L30.5224 61.7077L30.1005 61.798C28.0784 62.2389 26.1545 62.857 24.3833 63.6348L24.1614 63.7321L24.1578 63.7355ZM25.2634 47.8496C23.1322 50.0719 21.9611 52.947 21.9611 55.961C21.9611 58.5201 22.7867 60.9507 24.3506 63.0098C25.9762 62.3119 27.722 61.7459 29.5513 61.3257C28.3766 59.409 27.7583 57.2284 27.7583 54.9922C27.7583 52.3636 28.5839 49.874 30.1514 47.7524H30.0859C29.6495 47.7628 29.2131 47.7732 28.7876 47.7801C27.4674 47.801 26.3581 47.8183 25.2634 47.8496Z" fill="#FBFEF9"/>
<path d="M49.4195 59.4854C48.5321 59.7597 47.6302 59.9785 46.7137 60.166C44.8662 60.534 42.9422 60.7285 40.9783 60.7285C40.9783 60.7632 40.3564 60.7563 39.5854 60.7493C38.8144 60.0479 38.1306 59.2458 37.5633 58.3777C36.3195 56.4888 35.5994 54.2526 35.5994 51.8532C35.5994 49.4538 36.3413 47.1447 37.6287 45.2349C38.1525 44.9884 38.6725 44.721 39.1817 44.4398C40.16 43.912 41.1056 43.339 42.0076 42.7036C42.6367 42.2696 43.2441 41.8147 43.8406 41.3424C42.4622 43.2974 41.6657 45.6481 41.6657 48.1864C41.6657 50.5754 42.3858 52.822 43.6296 54.7109C45.0007 56.8152 47.0228 58.4888 49.4195 59.4854Z" fill="#FBFEF9"/>
<path d="M40.4474 61.0445C40.251 61.0445 39.9964 61.0445 39.6618 61.041H39.4582L39.3709 60.9611C38.5744 60.2354 37.8797 59.4194 37.3015 58.534C35.9849 56.5374 35.2903 54.2283 35.2903 51.8567C35.2903 49.4851 36.0067 47.0961 37.3669 45.0821L37.4142 45.0127L37.4906 44.978C37.9852 44.7453 38.4871 44.4884 39.0254 44.1932C40.0291 43.6515 40.9675 43.0751 41.8221 42.4744C42.4295 42.0543 43.0405 41.6029 43.6406 41.1237L45.2881 39.8111L44.0916 41.5091C42.7023 43.4814 41.9676 45.794 41.9676 48.1899C41.9676 50.4504 42.6295 52.6518 43.8879 54.5581C45.2408 56.6346 47.1975 58.2492 49.5432 59.2215L50.2852 59.5305L49.5141 59.7666C48.6704 60.0271 47.7757 60.2528 46.7792 60.4542C44.9062 60.8257 42.9787 61.0167 41.0475 61.0201C40.9566 61.041 40.7929 61.0445 40.451 61.0445H40.4474ZM39.7091 60.4576C40.0582 60.4576 40.4328 60.4646 40.6729 60.4576V60.4333H40.9784C42.8914 60.4333 44.8007 60.2458 46.6519 59.8777C47.3357 59.7389 47.9721 59.5895 48.5722 59.4229C46.4337 58.3846 44.648 56.8221 43.3678 54.8602C42.0513 52.8636 41.3566 50.5545 41.3566 48.1829C41.3566 46.2002 41.8367 44.2765 42.7495 42.5369C42.5604 42.6723 42.3713 42.8078 42.1822 42.9362C41.3093 43.5474 40.3492 44.1377 39.3272 44.6898C38.8072 44.9745 38.3162 45.228 37.8361 45.4571C36.5705 47.3635 35.9013 49.5719 35.9013 51.8497C35.9013 54.1276 36.5632 56.3117 37.8216 58.218C38.3525 59.0305 38.9854 59.784 39.7091 60.4542V60.4576Z" fill="#FBFEF9"/>
<path d="M65.8911 46.1724C64.8291 48.1621 63.498 50.0128 61.9523 51.6761C61.6796 51.6969 61.4068 51.7039 61.1268 51.7039C60.7158 51.7039 60.3085 51.683 59.9011 51.6448C58.5082 51.5233 57.1953 51.19 55.9697 50.6761C53.5693 49.6795 51.5508 48.0058 50.1797 45.9016C48.9359 44.0126 48.2158 41.7695 48.2158 39.3771C48.2158 38.4639 48.3213 37.568 48.5177 36.7138C49.9433 34.9846 51.1762 33.1026 52.1691 31.099C51.9509 31.9949 51.8345 32.9359 51.8345 33.8977C51.8345 36.2867 52.5546 38.5333 53.7984 40.4223C55.1696 42.5265 57.1917 44.2036 59.5884 45.1967C60.814 45.7106 62.1269 46.044 63.5198 46.1655C63.9272 46.2072 64.3309 46.2245 64.7455 46.2245C65.131 46.2245 65.5165 46.2106 65.8911 46.1794V46.1724Z" fill="#FBFEF9"/>
<path d="M61.1268 51.9921C60.7013 51.9921 60.2904 51.9712 59.8721 51.9296C58.4865 51.8115 57.1299 51.4747 55.8497 50.9365C53.3912 49.9156 51.34 48.2281 49.9216 46.0474C48.605 44.0508 47.9104 41.7417 47.9104 39.3701C47.9104 38.4534 48.0122 37.5367 48.2195 36.6443L48.2341 36.5784L48.2777 36.5263C49.7034 34.7971 50.9217 32.9255 51.8928 30.9671L53.1039 28.5226L52.4638 31.1581C52.2456 32.0574 52.1365 32.9741 52.1365 33.8908C52.1365 36.1513 52.7984 38.3562 54.0567 40.259C55.4097 42.3355 57.3663 43.9501 59.7121 44.9224C60.9341 45.4363 62.2252 45.7523 63.549 45.8669C64.36 45.9467 65.1747 45.9398 65.8657 45.8808L66.4185 45.8321L66.1676 46.3044C65.102 48.301 63.76 50.1726 62.1852 51.8671L62.1015 51.9539L61.9779 51.9643C61.7233 51.9817 61.4505 51.9921 61.1305 51.9921H61.1268ZM48.7978 36.8353C48.6123 37.6652 48.5178 38.5194 48.5178 39.3736C48.5178 41.6341 49.1797 43.8356 50.438 45.7419C51.791 47.8183 53.7476 49.433 56.0934 50.4052C57.3154 50.9191 58.6065 51.2351 59.9303 51.3497C60.334 51.3879 60.7232 51.4087 61.1268 51.4087C61.3814 51.4087 61.6033 51.4018 61.8069 51.3914C63.1926 49.8878 64.3855 48.2454 65.3675 46.4988C65.1674 46.5058 64.9601 46.5127 64.7419 46.5127C64.3164 46.5127 63.9054 46.4919 63.4872 46.4502C62.1015 46.3287 60.745 45.9953 59.4648 45.4571C57.0063 44.4363 54.9551 42.7487 53.5367 40.5681C52.2201 38.5715 51.5255 36.2624 51.5255 33.8908C51.5255 33.5401 51.54 33.1894 51.5727 32.8421C50.769 34.2345 49.8379 35.5714 48.8014 36.8353H48.7978Z" fill="#FBFEF9"/>
<path d="M68.8697 31.915C68.2769 32.047 67.6659 32.1407 67.0367 32.1963C66.6585 32.231 66.273 32.2414 65.8911 32.2414C65.4801 32.2414 65.0728 32.2206 64.6655 32.1824C63.2725 32.0609 61.9596 31.7275 60.734 31.2136C58.3337 30.2171 56.3152 28.5434 54.9441 26.4392C54.7149 26.085 54.504 25.7239 54.3076 25.3523C54.7913 23.4773 55.0823 21.5328 55.1696 19.5292C55.1841 19.3035 55.1914 19.0674 55.1914 18.8347C56.5552 20.7723 58.4791 22.314 60.7376 23.2481C61.9633 23.762 63.2762 24.0953 64.6691 24.2169C65.0764 24.2585 65.4801 24.2759 65.8947 24.2759C66.273 24.2759 66.6439 24.262 67.0149 24.2308C67.6805 25.8384 68.1823 27.5156 68.5133 29.2587C68.6806 30.1268 68.8006 31.0157 68.877 31.915H68.8697Z" fill="#FBFEF9"/>
<path d="M65.8911 32.5331C65.4655 32.5331 65.0546 32.5123 64.6363 32.4706C63.2507 32.3525 61.8941 32.0157 60.6139 31.481C58.1554 30.4601 56.1042 28.7726 54.6858 26.5919C54.453 26.2343 54.2421 25.8732 54.0348 25.4808L53.9839 25.3836L54.0093 25.2794C54.4931 23.3974 54.7804 21.4598 54.8604 19.5153C54.8749 19.2896 54.8822 19.0604 54.8822 18.8313V17.8764L55.4423 18.6715C56.7879 20.5813 58.6609 22.071 60.8576 22.9807C62.0796 23.4946 63.3707 23.8106 64.6945 23.9252C65.491 24.005 66.2948 24.0016 66.9821 23.9391L67.2112 23.9182L67.2949 24.1231C67.9714 25.762 68.4805 27.4739 68.8078 29.2066C68.9715 30.0539 69.0952 30.9601 69.1752 31.8907L69.197 32.1407L68.9424 32.1998C68.335 32.3352 67.7059 32.4324 67.0658 32.488C66.7021 32.5192 66.3166 32.5366 65.8911 32.5366V32.5331ZM54.6313 25.3141C54.8131 25.6544 54.9986 25.9739 55.2022 26.2829C56.5552 28.3594 58.5118 29.9705 60.8576 30.9428C62.0796 31.4567 63.3707 31.7727 64.6945 31.8872C65.5055 31.9671 66.3202 31.9602 67.0112 31.9011C67.5313 31.856 68.0441 31.7831 68.546 31.6824C68.4696 30.8594 68.3532 30.0608 68.2078 29.3073C67.9023 27.6822 67.4295 26.078 66.8076 24.5328C66.5166 24.5537 66.2147 24.5641 65.8911 24.5641C65.4655 24.5641 65.0546 24.5433 64.6363 24.5016C63.2507 24.3835 61.8941 24.0467 60.6139 23.512C58.5882 22.6717 56.8243 21.3626 55.4677 19.6959C55.3768 21.5883 55.0968 23.4773 54.6313 25.3141Z" fill="#FBFEF9"/>
<path d="M51.7108 28.6962C51.5435 29.1267 51.3653 29.5469 51.1762 29.967C51.0416 30.2761 50.8962 30.5886 50.7361 30.8907C49.8305 32.7171 48.7067 34.4325 47.4084 36.0124C47.001 36.5193 46.5683 37.0055 46.1136 37.4742C45.9173 37.686 45.7136 37.9013 45.5063 38.1027C44.4225 39.1791 43.2441 40.1722 41.9785 41.0542C32.7008 39.8597 24.8633 34.3075 20.8191 26.6267C22.0629 25.0085 23.1031 23.2099 24.3723 21.1299C29.4603 26.3037 36.6977 29.5434 44.7207 29.5434C47.1392 29.5434 49.4778 29.2517 51.7108 28.6962Z" fill="#FBFEF9"/>
<path d="M42.0621 41.3598L41.9385 41.3424C32.7263 40.1584 24.7324 34.7033 20.55 26.7551L20.4663 26.5954L20.5754 26.453C21.6192 25.0954 22.5066 23.6231 23.5395 21.9216C23.725 21.6161 23.9141 21.3001 24.1105 20.9806L24.3178 20.6438L24.5978 20.9286C29.7986 26.2169 37.1342 29.2517 44.7244 29.2517C47.0738 29.2517 49.3978 28.9705 51.6381 28.4149L52.2018 28.276L52.0018 28.7969C51.8417 29.2136 51.6635 29.6337 51.4599 30.0851C51.3217 30.408 51.1689 30.724 51.0125 31.0261C50.1106 32.8456 48.9795 34.5853 47.652 36.1964C47.252 36.6895 46.8119 37.1895 46.3428 37.6756C46.1246 37.9118 45.9209 38.1201 45.7318 38.3076C44.6262 39.4083 43.426 40.4118 42.1676 41.2938L42.0694 41.3633L42.0621 41.3598ZM21.1791 26.6544C25.2743 34.3109 32.999 39.5681 41.8985 40.7521C43.0914 39.9083 44.2297 38.95 45.2844 37.9013C45.4699 37.7173 45.6663 37.5159 45.8809 37.2833C46.3428 36.8041 46.7719 36.3214 47.1611 35.8388C48.4631 34.2589 49.5723 32.5574 50.4561 30.7726C50.6088 30.481 50.7543 30.1754 50.8889 29.8594C51.0053 29.6025 51.1144 29.3559 51.2126 29.1163C49.1032 29.5955 46.921 29.8351 44.7171 29.8351C37.0978 29.8351 29.7258 26.8419 24.4269 21.6126C24.3032 21.8175 24.1832 22.0189 24.0632 22.2168C23.0594 23.8731 22.1902 25.3141 21.1755 26.6579L21.1791 26.6544Z" fill="#FBFEF9"/>
<path d="M6.97707 37.0888C6.97707 38.3493 6.06057 39.4048 4.82403 39.6861C4.38397 39.0923 3.55112 37.3839 6.41699 35.4776C6.76613 35.9256 6.97707 36.4777 6.97707 37.0853V37.0888Z" fill="#FBFEF9"/>
<path d="M4.69307 40.016L4.57305 39.8562C4.32211 39.5194 3.92932 38.818 4.09662 37.9117C4.26755 36.9707 4.9913 36.0749 6.24239 35.2415L6.48606 35.0818L6.66426 35.3075C7.0716 35.8249 7.28254 36.4429 7.28254 37.0923C7.28254 38.4708 6.30058 39.6549 4.8931 39.9743L4.69307 40.0194V40.016ZM6.33694 35.8943C5.38044 36.5784 4.82764 37.2902 4.69671 38.009C4.59124 38.5819 4.77672 39.0507 4.95493 39.3458C5.97326 39.0264 6.6679 38.1236 6.6679 37.0888C6.6679 36.6652 6.55516 36.2554 6.33331 35.8943H6.33694Z" fill="#FBFEF9"/>
</g>
<defs>
<filter id="filter0_d_168_209" x="0.0566406" y="0.32373" width="73.2021" height="77.3356" filterUnits="userSpaceOnUse" color-interpolation-filters="sRGB">
<feFlood flood-opacity="0" result="BackgroundImageFix"/>
<feColorMatrix in="SourceAlpha" type="matrix" values="0 0 0 0 0 0 0 0 0 0 0 0 0 0 0 0 0 0 127 0" result="hardAlpha"/>
<feOffset dy="4"/>
<feGaussianBlur stdDeviation="2"/>
<feComposite in2="hardAlpha" operator="out"/>
<feColorMatrix type="matrix" values="0 0 0 0 0 0 0 0 0 0 0 0 0 0 0 0 0 0 0.25 0"/>
<feBlend mode="normal" in2="BackgroundImageFix" result="effect1_dropShadow_168_209"/>
<feBlend mode="normal" in="SourceGraphic" in2="effect1_dropShadow_168_209" result="shape"/>
</filter>
<clipPath id="clip0_168_209">
<rect width="65.2021" height="69.3356" fill="white" transform="translate(4.05664 0.32373)"/>
</clipPath>
</defs>
</svg>
