<svg width="375" height="1351" viewBox="0 0 375 1351" fill="none" xmlns="http://www.w3.org/2000/svg">
<path d="M366.935 1220.37C564.521 1011.42 566.729 1009.05 557.425 1011.57C549.856 1013.47 550.645 1010.15 560.579 998.484C565.31 992.965 565.152 992.649 559.318 994.542C517.845 1006.68 -14.3622 1154.14 -14.993 1153.5C-15.466 1153.03 -8.0546 1142.78 1.40686 1130.64C11.026 1118.5 21.7491 1104.46 25.376 1099.57L31.999 1090.42L24.5875 1092.79C17.0183 1095.31 17.0183 1095.31 25.6913 1083.8C35.7836 1070.71 36.8873 1070.55 1.09148 1086.48C-15.3084 1093.74 -17.043 1094.05 -11.5238 1088.53C-0.327762 1077.18 259.547 857.184 263.489 855.607C265.539 854.818 292.978 866.488 324.358 881.627L381.6 909.225L398 892.982C417.396 873.9 416.607 874.058 424.65 886.674L430.799 896.451L441.68 879.577C447.672 870.115 460.288 849.456 469.591 833.528C489.934 799.149 491.984 797.888 507.753 810.504L519.737 820.124L521.629 811.45C522.733 806.562 524.153 800.411 524.941 797.73C525.729 794.892 531.564 790.16 538.029 787.006C549.383 781.645 549.541 781.171 543.549 777.229C514.06 757.359 512.168 763.194 590.54 633.09C633.905 561.02 656.771 520.333 653.775 520.333C649.675 520.333 649.832 519.229 654.248 512.448C661.028 502.04 680.109 498.412 443.73 551.716C328.616 577.579 233.686 597.764 232.582 596.661C229.428 592.876 168.717 432.02 170.136 430.758C170.767 430.128 206.721 433.755 250.086 438.643C293.293 443.69 329.246 447.159 330.035 446.371C333.504 442.901 328.773 402.057 309.062 263.279C297.077 180.013 287.616 111.57 288.089 111.097C288.404 110.624 368.827 113.778 466.595 118.194C678.69 127.656 670.963 127.498 664.813 121.821C662.29 119.455 560.264 83.0262 437.896 40.9199C315.527 -1.18645 214.447 -36.6693 213.028 -37.9309C211.609 -39.0348 226.905 -47.7084 246.774 -57.1705C293.766 -79.2487 293.451 -76.2524 252.924 -130.186C220.597 -172.924 219.809 -174.501 225.486 -179.862C258.601 -211.56 308.273 -249.409 410.142 -320.375C476.687 -366.739 532.352 -405.849 534.087 -407.584C537.083 -410.265 511.537 -399.856 468.33 -380.459C443.73 -369.578 443.257 -369.893 461.707 -386.294C476.687 -399.699 467.226 -396.071 232.897 -295.773C13.549 -201.783 -10.5777 -190.744 -2.85088 -188.063C7.55673 -184.278 8.0298 -181.755 -0.800891 -177.812C-6.32008 -175.447 9.92212 -166.931 97.756 -126.717C155.629 -100.065 204.04 -77.3563 205.301 -76.0947C206.563 -74.9908 191.424 -67.1057 171.398 -58.5898C151.529 -50.2316 135.917 -42.3466 136.706 -41.085C137.652 -39.6656 135.76 -37.6155 132.763 -36.5116C127.244 -34.4615 134.813 -30.8343 347.065 62.2096C393.427 82.5531 431.43 100.058 431.43 101.004C431.588 101.793 346.75 95.1693 243.147 86.1803C139.544 77.1913 44.2987 68.9908 31.5258 67.8869C16.8605 66.6253 9.13364 66.9407 10.2375 68.8331C11.3413 70.5678 10.2374 72.4603 7.71439 72.9334C4.71826 73.7219 42.8796 128.602 116.364 230.004C178.652 315.794 229.113 386.287 228.64 386.917C228.167 387.39 197.732 375.721 160.99 361.054C87.8215 331.722 85.9292 331.091 90.9753 340.553C92.8676 344.18 93.4984 348.438 92.3946 350.173C91.4484 351.908 114.156 408.996 143.013 476.965C171.871 545.092 195.84 602.022 196.155 603.757C196.313 605.334 183.382 609.75 167.298 613.535C133.237 621.577 131.344 622.839 143.013 628.201L151.686 632.143L143.171 635.613C134.971 638.925 136.706 640.344 192.528 673.304C224.224 692.07 255.132 710.363 260.966 713.833L271.689 720.299L269.482 711.467C268.062 705.79 268.535 703.425 270.585 704.844C275.158 707.525 275.632 709.575 258.443 665.418C243.305 626.782 243.147 625.993 249.77 623.943C261.124 620.316 469.591 585.779 471.168 587.198C472.903 588.933 438.369 844.883 435.373 852.295C433.638 856.711 430.326 854.187 418.027 838.733L402.73 819.651L387.119 842.044C377.185 855.922 369.931 863.492 367.565 862.23C365.515 861.126 325.777 835.263 279.258 804.827L194.578 749.473L160.517 784.01C37.5181 908.279 -259.414 1215.01 -257.995 1216.27C-257.206 1217.22 -253.579 1216.43 -250.11 1214.54C-238.757 1208.39 -238.757 1210.75 -249.795 1222.26C-263.199 1236.14 -273.449 1240.08 -141.619 1181.73C-84.8501 1156.66 -38.3312 1136.95 -38.3312 1138.05C-38.3312 1139.15 -48.4235 1152.87 -60.7234 1168.49C-77.5963 1189.93 -81.6963 1197.19 -77.754 1197.98C-73.0233 1198.92 -73.0233 1199.55 -77.5963 1206.65C-83.904 1216.11 -103.458 1218.79 86.2447 1184.57C176.444 1168.33 250.874 1155.56 251.505 1156.19C252.136 1156.82 227.851 1210.59 197.417 1275.72L142.067 1394L172.502 1393.84L202.936 1393.68L366.935 1220.37ZM195.524 633.405C202.936 628.832 207.351 630.566 212.24 640.029C220.124 655.326 217.917 657.06 204.198 646.337C194.736 638.767 192.528 635.455 195.524 633.405Z" fill="#EE6258"/>
</svg>
